<svg xmlns="http://www.w3.org/2000/svg" width="138" height="32" xmlns:v="https://vecta.io/nano"><path d="M31.282 6.64c.18 0 .4.036.662.108s.454.17.58.297l3.16 3.16c.126.126.225.32.297.58s.108.48.108.66v8.775c0 .144-.045.346-.135.607s-.18.436-.27.527l-3.16 3.16c-.126.126-.32.225-.58.297s-.48.108-.662.108H20.05c-.198 0-.418-.04-.662-.122a2.62 2.62 0 0 1-.689-.351c-.216-.153-.4-.328-.553-.526s-.23-.414-.23-.648V8.287c0-.144.054-.306.162-.486a2.35 2.35 0 0 1 .405-.5c.162-.153.328-.283.5-.39s.328-.162.473-.162l11.826-.108zm-10.098 6.83l1.728 1.836c.108.108.21.306.31.594s.148.504.148.648v3.97c0 .18.067.355.203.526a2.23 2.23 0 0 0 .5.459 2.92 2.92 0 0 0 .621.324 1.65 1.65 0 0 0 .567.121h6.02c.216 0 .436-.054.662-.162a2.36 2.36 0 0 0 .608-.419c.18-.17.324-.37.432-.594s.162-.445.162-.662v-8.667c0-.162-.04-.346-.12-.553a2.21 2.21 0 0 0-.324-.567 2.39 2.39 0 0 0-.459-.446c-.17-.126-.346-.19-.526-.19H22.2c-.126 0-.265.05-.42.15s-.297.216-.432.35a2.16 2.16 0 0 0-.338.432c-.1.153-.135.292-.135.42v1.836l.297.594zm16.93-6.4a1.07 1.07 0 0 1 .499.135 2.48 2.48 0 0 1 .486.338 1.61 1.61 0 0 1 .364.459 1.07 1.07 0 0 1 .135.5v4.185c0 .072.045.198.135.378s.162.288.216.324l1.134 1.134a3.66 3.66 0 0 1 .891 1.323c.036.036.063.1.08.162l.027.135v6.94a1.29 1.29 0 0 1-.284.837 2.39 2.39 0 0 1-.688.58c-.27.153-.562.26-.877.324a4.38 4.38 0 0 1-.851.095 4.38 4.38 0 0 1-.85-.095c-.315-.063-.607-.17-.877-.324a2.39 2.39 0 0 1-.689-.58 1.29 1.29 0 0 1-.283-.837V8.503c0-.18.045-.355.135-.527a1.89 1.89 0 0 1 .337-.459c.135-.135.288-.243.46-.324s.337-.122.5-.122zm4.86 14.283l-.297-.62v-9.91l.297-.62 3.186-3.16.594-.297 11.853-.108a2.04 2.04 0 0 1 .648.108 2.08 2.08 0 0 1 .581.297c.17.126.315.283.432.473s.175.39.175.607-.058.418-.175.607-.26.35-.432.486-.364.243-.58.324-.432.12-.648.12H46.97c-.108 0-.238.05-.392.15s-.297.22-.432.364-.252.297-.35.46-.148.297-.148.405v1.836l.297.594 1.728 1.836c.108.108.21.306.3.594s.15.504.15.648v3.97c0 .18.067.355.203.526a2.23 2.23 0 0 0 .499.459 2.92 2.92 0 0 0 .621.324 1.65 1.65 0 0 0 .567.121h6.02c.324 0 .603-.072.837-.216s.427-.333.58-.567.265-.486.337-.756a3.13 3.13 0 0 0 .108-.81c0-.558-.076-.98-.23-1.27s-.36-.504-.62-.648a2.33 2.33 0 0 0-.877-.27l-1-.15a5.85 5.85 0 0 1-1.013-.283 2.09 2.09 0 0 1-.877-.648c-.072-.072-.108-.153-.108-.243v-.297c0-.306.12-.616.364-.93s.535-.473.877-.473h4.806c.216 0 .423.076.62.23a2.45 2.45 0 0 1 .526.567 2.78 2.78 0 0 1 .351.716c.08.252.122.468.122.648v3.564c0 .18-.036.4-.108.662s-.17.454-.297.58l-3.16 3.16c-.126.126-.32.225-.58.297s-.48.108-.662.108h-8.667c-.162 0-.373-.036-.635-.108s-.454-.17-.58-.297l-3.186-3.16zm19.9-14.283a1.07 1.07 0 0 1 .499.135 2.48 2.48 0 0 1 .486.338 1.61 1.61 0 0 1 .365.459 1.07 1.07 0 0 1 .135.5v4.185c0 .072.045.198.135.378s.162.288.216.324l1.134 1.134a3.66 3.66 0 0 1 .891 1.323c.036.036.063.1.08.162l.027.135v6.94a1.29 1.29 0 0 1-.284.837 2.39 2.39 0 0 1-.689.58c-.27.153-.562.26-.877.324a4.38 4.38 0 0 1-.851.095 4.38 4.38 0 0 1-.85-.095c-.315-.063-.607-.17-.878-.324a2.39 2.39 0 0 1-.688-.58 1.29 1.29 0 0 1-.283-.837V8.503c0-.18.045-.355.135-.527a1.89 1.89 0 0 1 .337-.459c.135-.135.288-.243.46-.324s.337-.122.5-.122zm4.563 1.026c0-.306.12-.612.364-.918s.526-.46.85-.46l14.418-.08c.216 0 .432.03.648.095a2.01 2.01 0 0 1 .594.284 1.66 1.66 0 0 1 .445.459c.117.18.175.387.175.62 0 .216-.058.418-.175.608s-.265.35-.445.486-.378.243-.594.324-.432.122-.648.122h-3.996c-.108 0-.238.05-.392.148a2.1 2.1 0 0 0-.432.378c-.135.153-.252.306-.35.46s-.148.283-.148.392v1.836l.324.62 1.728 1.836a1.53 1.53 0 0 1 .297.594 2.42 2.42 0 0 1 .108.648v6.13c0 .378-.08.71-.243 1s-.373.522-.634.702-.558.315-.89.405-.66.135-.986.135c-.504 0-.94-.067-1.31-.203s-.715-.41-1.04-.823c-.054-.072-.126-.184-.216-.338s-.135-.247-.135-.284V11.42c0-.126-.045-.292-.135-.5s-.21-.405-.365-.594a3.1 3.1 0 0 0-.486-.486c-.17-.135-.337-.203-.5-.203H69.27c-.216 0-.432-.04-.648-.122s-.41-.19-.58-.324-.315-.297-.432-.486-.175-.39-.175-.608zm18.063 10.395l.297-.62.35-.364L87.2 16.4l.35-.364c.1-.108.19-.28.297-.513s.162-.405.162-.513v-4.185l.35-.62 3.16-3.16.62-.297 4.185-.108c.162 0 .378.036.648.108s.46.17.567.297l3.186 3.16a2.4 2.4 0 0 1 .135.243c.054.108.103.225.148.35l.12.364c.036.117.054.21.054.284v3.97l.35.62 1.728 1.836c.126.144.225.337.297.58a2.28 2.28 0 0 1 .108.634v3.7c0 .414-.14.805-.418 1.174s-.634.553-1.067.553c-.144 0-.297-.036-.46-.108a2.04 2.04 0 0 1-.459-.284 1.73 1.73 0 0 1-.365-.405c-.1-.153-.148-.3-.148-.446v-4.185c0-.144-.045-.315-.135-.513a3.04 3.04 0 0 0-.337-.567c-.135-.18-.292-.333-.472-.46s-.35-.19-.513-.19H92.33c-.108 0-.238.05-.39.148s-.306.216-.46.35a2.1 2.1 0 0 0-.378.432c-.1.153-.148.283-.148.392v4.104c0 .054-.018.135-.054.243s-.08.22-.135.337l-.162.324-.108.203c-.306.414-.652.688-1.04.823a3.96 3.96 0 0 1-1.309.203 3.96 3.96 0 0 1-1.309-.203c-.387-.135-.733-.41-1.04-.823a3.6 3.6 0 0 1-.175-.324c-.08-.162-.12-.26-.12-.297v-4.78zM98.16 11.96c0-.198-.027-.427-.08-.688a3.42 3.42 0 0 0-.243-.743c-.108-.234-.252-.432-.432-.594a.97.97 0 0 0-.675-.243h-4.4c-.108 0-.238.05-.39.15s-.297.216-.432.35-.252.28-.35.432-.148.292-.148.42v1.836c0 .198.063.382.19.554s.283.32.473.446.39.23.608.3a1.65 1.65 0 0 0 .567.121h3.483c.306 0 .576-.072.8-.216s.427-.333.58-.567a2.57 2.57 0 0 0 .337-.77 3.19 3.19 0 0 0 .108-.796zm6.4 9.396l-.297-.62V8.26c0-.324.153-.607.46-.85s.612-.364.918-.364c.216 0 .418.058.608.175s.35.26.486.432.243.364.324.58.12.432.12.648v3.996l.35.594 1.728 1.836c.108.108.212.306.31.594s.148.504.148.648v3.97c0 .162.072.333.216.513s.32.342.526.486.414.26.62.35.382.135.526.135h9.207c.144 0 .288.05.432.148s.28.22.405.364a1.74 1.74 0 0 1 .297.473 1.18 1.18 0 0 1 .108.446c0 .234-.058.44-.175.62a1.66 1.66 0 0 1-.445.459c-.18.126-.378.225-.594.297a2.04 2.04 0 0 1-.648.108H108.96c-.162 0-.373-.036-.635-.108s-.454-.17-.58-.297l-3.186-3.16z" fill="#fff" fill-rule="evenodd"/></svg>