<svg xmlns="http://www.w3.org/2000/svg" width="138" height="32" xmlns:v="https://vecta.io/nano"><path d="M29.692 18.192a.73.73 0 0 0 .504-.528c.08.272.256.448.528.528-.272.048-.448.224-.528.528-.08-.288-.248-.464-.504-.528zm-1.464 0a.74.74 0 0 0 .528-.552c.048.288.224.472.528.552-.304.048-.48.232-.528.552a.74.74 0 0 0-.528-.552zm-7.248 0c.288-.08.456-.272.504-.576a.75.75 0 0 0 .552.576c-.288.048-.472.24-.552.576-.048-.304-.216-.496-.504-.576zm-1.464 0a.66.66 0 0 0 .528-.576c.08.304.256.496.528.576-.272.048-.448.24-.528.576a.66.66 0 0 0-.528-.576zm10.68-7.8c.08.304.264.48.552.528-.288.08-.472.264-.552.552-.096-.288-.272-.472-.528-.552a.81.81 0 0 0 .324-.192c.104-.096.172-.208.204-.336zm-1.992.528c.128-.032.244-.1.348-.204s.172-.22.204-.348a.66.66 0 0 0 .552.552c-.32.08-.504.28-.552.6-.032-.128-.1-.252-.204-.372s-.216-.193-.34-.226l-.007-.002zm1.45 2.925c.124-.033.237-.1.338-.2s.17-.216.202-.34c.082.28.274.465.578.545a.7.7 0 0 0-.576.528c-.096-.304-.28-.48-.552-.528l.01-.003zm0 1.44c.124-.033.237-.096.338-.19s.17-.204.202-.33c.082.266.274.442.578.522-.304.048-.496.232-.576.552-.112-.32-.296-.504-.552-.552l.01-.003zm-7.248 7.248c.124-.033.237-.096.338-.19s.17-.204.202-.33c.082.266.274.442.578.522-.304.048-.496.232-.576.552-.112-.32-.296-.504-.552-.552l.01-.003zm7.248-2.904c.124-.033.237-.096.338-.19s.17-.204.202-.33c.082.266.274.442.578.522-.304.048-.496.232-.576.552-.112-.32-.296-.504-.552-.552l.01-.003zm0-7.248c.124-.033.237-.096.338-.19s.17-.204.202-.33c.082.266.274.442.578.522-.304.048-.496.232-.576.552-.112-.32-.296-.504-.552-.552l.01-.003zm-7.248-2.904c.124-.033.237-.1.338-.2s.17-.216.202-.34c.082.28.274.465.578.545a.66.66 0 0 0-.576.528c-.112-.304-.296-.48-.552-.528l.01-.003zm7.248 11.616c.124-.033.237-.1.338-.2s.17-.216.202-.34c.082.28.274.465.578.545a.66.66 0 0 0-.576.528c-.112-.304-.296-.48-.552-.528l.01-.003zm0-4.344c.124-.033.237-.1.338-.2s.17-.216.202-.34c.082.28.274.465.578.545a.66.66 0 0 0-.576.528c-.112-.304-.296-.48-.552-.528l.01-.003zm-1.465 5.784a.88.88 0 0 0 .351-.19c.1-.094.18-.21.214-.35.034.135.102.255.206.35a.79.79 0 0 0 .362.19c-.134.034-.258.098-.362.194s-.17.226-.202.396a.82.82 0 0 0-.218-.372c-.112-.112-.232-.184-.36-.216l.01-.002zm0-7.248a.88.88 0 0 0 .351-.19c.1-.094.18-.21.214-.35.034.135.102.255.206.35a.79.79 0 0 0 .362.19c-.134.034-.258.098-.362.194s-.17.226-.202.396a.82.82 0 0 0-.218-.372c-.112-.112-.232-.184-.36-.216l.01-.002zm0-1.44c.125-.033.242-.1.352-.202s.18-.222.214-.362a.78.78 0 0 0 .206.362c.102.102.223.17.362.202a.9.9 0 0 0-.362.182c-.102.086-.17.207-.202.362-.034-.118-.106-.234-.218-.338a.82.82 0 0 0-.36-.204l.008-.002zm-6.702-3.492c.033.14.1.26.202.362s.223.17.364.202a.77.77 0 0 0-.568.602c-.032-.128-.096-.252-.192-.372s-.204-.193-.33-.226a.7.7 0 0 0 .329-.206.79.79 0 0 0 .192-.372l.002.01zm6.702 10.74c.125-.033.242-.1.352-.202s.18-.222.214-.362a.78.78 0 0 0 .206.362c.102.102.222.17.362.202-.134.034-.258.098-.362.194s-.17.21-.202.35c-.034-.12-.106-.235-.218-.34a.82.82 0 0 0-.36-.204l.008-.002zm0-4.344c.125-.033.242-.1.352-.202s.18-.222.214-.362a.78.78 0 0 0 .206.362c.102.102.222.17.362.202-.134.034-.258.098-.362.194s-.17.22-.202.374c-.034-.118-.106-.238-.218-.35s-.232-.184-.36-.216l.008-.002zm0-7.272c.125-.033.242-.1.352-.202s.18-.222.214-.362a.78.78 0 0 0 .206.362c.102.102.222.17.362.202-.134.034-.258.098-.362.194s-.17.21-.202.35c-.034-.12-.106-.235-.218-.34a.82.82 0 0 0-.36-.204l.008-.002zm-8.142.876c.033.14.1.26.202.362s.216.17.34.202c-.28.082-.465.282-.545.602-.032-.128-.1-.252-.204-.372s-.216-.193-.34-.226a.78.78 0 0 0 .341-.206c.104-.104.172-.228.204-.372l.002.01zm8.142 9.276c.125-.033.242-.1.352-.202a.71.71 0 0 0 .214-.34c.034.12.102.237.206.34s.222.17.362.202c-.134.034-.258.098-.362.194s-.17.22-.202.374c-.034-.118-.106-.238-.218-.35s-.232-.184-.36-.216l.008-.002zm0-7.248c.125-.033.242-.1.352-.202a.71.71 0 0 0 .214-.34c.034.12.102.237.206.34s.222.17.362.202c-.134.034-.258.098-.362.194s-.17.226-.202.396a.82.82 0 0 0-.218-.372c-.112-.112-.232-.184-.36-.216l.008-.002zM23.82 22.534c.125-.033.242-.1.352-.202s.18-.223.214-.364c.082.296.274.488.578.568-.304.048-.496.248-.576.6-.032-.144-.104-.272-.216-.384s-.232-.184-.36-.216l.008-.002zm-2.88-7.248c.125-.033.238-.1.34-.202s.17-.223.202-.364a.77.77 0 0 0 .602.568c-.32.048-.52.248-.6.6-.032-.144-.1-.272-.204-.384s-.22-.184-.348-.216l.008-.002zm0 7.248c.125-.033.238-.1.34-.202s.17-.223.202-.364a.77.77 0 0 0 .602.568c-.32.048-.52.248-.6.6-.032-.144-.1-.272-.204-.384s-.22-.184-.348-.216l.008-.002zm4.344 0c.125-.033.238-.1.34-.202s.17-.223.202-.364a.77.77 0 0 0 .602.568c-.32.048-.52.248-.6.6-.032-.144-.1-.272-.204-.384s-.22-.184-.348-.216l.008-.002zm-4.344-8.688a.71.71 0 0 0 .34-.214c.102-.1.17-.235.202-.375.082.31.282.51.602.59-.144.032-.272.092-.384.18s-.18.214-.214.384c-.034-.133-.102-.257-.206-.36s-.22-.172-.348-.204l.007-.002zm0 7.248a.71.71 0 0 0 .34-.214c.102-.1.17-.235.202-.375.082.31.282.51.602.59-.32.048-.52.24-.6.576-.032-.144-.1-.268-.204-.372s-.22-.172-.348-.204l.007-.002zm2.88-11.616a.78.78 0 0 0 .352-.214c.1-.1.18-.235.214-.375a.77.77 0 0 0 .578.591c-.304.048-.496.24-.576.576-.032-.128-.104-.248-.216-.36s-.232-.184-.36-.216l.008-.002zm-4.344 13.056c.125-.033.242-.1.352-.202s.18-.223.214-.364c.082.296.274.488.578.568-.304.064-.496.264-.576.6-.032-.144-.104-.272-.216-.384s-.232-.184-.36-.216l.008-.002zm7.248 0c.125-.033.242-.1.352-.202s.18-.223.214-.364c.082.296.274.488.578.568-.304.064-.496.264-.576.6-.032-.144-.104-.272-.216-.384s-.232-.184-.36-.216l.008-.002zm-7.248-7.248c.125-.033.242-.1.352-.202s.18-.223.214-.364c.082.296.274.488.578.568-.304.064-.496.264-.576.6-.032-.144-.104-.272-.216-.384s-.232-.184-.36-.216l.008-.002zm5.807-5.808a.71.71 0 0 0 .34-.214c.102-.1.17-.235.202-.375.082.31.282.51.602.59-.32.048-.52.24-.6.576a.82.82 0 0 0-.204-.36c-.104-.112-.22-.184-.348-.216l.008-.002zm-4.344 0a.71.71 0 0 0 .34-.214c.102-.1.17-.235.202-.375.082.31.282.51.602.59-.32.048-.52.24-.6.576a.82.82 0 0 0-.204-.36c-.104-.112-.22-.184-.348-.216l.008-.002zm0 7.272a.71.71 0 0 0 .34-.214c.102-.1.17-.235.202-.375.082.31.282.51.602.59-.32.048-.52.24-.6.576a.82.82 0 0 0-.204-.36c-.104-.112-.22-.184-.348-.216l.008-.002zm-1.464-2.904a.78.78 0 0 0 .352-.214c.1-.1.18-.235.214-.375a.77.77 0 0 0 .578.591c-.128.032-.248.092-.36.18s-.18.214-.214.384c-.034-.132-.106-.256-.218-.36a.82.82 0 0 0-.36-.204l.008-.002zm1.464-1.464a.71.71 0 0 0 .34-.214c.102-.1.17-.227.202-.352a.77.77 0 0 0 .602.568c-.32.048-.52.248-.6.6-.032-.144-.1-.272-.204-.384s-.22-.184-.348-.216l.008-.002zm0 7.248a.71.71 0 0 0 .34-.214c.102-.1.17-.227.202-.352a.77.77 0 0 0 .602.568c-.32.048-.52.248-.6.6-.032-.144-.1-.272-.204-.384s-.22-.184-.348-.216l.008-.002zm-1.464 1.464a.78.78 0 0 0 .352-.214c.1-.1.18-.235.214-.375a.77.77 0 0 0 .578.591c-.304.064-.496.256-.576.576-.032-.144-.104-.268-.216-.372a.82.82 0 0 0-.36-.204l.008-.002zm0-1.464a.78.78 0 0 0 .352-.214.78.78 0 0 0 .214-.353c.082.297.274.49.578.57-.304.064-.496.264-.576.6-.032-.144-.104-.272-.216-.384s-.232-.184-.36-.216l.008-.002zm0-7.248a.78.78 0 0 0 .352-.214.78.78 0 0 0 .214-.353c.082.297.274.49.578.57-.304.064-.496.264-.576.6-.032-.144-.104-.272-.216-.384s-.232-.184-.36-.216l.008-.002zm7.248-2.904a.78.78 0 0 0 .352-.214c.1-.1.18-.235.214-.375a.77.77 0 0 0 .578.591c-.304.064-.496.256-.576.576-.032-.128-.104-.248-.216-.36s-.232-.184-.36-.216l.008-.002zm-7.248 0a.78.78 0 0 0 .352-.214c.1-.1.18-.235.214-.375a.77.77 0 0 0 .578.591c-.304.064-.496.256-.576.576-.032-.128-.104-.248-.216-.36s-.232-.184-.36-.216l.008-.002zm0 7.272a.78.78 0 0 0 .352-.214c.1-.1.18-.235.214-.375a.77.77 0 0 0 .578.591c-.304.064-.496.256-.576.576-.032-.128-.104-.248-.216-.36s-.232-.184-.36-.216l.008-.002zm8.392 4.346c-.304.064-.496.256-.576.576-.032-.176-.116-.32-.252-.432s-.284-.168-.444-.168c-.176 0-.34.056-.492.168a.67.67 0 0 0-.276.432.73.73 0 0 0-.24-.432.67.67 0 0 0-.456-.168c-.176 0-.336.056-.48.168s-.232.256-.264.432c-.032-.176-.116-.32-.252-.432s-.292-.168-.468-.168a.79.79 0 0 0-.468.144.61.61 0 0 0-.251.402c-.113-.298-.297-.474-.553-.522.144-.032.276-.12.396-.264a.73.73 0 0 0 .18-.48c0-.176-.06-.332-.18-.468s-.246-.216-.386-.25c.134-.034.266-.118.386-.254s.18-.292.18-.468-.056-.332-.168-.468-.23-.218-.356-.25c.124-.05.244-.137.356-.265a.67.67 0 0 0 .168-.456c0-.176-.06-.332-.18-.468s-.246-.216-.386-.25a.76.76 0 0 0 .386-.266c.12-.144.18-.296.18-.456a.73.73 0 0 0-.18-.48c-.117-.14-.246-.228-.386-.262a.78.78 0 0 0 .386-.254c.12-.136.18-.292.18-.468s-.06-.332-.18-.468-.246-.216-.386-.25a.76.76 0 0 0 .386-.266.73.73 0 0 0 .18-.48c0-.176-.06-.332-.18-.468s-.246-.216-.386-.25a.76.76 0 0 0 .386-.266c.12-.144.18-.296.18-.456a.73.73 0 0 0-.18-.48.73.73 0 0 0-.387-.262.84.84 0 0 0 .339-.194c.102-.094.17-.203.202-.327.034.15.118.28.254.375a.79.79 0 0 0 .468.144.75.75 0 0 0 .468-.156c.136-.104.22-.244.252-.42a.64.64 0 0 0 .264.42.8.8 0 0 0 .48.156.7.7 0 0 0 .456-.156c.125-.1.204-.237.237-.406.035.162.127.302.28.406s.316.156.492.156c.16 0 .308-.052.444-.156s.22-.244.252-.42c.032.144.1.268.204.372s.214.17.34.202a.65.65 0 0 0-.387.266.8.8 0 0 0-.156.48.73.73 0 0 0 .168.456.68.68 0 0 0 .397.262.72.72 0 0 0-.397.254c-.112.136-.168.292-.168.468s.056.336.168.48a.68.68 0 0 0 .397.262c-.15.034-.285.114-.397.242s-.168.288-.168.48c0 .176.056.332.168.468s.24.216.396.25c-.148.035-.284.12-.396.254a.75.75 0 0 0-.168.492.73.73 0 0 0 .168.456.68.68 0 0 0 .397.262.72.72 0 0 0-.397.254c-.112.136-.168.292-.168.468a.7.7 0 0 0 .156.456c.102.126.224.213.365.262-.137.035-.26.12-.365.254a.75.75 0 0 0-.156.468c0 .176.056.332.168.468s.24.216.396.25c-.148.035-.284.12-.396.254s-.168.292-.168.468.056.336.168.48a.68.68 0 0 0 .397.262l.01.002zm3.216-10.176c.144-.032.276-.116.396-.252s.18-.292.18-.468c0-.192-.076-.364-.228-.516s-.324-.228-.516-.228a.79.79 0 0 0-.468.144.61.61 0 0 0-.252.408c-.112-.304-.296-.48-.552-.528.144-.032.276-.12.396-.264s.18-.296.18-.456c0-.208-.076-.388-.228-.54s-.316-.228-.492-.228-.336.056-.48.168a.7.7 0 0 0-.264.456c-.032-.176-.116-.324-.252-.444s-.292-.18-.468-.18-.336.056-.48.168a.7.7 0 0 0-.264.456c-.032-.176-.116-.324-.252-.444s-.284-.18-.444-.18c-.176 0-.34.056-.492.168a.67.67 0 0 0-.276.432.86.86 0 0 0-.264-.432.64.64 0 0 0-.432-.168c-.176 0-.336.056-.48.168a.7.7 0 0 0-.264.456c-.032-.176-.116-.324-.252-.444s-.292-.18-.468-.18a.75.75 0 0 0-.468.156c-.136.104-.22.244-.252.42-.048-.176-.14-.316-.276-.42s-.276-.156-.42-.156c-.176 0-.34.056-.492.168s-.244.264-.276.456c-.032-.176-.112-.324-.24-.444s-.28-.18-.456-.18-.336.056-.48.168-.232.256-.264.432c-.048-.176-.14-.32-.276-.432s-.284-.168-.444-.168a.73.73 0 0 0-.516.216c-.152.144-.228.328-.228.552a.73.73 0 0 0 .168.456c.112.144.256.232.432.264a.73.73 0 0 0-.432.24c-.112.128-.168.288-.168.48a.75.75 0 0 0 .156.468c.104.136.244.22.42.252a.64.64 0 0 0-.42.264.8.8 0 0 0-.156.48.73.73 0 0 0 .168.456c.112.144.256.232.432.264-.176.032-.32.116-.432.252s-.168.292-.168.468a.8.8 0 0 0 .156.48.64.64 0 0 0 .42.264c-.176.032-.316.116-.42.252a.75.75 0 0 0-.156.468c0 .176.056.332.168.468s.256.22.432.252c-.176.032-.32.116-.432.252a.75.75 0 0 0-.168.492.73.73 0 0 0 .168.456c.112.144.256.232.432.264-.176.032-.32.116-.432.252s-.168.292-.168.468a.7.7 0 0 0 .156.456.79.79 0 0 0 .387.261.67.67 0 0 0-.387.255.75.75 0 0 0-.156.468c0 .176.056.332.168.468s.256.22.432.252c-.176.032-.32.116-.432.252s-.168.292-.168.468a.8.8 0 0 0 .156.48.64.64 0 0 0 .42.264c-.176.032-.316.116-.42.252a.75.75 0 0 0-.156.468c0 .176.056.332.168.468s.256.22.432.252c-.176.032-.32.116-.432.252a.75.75 0 0 0-.168.492c0 .176.076.34.228.492s.324.228.516.228c.176 0 .332-.056.468-.168s.216-.24.25-.396c.035.148.123.284.266.396s.304.168.48.168c.16 0 .308-.052.444-.156s.216-.23.25-.385a.64.64 0 0 0 .278.385c.152.104.316.156.492.156.144 0 .284-.052.42-.156s.225-.224.274-.365c.034.137.118.26.254.365a.75.75 0 0 0 .468.156c.176 0 .332-.056.468-.168s.216-.24.25-.396c.035.148.123.284.266.396s.304.168.48.168a.67.67 0 0 0 .456-.168c.125-.11.204-.24.237-.396.035.148.127.284.28.396s.316.168.492.168c.16 0 .308-.056.444-.168s.216-.24.25-.396c.035.148.123.284.266.396s.304.168.48.168.332-.056.468-.168.216-.24.25-.396c.035.148.123.284.266.396s.304.168.48.168.34-.076.492-.228.228-.316.228-.492a.73.73 0 0 0-.18-.48.73.73 0 0 0-.387-.262.84.84 0 0 0 .339-.194c.102-.094.17-.203.202-.327.034.15.118.28.254.375a.79.79 0 0 0 .468.144.73.73 0 0 0 .516-.216c.152-.144.228-.312.228-.504 0-.176-.06-.328-.18-.456s-.247-.213-.388-.26a.76.76 0 0 0 .388-.267.73.73 0 0 0 .18-.48c0-.176-.06-.332-.18-.468a.75.75 0 0 0-.408-.249c.148-.035.288-.12.408-.255s.18-.292.18-.468-.056-.332-.168-.468-.236-.218-.378-.25a.91.91 0 0 0 .378-.265.67.67 0 0 0 .168-.456c0-.176-.06-.332-.18-.468a.75.75 0 0 0-.408-.249c.148-.035.288-.123.408-.267s.18-.296.18-.456a.73.73 0 0 0-.18-.48c-.12-.144-.26-.232-.42-.264.16-.032.3-.116.42-.252s.18-.292.18-.468-.06-.328-.18-.456-.247-.213-.388-.26a.76.76 0 0 0 .388-.267.73.73 0 0 0 .18-.48c0-.176-.06-.332-.18-.468a.75.75 0 0 0-.408-.249c.148-.035.288-.123.408-.267s.18-.296.18-.456c0-.176-.06-.332-.18-.468s-.247-.225-.388-.273l-.008-.003zm1.032-.504c.256 0 .484.1.684.3s.3.428.3.684c0 .32-.112.568-.336.744a.91.91 0 0 1 .336.72.74.74 0 0 1-.108.36c-.072.128-.148.24-.228.336.224.192.336.44.336.744a.91.91 0 0 1-.36.744 1.62 1.62 0 0 1 .24.324.78.78 0 0 1 .12.396.91.91 0 0 1-.336.72c.224.224.336.472.336.744a.74.74 0 0 1-.108.36c-.072.128-.148.24-.228.336.224.192.336.44.336.744 0 .256-.104.488-.312.696.208.192.312.44.312.744a.91.91 0 0 1-.336.72.91.91 0 0 1 .336.72.91.91 0 0 1-.36.744 1.62 1.62 0 0 1 .24.324.78.78 0 0 1 .12.396c0 .256-.1.48-.3.672a.96.96 0 0 1-.684.288c-.256 0-.496-.096-.72-.288l-.048.048c.208.208.312.456.312.744 0 .24-.1.46-.3.66s-.42.3-.66.3a.9.9 0 0 1-.408-.096c-.128-.064-.24-.136-.336-.216a.94.94 0 0 1-.72.312c-.128 0-.26-.036-.396-.108s-.252-.148-.348-.228c-.192.224-.424.336-.696.336a.96.96 0 0 1-.768-.336.84.84 0 0 1-.696.336c-.304 0-.552-.104-.744-.312a.94.94 0 0 1-.72.312c-.128 0-.256-.036-.384-.108s-.24-.148-.336-.228c-.192.224-.424.336-.696.336-.304 0-.56-.104-.768-.312-.096.08-.204.152-.324.216a.78.78 0 0 1-.372.096c-.304 0-.552-.104-.744-.312a.94.94 0 0 1-.72.312c-.256 0-.484-.1-.684-.3s-.3-.42-.3-.66c0-.128.008-.216.024-.264-.032 0-.072.004-.12.012s-.088.012-.12.012c-.256 0-.484-.1-.684-.3s-.3-.42-.3-.66a.9.9 0 0 1 .096-.408 1.28 1.28 0 0 1 .24-.336 1.28 1.28 0 0 1-.24-.336.85.85 0 0 1-.096-.384c0-.144.032-.284.096-.42a1.14 1.14 0 0 1 .216-.324c-.08-.096-.152-.208-.216-.336a.85.85 0 0 1-.096-.384.91.91 0 0 1 .336-.72c-.224-.224-.336-.464-.336-.72 0-.32.104-.568.312-.744-.208-.208-.312-.44-.312-.696a.91.91 0 0 1 .336-.72.91.91 0 0 1-.336-.72.9.9 0 0 1 .096-.408 1.28 1.28 0 0 1 .24-.336c-.224-.224-.336-.464-.336-.72 0-.144.032-.284.096-.42a1.14 1.14 0 0 1 .216-.324c-.08-.096-.152-.208-.216-.336a.85.85 0 0 1-.096-.384.91.91 0 0 1 .336-.72.91.91 0 0 1-.336-.72c0-.304.104-.552.312-.744-.208-.208-.312-.448-.312-.72 0-.144.036-.284.108-.42a1.35 1.35 0 0 1 .228-.324c-.224-.192-.336-.424-.336-.696 0-.304.1-.548.3-.732s.428-.276.684-.276c.272 0 .512.104.72.312.096-.08.212-.152.348-.216s.268-.096.396-.096c.24 0 .472.112.696.336a.96.96 0 0 1 .768-.336c.256 0 .48.104.672.312.208-.208.456-.312.744-.312a.94.94 0 0 1 .72.312c.208-.208.456-.312.744-.312s.52.104.696.312c.192-.208.448-.312.768-.312.272 0 .504.104.696.312.208-.208.456-.312.744-.312a.78.78 0 0 1 .372.096c.12.064.228.136.324.216a1.53 1.53 0 0 1 .36-.216c.144-.064.28-.096.408-.096.24 0 .46.1.66.3s.3.436.3.708c0 .032-.004.072-.012.12s-.012.088-.012.12a.84.84 0 0 1 .264-.048c.32 0 .584.16.792.48.272.224.408.48.408.768 0 .048-.004.092-.012.132s-.012.076-.012.108c.032 0 .068-.004.108-.012s.084-.012.132-.012zm-5.52 10.416c.272 0 .504.104.696.312l.072-.072c-.08-.096-.152-.208-.216-.336a.85.85 0 0 1-.096-.384c0-.336.104-.584.312-.744-.208-.192-.312-.424-.312-.696 0-.32.104-.56.312-.72-.208-.176-.312-.416-.312-.72 0-.336.104-.584.312-.744-.08-.096-.152-.204-.216-.324a.78.78 0 0 1-.096-.372c0-.144.032-.284.096-.42a1.14 1.14 0 0 1 .216-.324.94.94 0 0 1-.312-.72c0-.336.104-.584.312-.744-.08-.096-.152-.208-.216-.336a.85.85 0 0 1-.096-.384c0-.336.104-.584.312-.744-.064-.064-.104-.112-.12-.144-.096-.064-.16-.12-.192-.168a1.14 1.14 0 0 1-.324.216c-.136.064-.268.096-.396.096a.9.9 0 0 1-.408-.096c-.128-.064-.24-.136-.336-.216-.096.08-.208.152-.336.216a.85.85 0 0 1-.384.096c-.256 0-.496-.096-.72-.288-.016.016-.032.024-.048.024l-.024.024a1.28 1.28 0 0 1 .24.336.9.9 0 0 1 .096.408c0 .304-.112.544-.336.72a1.36 1.36 0 0 1 .24.324.83.83 0 0 1 .096.396c0 .128-.036.256-.108.384s-.148.24-.228.336c.224.192.336.44.336.744 0 .256-.112.496-.336.72a1.28 1.28 0 0 1 .24.336.9.9 0 0 1 .096.408c0 .304-.112.544-.336.72.224.224.336.464.336.72 0 .272-.104.504-.312.696.208.208.312.456.312.744 0 .256-.112.496-.336.72.032.032.056.064.072.096s.04.064.072.096c.048.016.104.056.168.12.096-.08.212-.152.348-.216s.268-.096.396-.096c.288 0 .52.104.696.312.192-.208.448-.312.768-.312zm12.312-2.64c.288-.08.456-.272.504-.576a.75.75 0 0 0 .552.576c-.288.048-.472.24-.552.576-.048-.304-.216-.496-.504-.576zm-1.464 0a.66.66 0 0 0 .528-.576c.08.304.256.496.528.576-.272.048-.448.24-.528.576a.66.66 0 0 0-.528-.576zm.53-7.838a.79.79 0 0 0 .19.362c.094.102.212.17.352.202-.28.082-.464.282-.544.602-.032-.128-.1-.252-.204-.372s-.216-.193-.34-.226a.78.78 0 0 0 .341-.206c.104-.104.172-.228.204-.372l.002.01zm1.44-.001c.033.14.1.26.202.362s.223.17.364.202a.77.77 0 0 0-.568.602c-.032-.128-.096-.252-.192-.372s-.204-.193-.33-.226a.7.7 0 0 0 .329-.206.79.79 0 0 0 .192-.372l.002.01zm-2 4.932c.125-.033.242-.1.352-.202s.18-.223.214-.364c.082.296.274.488.578.568-.304.048-.496.248-.576.6-.032-.144-.104-.272-.216-.384s-.232-.184-.36-.216l.008-.002zm0 7.248c.125-.033.242-.1.352-.202s.18-.223.214-.364c.082.296.274.488.578.568-.304.048-.496.248-.576.6-.032-.144-.104-.272-.216-.384s-.232-.184-.36-.216l.008-.002zm0-8.688a.78.78 0 0 0 .352-.214c.1-.1.18-.235.214-.375a.77.77 0 0 0 .578.591c-.32.048-.512.24-.576.576-.032-.144-.104-.268-.216-.372a.82.82 0 0 0-.36-.204l.008-.002zm1.464 1.44c.125-.033.238-.1.34-.202s.17-.223.202-.364a.77.77 0 0 0 .602.568c-.32.048-.52.248-.6.6-.032-.144-.1-.272-.204-.384s-.22-.184-.348-.216l.008-.002zm0 7.248c.125-.033.238-.1.34-.202s.17-.223.202-.364a.77.77 0 0 0 .602.568c-.32.048-.52.248-.6.6-.032-.144-.1-.272-.204-.384s-.22-.184-.348-.216l.008-.002zm0-8.688a.71.71 0 0 0 .34-.214c.102-.1.17-.235.202-.375.082.31.282.51.602.59-.144.032-.272.092-.384.18s-.18.214-.214.384c-.034-.133-.102-.257-.206-.36s-.22-.172-.348-.204l.007-.002zm-1.464 7.248a.78.78 0 0 0 .352-.214c.1-.1.18-.235.214-.375a.77.77 0 0 0 .578.591c-.304.048-.496.24-.576.576-.032-.144-.104-.268-.216-.372a.82.82 0 0 0-.36-.204l.008-.002zm1.464 0a.71.71 0 0 0 .34-.214c.102-.1.17-.235.202-.375.082.31.282.51.602.59-.32.048-.52.24-.6.576-.032-.144-.1-.268-.204-.372s-.22-.172-.348-.204l.007-.002zm-1.464-4.344a.78.78 0 0 0 .352-.214c.1-.1.18-.235.214-.375a.77.77 0 0 0 .578.591c-.304.048-.496.24-.576.576-.032-.128-.104-.248-.216-.36s-.232-.184-.36-.216l.008-.002zm0-7.272a.78.78 0 0 0 .352-.214c.1-.1.18-.235.214-.375a.77.77 0 0 0 .578.591c-.304.048-.496.24-.576.576-.032-.128-.104-.248-.216-.36s-.232-.184-.36-.216l.008-.002zm1.464 7.272a.71.71 0 0 0 .34-.214c.102-.1.17-.235.202-.375.082.31.282.51.602.59-.32.048-.52.24-.6.576a.82.82 0 0 0-.204-.36c-.104-.112-.22-.184-.348-.216l.008-.002zm0-7.272a.71.71 0 0 0 .34-.214c.102-.1.17-.235.202-.375.082.31.282.51.602.59-.32.048-.52.24-.6.576a.82.82 0 0 0-.204-.36c-.104-.112-.22-.184-.348-.216l.008-.002zm-1.464 2.904a.78.78 0 0 0 .352-.214.78.78 0 0 0 .214-.353c.082.297.274.49.578.57-.304.048-.496.248-.576.6-.032-.144-.104-.272-.216-.384s-.232-.184-.36-.216l.008-.002zm0 7.248a.78.78 0 0 0 .352-.214.78.78 0 0 0 .214-.353c.082.297.274.49.578.57-.304.048-.496.248-.576.6-.032-.144-.104-.272-.216-.384s-.232-.184-.36-.216l.008-.002zm1.464-7.248a.71.71 0 0 0 .34-.214c.102-.1.17-.227.202-.352a.77.77 0 0 0 .602.568c-.32.048-.52.248-.6.6-.032-.144-.1-.272-.204-.384s-.22-.184-.348-.216l.008-.002zm0 7.248a.71.71 0 0 0 .34-.214c.102-.1.17-.227.202-.352a.77.77 0 0 0 .602.568c-.32.048-.52.248-.6.6-.032-.144-.1-.272-.204-.384s-.22-.184-.348-.216l.008-.002zM40.3 9.48c.16-.032.3-.12.42-.264s.18-.296.18-.456c0-.208-.076-.388-.228-.54s-.316-.228-.492-.228-.34.056-.492.168a.67.67 0 0 0-.276.432.86.86 0 0 0-.264-.432.64.64 0 0 0-.432-.168c-.176 0-.336.056-.48.168a.7.7 0 0 0-.264.456c-.032-.176-.116-.324-.252-.444s-.292-.18-.468-.18a.73.73 0 0 0-.516.216c-.152.144-.228.328-.228.552a.73.73 0 0 0 .168.456c.112.144.256.232.432.264a.73.73 0 0 0-.432.24c-.112.128-.168.288-.168.48a.75.75 0 0 0 .156.468c.104.136.244.22.42.252a.64.64 0 0 0-.42.264.8.8 0 0 0-.156.48.73.73 0 0 0 .168.456c.112.144.256.232.432.264-.176.032-.32.116-.432.252s-.168.292-.168.468a.8.8 0 0 0 .156.48.64.64 0 0 0 .42.264c-.176.032-.316.116-.42.252a.75.75 0 0 0-.156.468c0 .176.056.332.168.468s.256.22.432.252c-.176.032-.32.116-.432.252a.75.75 0 0 0-.168.492.73.73 0 0 0 .168.456c.112.144.256.232.432.264-.176.032-.32.116-.432.252s-.168.292-.168.468a.7.7 0 0 0 .156.456.79.79 0 0 0 .387.261.67.67 0 0 0-.387.255.75.75 0 0 0-.156.468c0 .176.056.332.168.468s.256.22.432.252c-.176.032-.32.116-.432.252s-.168.292-.168.468a.8.8 0 0 0 .156.48.64.64 0 0 0 .42.264c-.176.032-.316.116-.42.252a.75.75 0 0 0-.156.468c0 .176.056.332.168.468s.256.22.432.252c-.176.032-.32.116-.432.252a.75.75 0 0 0-.168.492c0 .176.076.34.228.492s.324.228.516.228c.176 0 .332-.056.468-.168s.216-.24.25-.396c.035.148.123.284.266.396s.304.168.48.168a.67.67 0 0 0 .456-.168c.125-.11.204-.24.237-.396.035.148.127.284.28.396s.316.168.492.168.34-.076.492-.228.228-.316.228-.492a.73.73 0 0 0-.18-.48c-.12-.144-.26-.232-.42-.264.16-.032.3-.116.42-.252s.18-.292.18-.468-.06-.328-.18-.456-.247-.213-.388-.26a.76.76 0 0 0 .388-.267.73.73 0 0 0 .18-.48c0-.176-.06-.332-.18-.468a.75.75 0 0 0-.408-.249c.148-.035.288-.12.408-.255s.18-.292.18-.468-.056-.332-.168-.468-.236-.218-.378-.25a.91.91 0 0 0 .378-.265.67.67 0 0 0 .168-.456c0-.176-.06-.332-.18-.468a.75.75 0 0 0-.408-.249c.148-.035.288-.123.408-.267s.18-.296.18-.456a.73.73 0 0 0-.18-.48c-.12-.144-.26-.232-.42-.264.16-.032.3-.116.42-.252s.18-.292.18-.468-.06-.328-.18-.456-.247-.213-.388-.26a.76.76 0 0 0 .388-.267.73.73 0 0 0 .18-.48c0-.176-.06-.332-.18-.468a.75.75 0 0 0-.408-.249c.148-.035.288-.123.408-.267s.18-.296.18-.456c0-.176-.06-.332-.18-.468s-.247-.225-.388-.273c.136-.035.268-.12.388-.255s.18-.292.18-.468-.06-.332-.18-.468a.75.75 0 0 0-.408-.249L40.3 9.48zm1.08-.528c.24 0 .46.1.66.3s.3.436.3.708a.74.74 0 0 1-.108.36c-.072.128-.148.24-.228.336.224.176.336.424.336.744s-.112.568-.336.744a.91.91 0 0 1 .336.72.74.74 0 0 1-.108.36c-.072.128-.148.24-.228.336.224.192.336.44.336.744a.91.91 0 0 1-.36.744 1.62 1.62 0 0 1 .24.324.78.78 0 0 1 .12.396.91.91 0 0 1-.336.72 1.28 1.28 0 0 1 .24.336.9.9 0 0 1 .096.408.74.74 0 0 1-.108.36c-.072.128-.148.24-.228.336.224.192.336.44.336.744 0 .256-.104.488-.312.696.208.192.312.44.312.744a.91.91 0 0 1-.336.72.91.91 0 0 1 .336.72.91.91 0 0 1-.36.744 1.62 1.62 0 0 1 .24.324.78.78 0 0 1 .12.396.91.91 0 0 1-.336.72c.224.224.336.472.336.744 0 .24-.1.46-.3.66s-.42.3-.66.3a.96.96 0 0 1-.768-.336.84.84 0 0 1-.696.336c-.304 0-.552-.104-.744-.312a.94.94 0 0 1-.72.312c-.256 0-.484-.1-.684-.3s-.3-.42-.3-.66c0-.128.008-.216.024-.264-.032 0-.072.004-.12.012s-.088.012-.12.012c-.256 0-.484-.1-.684-.3s-.3-.42-.3-.66a.9.9 0 0 1 .096-.408 1.28 1.28 0 0 1 .24-.336c-.224-.224-.336-.464-.336-.72 0-.144.032-.284.096-.42a1.14 1.14 0 0 1 .216-.324c-.08-.096-.152-.208-.216-.336a.85.85 0 0 1-.096-.384.91.91 0 0 1 .336-.72c-.224-.224-.336-.464-.336-.72 0-.32.104-.568.312-.744-.208-.208-.312-.44-.312-.696a.91.91 0 0 1 .336-.72.91.91 0 0 1-.336-.72.9.9 0 0 1 .096-.408 1.28 1.28 0 0 1 .24-.336c-.224-.224-.336-.464-.336-.72 0-.144.032-.284.096-.42a1.14 1.14 0 0 1 .216-.324c-.08-.096-.152-.208-.216-.336a.85.85 0 0 1-.096-.384.91.91 0 0 1 .336-.72.91.91 0 0 1-.336-.72c0-.304.104-.552.312-.744-.208-.208-.312-.448-.312-.72 0-.144.036-.284.108-.42a1.35 1.35 0 0 1 .228-.324c-.224-.192-.336-.424-.336-.696 0-.304.1-.548.3-.732s.428-.276.684-.276a.94.94 0 0 1 .72.312c.208-.208.456-.312.744-.312s.52.104.696.312c.192-.208.448-.312.768-.312.24 0 .46.1.66.3s.3.436.3.708c0 .048-.016.12-.048.216a1.28 1.28 0 0 1 .288-.024zm15.48 9.24a.73.73 0 0 0 .504-.528c.08.272.256.448.528.528-.272.048-.448.224-.528.528-.08-.288-.248-.464-.504-.528zm-1.464 0a.74.74 0 0 0 .528-.552c.048.288.224.472.528.552-.304.048-.48.24-.528.576a.66.66 0 0 0-.528-.576zm-7.248 0c.288-.08.456-.272.504-.576a.75.75 0 0 0 .552.576c-.288.048-.472.24-.552.576-.048-.304-.216-.496-.504-.576zm-1.464 0a.66.66 0 0 0 .528-.576c.08.304.256.496.528.576-.272.048-.448.24-.528.576a.66.66 0 0 0-.528-.576zm10.68-7.8c.08.304.264.48.552.528-.288.08-.472.264-.552.552-.096-.288-.272-.472-.528-.552a.81.81 0 0 0 .324-.192c.104-.096.172-.208.204-.336zm-1.992.528c.128-.032.244-.1.348-.204s.172-.22.204-.348a.66.66 0 0 0 .552.552.79.79 0 0 0-.348.192c-.102.094-.17.22-.202.374-.034-.118-.102-.238-.206-.35a.71.71 0 0 0-.34-.214l-.007-.002zm-5.798 11.613c.124-.033.237-.096.338-.19s.17-.204.202-.33c.082.266.274.442.578.522-.304.048-.496.232-.576.552-.112-.32-.296-.504-.552-.552l.01-.003zm7.248-2.904c.124-.033.237-.096.338-.19s.17-.204.202-.33c.082.266.274.442.578.522-.304.048-.496.232-.576.552-.112-.32-.296-.504-.552-.552l.01-.003zM49.574 9.477c.124-.033.237-.1.338-.2s.17-.216.202-.34c.082.28.274.465.578.545a.66.66 0 0 0-.576.528c-.112-.304-.296-.48-.552-.528l.01-.003zm7.248 7.272c.124-.033.237-.1.338-.2s.17-.216.202-.34c.082.28.274.465.578.545a.66.66 0 0 0-.576.528c-.112-.304-.296-.48-.552-.528l.01-.003zm0 4.344c.124-.033.237-.1.338-.2s.17-.216.202-.34c.082.28.274.465.578.545a.66.66 0 0 0-.576.528c-.112-.304-.296-.48-.552-.528l.01-.003zm-1.465 1.44a.88.88 0 0 0 .351-.19c.1-.094.18-.21.214-.35.034.135.102.255.206.35a.79.79 0 0 0 .362.19c-.134.034-.258.098-.362.194s-.17.22-.202.374c-.034-.118-.106-.238-.218-.35s-.232-.184-.36-.216l.01-.002zm-6.702-12.18c.033.14.1.26.202.362s.223.17.364.202a.77.77 0 0 0-.568.602c-.032-.128-.096-.252-.192-.372s-.204-.193-.33-.226a.7.7 0 0 0 .329-.206.79.79 0 0 0 .192-.372l.002.01zm6.702 10.74c.125-.033.242-.1.352-.202s.18-.222.214-.362a.78.78 0 0 0 .206.362c.102.102.222.17.362.202-.134.034-.258.098-.362.194s-.17.218-.202.373c-.034-.133-.106-.257-.218-.36a.82.82 0 0 0-.36-.204l.008-.002zm0-4.344c.125-.033.242-.1.352-.202s.18-.222.214-.362a.78.78 0 0 0 .206.362c.102.102.222.17.362.202-.134.034-.258.098-.362.194s-.17.21-.202.35c-.034-.12-.106-.235-.218-.34a.82.82 0 0 0-.36-.204l.008-.002zm0-7.272c.125-.033.242-.1.352-.202s.18-.222.214-.362a.78.78 0 0 0 .206.362c.102.102.222.17.362.202-.134.034-.258.098-.362.194s-.17.21-.202.35c-.034-.12-.106-.235-.218-.34a.82.82 0 0 0-.36-.204l.008-.002zm-8.142.876c.033.14.1.26.202.362s.216.17.34.202c-.28.082-.465.282-.545.602-.032-.128-.1-.252-.204-.372s-.216-.193-.34-.226a.78.78 0 0 0 .341-.206c.104-.104.172-.228.204-.372l.002.01zm8.142 9.276c.125-.033.242-.1.352-.202a.71.71 0 0 0 .214-.34c.034.12.102.237.206.34s.222.17.362.202c-.134.034-.258.098-.362.194s-.17.22-.202.374c-.034-.118-.106-.238-.218-.35s-.232-.184-.36-.216l.008-.002zm-4.368 2.904c.125-.033.242-.1.352-.202s.18-.223.214-.364c.082.296.274.488.578.568-.304.048-.496.248-.576.6-.032-.144-.104-.272-.216-.384s-.232-.184-.36-.216l.008-.002zm-2.88 0c.125-.033.238-.1.34-.202s.17-.223.202-.364a.77.77 0 0 0 .602.568c-.32.048-.52.248-.6.6-.032-.144-.1-.272-.204-.384s-.22-.184-.348-.216l.008-.002zm0-7.248c.125-.033.238-.1.34-.202s.17-.223.202-.364a.77.77 0 0 0 .602.568c-.32.048-.52.248-.6.6-.032-.144-.1-.272-.204-.384s-.22-.184-.348-.216l.008-.002zm4.344 7.248c.125-.033.238-.1.34-.202s.17-.223.202-.364a.77.77 0 0 0 .602.568c-.32.048-.52.248-.6.6-.032-.144-.1-.272-.204-.384s-.22-.184-.348-.216l.008-.002zm-4.344-8.688a.71.71 0 0 0 .34-.214c.102-.1.17-.235.202-.375.082.31.282.51.602.59-.144.032-.272.092-.384.18s-.18.214-.214.384c-.034-.133-.102-.257-.206-.36s-.22-.172-.348-.204l.007-.002zm0 7.248a.71.71 0 0 0 .34-.214c.102-.1.17-.235.202-.375.082.31.282.51.602.59-.32.048-.52.24-.6.576-.032-.144-.1-.268-.204-.372s-.22-.172-.348-.204l.007-.002zm2.88-11.616a.78.78 0 0 0 .352-.214c.1-.1.18-.235.214-.375a.77.77 0 0 0 .578.591c-.304.048-.496.24-.576.576-.032-.128-.104-.248-.216-.36s-.232-.184-.36-.216l.008-.002zm1.464 0a.71.71 0 0 0 .34-.214c.102-.1.17-.235.202-.375.082.31.282.51.602.59-.32.048-.52.24-.6.576a.82.82 0 0 0-.204-.36c-.104-.112-.22-.184-.348-.216l.008-.002zm-4.344 0a.71.71 0 0 0 .34-.214c.102-.1.17-.235.202-.375.082.31.282.51.602.59-.32.048-.52.24-.6.576a.82.82 0 0 0-.204-.36c-.104-.112-.22-.184-.348-.216l.008-.002zm4.344 7.272a.71.71 0 0 0 .34-.214c.102-.1.17-.235.202-.375.082.31.282.51.602.59-.32.048-.52.24-.6.576a.82.82 0 0 0-.204-.36c-.104-.112-.22-.184-.348-.216l.008-.002zm-5.807-1.464c.125-.033.242-.1.352-.202s.18-.223.214-.364c.082.296.274.488.578.568-.304.064-.496.264-.576.6-.032-.144-.104-.272-.216-.384s-.232-.184-.36-.216l.008-.002zm7.248 7.248c.125-.033.242-.1.352-.202s.18-.223.214-.364c.082.296.274.488.578.568-.304.064-.496.264-.576.6-.032-.144-.104-.272-.216-.384s-.232-.184-.36-.216l.008-.002zm-5.785-5.784a.71.71 0 0 0 .34-.214c.102-.1.17-.235.202-.375.082.31.282.51.602.59-.32.048-.52.24-.6.576a.82.82 0 0 0-.204-.36c-.104-.112-.22-.184-.348-.216l.008-.002zm-1.464-2.904a.78.78 0 0 0 .352-.214c.1-.1.18-.235.214-.375a.77.77 0 0 0 .578.591c-.128.032-.248.092-.36.18s-.18.214-.214.384c-.034-.132-.106-.256-.218-.36a.82.82 0 0 0-.36-.204l.008-.002zm1.464-1.464a.71.71 0 0 0 .34-.214c.102-.1.17-.227.202-.352a.77.77 0 0 0 .602.568c-.32.048-.52.248-.6.6-.032-.144-.1-.272-.204-.384s-.22-.184-.348-.216l.008-.002zm0 7.248a.71.71 0 0 0 .34-.214c.102-.1.17-.227.202-.352a.77.77 0 0 0 .602.568c-.32.048-.52.248-.6.6-.032-.144-.1-.272-.204-.384s-.22-.184-.348-.216l.008-.002zm-1.464 1.464a.78.78 0 0 0 .352-.214c.1-.1.18-.235.214-.375a.77.77 0 0 0 .578.591c-.304.064-.496.256-.576.576-.032-.144-.104-.268-.216-.372a.82.82 0 0 0-.36-.204l.008-.002zm0-1.464a.78.78 0 0 0 .352-.214.78.78 0 0 0 .214-.353c.082.297.274.49.578.57-.304.064-.496.264-.576.6-.032-.144-.104-.272-.216-.384s-.232-.184-.36-.216l.008-.002zm0-7.248a.78.78 0 0 0 .352-.214.78.78 0 0 0 .214-.353c.082.297.274.49.578.57-.304.064-.496.264-.576.6-.032-.144-.104-.272-.216-.384s-.232-.184-.36-.216l.008-.002zm7.248-2.904a.78.78 0 0 0 .352-.214c.1-.1.18-.235.214-.375a.77.77 0 0 0 .578.591c-.304.064-.496.256-.576.576-.032-.128-.104-.248-.216-.36s-.232-.184-.36-.216l.008-.002zm0 7.272a.78.78 0 0 0 .352-.214c.1-.1.18-.235.214-.375a.77.77 0 0 0 .578.591c-.304.064-.496.256-.576.576-.032-.128-.104-.248-.216-.36s-.232-.184-.36-.216l.008-.002zm-7.248 0a.78.78 0 0 0 .352-.214c.1-.1.18-.235.214-.375a.77.77 0 0 0 .578.591c-.304.064-.496.256-.576.576-.032-.128-.104-.248-.216-.36s-.232-.184-.36-.216l.008-.002zm11.584.002c.16-.032.3-.12.42-.264s.18-.296.18-.456c0-.208-.076-.388-.228-.54s-.324-.228-.516-.228a.75.75 0 0 0-.468.156c-.136.104-.22.244-.252.42-.048-.176-.136-.316-.264-.42s-.272-.156-.432-.156c-.176 0-.336.056-.48.168a.7.7 0 0 0-.264.456c-.032-.176-.116-.324-.252-.444s-.292-.18-.468-.18-.336.056-.48.168a.7.7 0 0 0-.264.456c-.032-.176-.116-.324-.252-.444s-.284-.18-.444-.18c-.176 0-.34.056-.492.168a.67.67 0 0 0-.276.432.86.86 0 0 0-.264-.432.64.64 0 0 0-.432-.168c-.208 0-.384.072-.528.216s-.216.328-.216.552c0 .16.052.312.156.456a.64.64 0 0 0 .42.264c-.176.032-.316.116-.42.252a.75.75 0 0 0-.156.468.73.73 0 0 0 .216.516.7.7 0 0 0 .528.228c.16 0 .304-.052.432-.156s.216-.244.264-.42a.63.63 0 0 0 .276.42c.152.104.316.156.492.156.16 0 .308-.056.444-.168s.22-.256.252-.432c.08.304.256.496.528.576a.64.64 0 0 0-.372.252.75.75 0 0 0-.156.468c0 .176.056.332.168.468s.24.216.396.25c-.148.035-.284.12-.396.254s-.168.292-.168.468.056.336.168.48a.68.68 0 0 0 .397.262.72.72 0 0 0-.565.578c-.032-.176-.116-.32-.252-.432s-.284-.168-.444-.168c-.176 0-.34.052-.492.156a.63.63 0 0 0-.276.42.86.86 0 0 0-.264-.408.64.64 0 0 0-.432-.168c-.176 0-.336.056-.48.168s-.232.256-.264.432c-.032-.176-.116-.32-.252-.432s-.292-.168-.468-.168a.79.79 0 0 0-.468.144.61.61 0 0 0-.251.402c-.113-.298-.297-.474-.553-.522.144-.032.276-.12.396-.264a.73.73 0 0 0 .18-.48c0-.176-.06-.332-.18-.468s-.246-.216-.386-.25c.134-.034.266-.118.386-.254s.18-.292.18-.468-.056-.332-.168-.468-.23-.218-.356-.25c.124-.05.244-.137.356-.265a.67.67 0 0 0 .168-.456c0-.176-.06-.332-.18-.468s-.246-.216-.386-.25a.76.76 0 0 0 .386-.266c.12-.144.18-.296.18-.456a.73.73 0 0 0-.18-.48c-.117-.14-.246-.228-.386-.262a.78.78 0 0 0 .386-.254c.12-.136.18-.292.18-.468s-.06-.332-.18-.468-.246-.216-.386-.25a.76.76 0 0 0 .386-.266.73.73 0 0 0 .18-.48c0-.176-.06-.332-.18-.468s-.246-.216-.386-.25a.76.76 0 0 0 .386-.266c.12-.144.18-.296.18-.456a.73.73 0 0 0-.18-.48.73.73 0 0 0-.387-.262.84.84 0 0 0 .339-.194c.102-.094.17-.203.202-.327.034.15.118.28.254.375a.79.79 0 0 0 .468.144.75.75 0 0 0 .468-.156c.136-.104.22-.244.252-.42a.64.64 0 0 0 .264.42.8.8 0 0 0 .48.156.7.7 0 0 0 .456-.156c.125-.1.204-.237.237-.406.035.162.127.302.28.406s.316.156.492.156c.16 0 .308-.052.444-.156s.22-.244.252-.42c.032.144.1.268.204.372s.214.17.34.202a.65.65 0 0 0-.387.266.8.8 0 0 0-.156.48c0 .176.076.34.228.492s.324.228.516.228c.176 0 .332-.056.468-.168s.216-.24.25-.396c.035.148.123.284.266.396s.304.168.48.168c.16 0 .304-.052.432-.156s.213-.224.262-.365c.035.137.12.26.254.365a.75.75 0 0 0 .468.156c.192 0 .364-.076.516-.228s.228-.316.228-.492-.06-.332-.18-.468-.247-.225-.388-.273c.136-.035.268-.12.388-.255s.18-.292.18-.468c0-.192-.076-.364-.228-.516s-.324-.228-.516-.228a.79.79 0 0 0-.468.144.61.61 0 0 0-.252.408c-.112-.304-.296-.48-.552-.528.144-.032.276-.12.396-.264s.18-.296.18-.456c0-.208-.076-.388-.228-.54s-.316-.228-.492-.228-.336.056-.48.168-.232.256-.264.432c-.048-.176-.14-.32-.276-.432s-.284-.168-.444-.168c-.176 0-.336.056-.48.168a.7.7 0 0 0-.264.456c-.032-.176-.116-.324-.252-.444s-.284-.18-.444-.18c-.176 0-.34.056-.492.168a.67.67 0 0 0-.276.432.86.86 0 0 0-.264-.432.64.64 0 0 0-.432-.168c-.176 0-.336.056-.48.168s-.232.256-.264.432c-.048-.176-.14-.32-.276-.432s-.284-.168-.444-.168a.75.75 0 0 0-.468.156c-.136.104-.22.244-.252.42-.048-.176-.14-.316-.276-.42s-.276-.156-.42-.156c-.176 0-.34.056-.492.168a.67.67 0 0 0-.276.432c-.032-.176-.116-.32-.252-.432s-.284-.168-.444-.168c-.208 0-.384.072-.528.216s-.216.328-.216.552a.73.73 0 0 0 .168.456.68.68 0 0 0 .397.262.72.72 0 0 0-.565.578c-.032-.176-.116-.32-.252-.432s-.292-.168-.468-.168c-.192 0-.364.068-.516.204a.69.69 0 0 0-.228.54.75.75 0 0 0 .156.468c.104.136.244.22.42.252a.64.64 0 0 0-.42.264.8.8 0 0 0-.156.48.73.73 0 0 0 .168.456c.112.144.256.232.432.264-.176.032-.32.116-.432.252s-.168.292-.168.468a.8.8 0 0 0 .156.48.64.64 0 0 0 .42.264c-.176.032-.316.116-.42.252a.75.75 0 0 0-.156.468c0 .176.056.332.168.468s.256.22.432.252c-.176.032-.32.116-.432.252a.75.75 0 0 0-.168.492.73.73 0 0 0 .168.456c.112.144.256.232.432.264-.176.032-.32.116-.432.252s-.168.292-.168.468a.7.7 0 0 0 .156.456.79.79 0 0 0 .387.261.67.67 0 0 0-.387.255.75.75 0 0 0-.156.468c0 .176.056.332.168.468s.256.22.432.252c-.176.032-.32.116-.432.252s-.168.292-.168.468a.8.8 0 0 0 .156.48.64.64 0 0 0 .42.264c-.176.032-.316.116-.42.252a.75.75 0 0 0-.156.468c0 .192.076.36.228.504a.73.73 0 0 0 .516.216.75.75 0 0 0 .468-.156c.136-.104.22-.244.252-.42.08.304.272.496.576.576-.16.032-.296.116-.408.252a.75.75 0 0 0-.168.492c0 .176.072.34.216.492a.7.7 0 0 0 .528.228c.16 0 .308-.052.444-.156s.216-.23.25-.385a.64.64 0 0 0 .278.385c.152.104.316.156.492.156.144 0 .284-.052.42-.156s.225-.224.274-.365c.034.137.118.26.254.365a.75.75 0 0 0 .468.156c.176 0 .332-.056.468-.168s.216-.24.25-.396c.035.148.123.284.266.396s.304.168.48.168a.67.67 0 0 0 .456-.168c.125-.11.204-.24.237-.396.035.148.127.284.28.396s.316.168.492.168c.16 0 .308-.056.444-.168s.216-.24.25-.396c.035.148.123.284.266.396s.304.168.48.168.332-.056.468-.168.216-.24.25-.396c.035.148.123.284.266.396s.304.168.48.168.34-.076.492-.228.228-.316.228-.492a.73.73 0 0 0-.18-.48.73.73 0 0 0-.387-.262.84.84 0 0 0 .339-.194c.102-.094.17-.203.202-.327.034.15.118.28.254.375a.79.79 0 0 0 .468.144.73.73 0 0 0 .516-.216c.152-.144.228-.312.228-.504 0-.176-.06-.328-.18-.456s-.247-.213-.388-.26a.76.76 0 0 0 .388-.267.73.73 0 0 0 .18-.48c0-.176-.06-.332-.18-.468a.75.75 0 0 0-.408-.249c.148-.035.288-.12.408-.255s.18-.292.18-.468-.056-.332-.168-.468-.236-.218-.378-.25a.91.91 0 0 0 .378-.265.67.67 0 0 0 .168-.456c0-.176-.06-.332-.18-.468a.75.75 0 0 0-.408-.249l-.012-.003zm1.056-.528c.256 0 .484.1.684.3s.3.436.3.708a.74.74 0 0 1-.108.36c-.072.128-.148.24-.228.336.224.192.336.44.336.744 0 .256-.104.488-.312.696.208.192.312.44.312.744a.91.91 0 0 1-.336.72.91.91 0 0 1 .336.72.91.91 0 0 1-.36.744 1.62 1.62 0 0 1 .24.324.78.78 0 0 1 .12.396c0 .256-.1.48-.3.672a.96.96 0 0 1-.684.288c-.256 0-.496-.096-.72-.288l-.048.048c.208.208.312.456.312.744 0 .24-.1.46-.3.66s-.42.3-.66.3a.9.9 0 0 1-.408-.096c-.128-.064-.24-.136-.336-.216a.94.94 0 0 1-.72.312c-.128 0-.26-.036-.396-.108s-.252-.148-.348-.228c-.192.224-.424.336-.696.336a.96.96 0 0 1-.768-.336.84.84 0 0 1-.696.336c-.304 0-.552-.104-.744-.312a.94.94 0 0 1-.72.312c-.128 0-.256-.036-.384-.108s-.24-.148-.336-.228c-.192.224-.424.336-.696.336-.304 0-.56-.104-.768-.312-.096.08-.204.152-.324.216a.78.78 0 0 1-.372.096.93.93 0 0 1-.696-.3c-.192-.2-.288-.42-.288-.66a1.28 1.28 0 0 1 .024-.288.79.79 0 0 1-.24.048c-.176 0-.336-.044-.48-.132s-.256-.196-.336-.324c-.288-.16-.432-.416-.432-.768 0-.128.008-.216.024-.264-.048.016-.128.024-.24.024a.96.96 0 0 1-.684-.288c-.2-.192-.3-.416-.3-.672 0-.144.032-.284.096-.42a1.14 1.14 0 0 1 .216-.324c-.08-.096-.152-.208-.216-.336a.85.85 0 0 1-.096-.384.91.91 0 0 1 .336-.72c-.224-.224-.336-.464-.336-.72 0-.32.104-.568.312-.744-.208-.208-.312-.44-.312-.696a.91.91 0 0 1 .336-.72.91.91 0 0 1-.336-.72.9.9 0 0 1 .096-.408 1.28 1.28 0 0 1 .24-.336c-.224-.224-.336-.464-.336-.72 0-.144.032-.284.096-.42a1.14 1.14 0 0 1 .216-.324c-.08-.096-.152-.208-.216-.336a.85.85 0 0 1-.096-.384.91.91 0 0 1 .336-.72.91.91 0 0 1-.336-.72c0-.304.104-.552.312-.744-.208-.208-.312-.448-.312-.72 0-.288.1-.524.3-.708s.428-.276.684-.276c.272 0 .504.104.696.312.048-.048.08-.072.096-.072-.08-.096-.152-.204-.216-.324a.78.78 0 0 1-.096-.372c0-.304.096-.548.288-.732a.97.97 0 0 1 .696-.276c.272 0 .504.104.696.312.192-.208.448-.312.768-.312.256 0 .48.104.672.312.208-.208.456-.312.744-.312.272 0 .512.104.72.312.096-.08.212-.152.348-.216s.268-.096.396-.096c.288 0 .52.104.696.312.192-.208.448-.312.768-.312.272 0 .504.104.696.312.208-.208.456-.312.744-.312.256 0 .496.112.72.336.176-.224.424-.336.744-.336.24 0 .46.1.66.3s.3.436.3.708c0 .032-.004.068-.012.108s-.012.076-.012.108c.048-.016.136-.024.264-.024.32 0 .584.16.792.48.272.224.408.48.408.768 0 .048-.004.092-.012.132s-.012.076-.012.108c.032 0 .068-.004.108-.012s.084-.012.132-.012c.256 0 .484.1.684.3s.3.428.3.684c0 .32-.112.568-.336.744a.91.91 0 0 1 .336.72c0 .24-.1.46-.3.66s-.428.3-.684.3a.85.85 0 0 1-.384-.096c-.128-.064-.24-.136-.336-.216-.176.208-.408.312-.696.312a.9.9 0 0 1-.408-.096c-.128-.064-.24-.136-.336-.216a.94.94 0 0 1-.72.312c-.256 0-.484-.1-.684-.3s-.3-.42-.3-.66a1.14 1.14 0 0 1 .024-.264c-.048.016-.128.024-.24.024-.16 0-.304-.036-.432-.108a1.24 1.24 0 0 1-.336-.276.51.51 0 0 1-.216-.192 1.14 1.14 0 0 1-.324.216c-.136.064-.268.096-.396.096a.9.9 0 0 1-.408-.096c-.128-.064-.24-.136-.336-.216-.096.08-.208.152-.336.216a.85.85 0 0 1-.384.096c-.256 0-.496-.096-.72-.288-.016.016-.032.024-.048.024l-.024.024a1.28 1.28 0 0 1 .24.336.9.9 0 0 1 .096.408c0 .304-.112.544-.336.72a1.36 1.36 0 0 1 .24.324.83.83 0 0 1 .096.396c0 .128-.036.256-.108.384s-.148.24-.228.336c.096.096.184.224.264.384.176-.256.44-.384.792-.384.288 0 .52.104.696.312.192-.208.448-.312.768-.312.272 0 .504.104.696.312.208-.208.456-.312.744-.312a.78.78 0 0 1 .372.096c.12.064.228.136.324.216a1.53 1.53 0 0 1 .36-.216c.144-.064.28-.096.408-.096a.95.95 0 0 1 .696.288c.192-.192.432-.288.72-.288.256 0 .484.1.684.3s.3.436.3.708c0 .048-.016.12-.048.216.032 0 .072-.004.12-.012s.096-.012.144-.012zM52.3 18.456c-.208 0-.396-.06-.564-.18a1.1 1.1 0 0 1-.372-.444.43.43 0 0 1-.12.12c.224.224.336.464.336.72 0 .272-.104.504-.312.696.208.208.312.456.312.744 0 .256-.112.496-.336.72.032.032.056.064.072.096s.04.064.072.096c.048.016.104.056.168.12.096-.08.212-.152.348-.216s.268-.096.396-.096c.256 0 .488.104.696.312.192-.208.448-.312.768-.312.272 0 .504.104.696.312l.072-.072c-.08-.096-.152-.208-.216-.336a.85.85 0 0 1-.096-.384c0-.336.104-.584.312-.744l-.072-.072c-.128-.064-.216-.128-.264-.192a1.19 1.19 0 0 1-.312.216.85.85 0 0 1-.384.096.93.93 0 0 1-.696-.3.96.96 0 0 1-.288-.684 1.14 1.14 0 0 1 .024-.264.79.79 0 0 1-.24.048zm-.672-1.704c-.112-.096-.2-.232-.264-.408-.016.032-.056.08-.12.144a1.05 1.05 0 0 1 .264.408c.032-.032.052-.056.06-.072s.028-.04.06-.072zm14.448 1.44c.288-.08.456-.272.504-.576a.75.75 0 0 0 .552.576c-.288.048-.472.24-.552.576-.048-.304-.216-.496-.504-.576zm-1.464 0a.66.66 0 0 0 .528-.576c.08.304.256.496.528.576-.272.048-.448.24-.528.576a.66.66 0 0 0-.528-.576zm.53-7.838a.79.79 0 0 0 .19.362c.094.102.212.17.352.202-.28.082-.464.282-.544.602-.032-.128-.1-.252-.204-.372s-.216-.193-.34-.226a.78.78 0 0 0 .341-.206c.104-.104.172-.228.204-.372l.002.01zm1.44-.001c.033.14.1.26.202.362s.223.17.364.202a.77.77 0 0 0-.568.602c-.032-.128-.096-.252-.192-.372s-.204-.193-.33-.226a.7.7 0 0 0 .329-.206.79.79 0 0 0 .192-.372l.002.01zm-2 4.932c.125-.033.242-.1.352-.202s.18-.223.214-.364c.082.296.274.488.578.568-.304.048-.496.248-.576.6-.032-.144-.104-.272-.216-.384s-.232-.184-.36-.216l.008-.002zm0 7.248c.125-.033.242-.1.352-.202s.18-.223.214-.364c.082.296.274.488.578.568-.304.048-.496.248-.576.6-.032-.144-.104-.272-.216-.384s-.232-.184-.36-.216l.008-.002zm0-8.688a.78.78 0 0 0 .352-.214c.1-.1.18-.235.214-.375a.77.77 0 0 0 .578.591c-.32.048-.512.24-.576.576-.032-.144-.104-.268-.216-.372a.82.82 0 0 0-.36-.204l.008-.002zm1.464 1.44c.125-.033.238-.1.34-.202s.17-.223.202-.364a.77.77 0 0 0 .602.568c-.32.048-.52.248-.6.6-.032-.144-.1-.272-.204-.384s-.22-.184-.348-.216l.008-.002zm0 7.248c.125-.033.238-.1.34-.202s.17-.223.202-.364a.77.77 0 0 0 .602.568c-.32.048-.52.248-.6.6-.032-.144-.1-.272-.204-.384s-.22-.184-.348-.216l.008-.002zm0-8.688a.71.71 0 0 0 .34-.214c.102-.1.17-.235.202-.375.082.31.282.51.602.59-.144.032-.272.092-.384.18s-.18.214-.214.384c-.034-.133-.102-.257-.206-.36s-.22-.172-.348-.204l.007-.002zm-1.464 7.248a.78.78 0 0 0 .352-.214c.1-.1.18-.235.214-.375a.77.77 0 0 0 .578.591c-.304.048-.496.24-.576.576-.032-.144-.104-.268-.216-.372a.82.82 0 0 0-.36-.204l.008-.002zm1.464 0a.71.71 0 0 0 .34-.214c.102-.1.17-.235.202-.375.082.31.282.51.602.59-.32.048-.52.24-.6.576-.032-.144-.1-.268-.204-.372s-.22-.172-.348-.204l.007-.002zm-1.464-4.344a.78.78 0 0 0 .352-.214c.1-.1.18-.235.214-.375a.77.77 0 0 0 .578.591c-.304.048-.496.24-.576.576-.032-.128-.104-.248-.216-.36s-.232-.184-.36-.216l.008-.002zm0-7.272a.78.78 0 0 0 .352-.214c.1-.1.18-.235.214-.375a.77.77 0 0 0 .578.591c-.304.048-.496.24-.576.576-.032-.128-.104-.248-.216-.36s-.232-.184-.36-.216l.008-.002zm1.464 7.272a.71.71 0 0 0 .34-.214c.102-.1.17-.235.202-.375.082.31.282.51.602.59-.32.048-.52.24-.6.576a.82.82 0 0 0-.204-.36c-.104-.112-.22-.184-.348-.216l.008-.002zm0-7.272a.71.71 0 0 0 .34-.214c.102-.1.17-.235.202-.375.082.31.282.51.602.59-.32.048-.52.24-.6.576a.82.82 0 0 0-.204-.36c-.104-.112-.22-.184-.348-.216l.008-.002zm-1.464 2.904a.78.78 0 0 0 .352-.214.78.78 0 0 0 .214-.353c.082.297.274.49.578.57-.304.048-.496.248-.576.6-.032-.144-.104-.272-.216-.384s-.232-.184-.36-.216l.008-.002zm0 7.248a.78.78 0 0 0 .352-.214.78.78 0 0 0 .214-.353c.082.297.274.49.578.57-.304.048-.496.248-.576.6-.032-.144-.104-.272-.216-.384s-.232-.184-.36-.216l.008-.002zm1.464-7.248a.71.71 0 0 0 .34-.214c.102-.1.17-.227.202-.352a.77.77 0 0 0 .602.568c-.32.048-.52.248-.6.6-.032-.144-.1-.272-.204-.384s-.22-.184-.348-.216l.008-.002zm0 7.248a.71.71 0 0 0 .34-.214c.102-.1.17-.227.202-.352a.77.77 0 0 0 .602.568c-.32.048-.52.248-.6.6-.032-.144-.1-.272-.204-.384s-.22-.184-.348-.216l.008-.002zm1.433-10.15c.16-.032.3-.12.42-.264s.18-.296.18-.456c0-.208-.076-.388-.228-.54s-.316-.228-.492-.228-.34.056-.492.168a.67.67 0 0 0-.276.432.86.86 0 0 0-.264-.432.64.64 0 0 0-.432-.168c-.176 0-.336.056-.48.168a.7.7 0 0 0-.264.456c-.032-.176-.116-.324-.252-.444s-.292-.18-.468-.18a.73.73 0 0 0-.516.216c-.152.144-.228.328-.228.552a.73.73 0 0 0 .168.456c.112.144.256.232.432.264a.73.73 0 0 0-.432.24c-.112.128-.168.288-.168.48a.75.75 0 0 0 .156.468c.104.136.244.22.42.252a.64.64 0 0 0-.42.264.8.8 0 0 0-.156.48.73.73 0 0 0 .168.456c.112.144.256.232.432.264-.176.032-.32.116-.432.252s-.168.292-.168.468a.8.8 0 0 0 .156.48.64.64 0 0 0 .42.264c-.176.032-.316.116-.42.252a.75.75 0 0 0-.156.468c0 .176.056.332.168.468s.256.22.432.252c-.176.032-.32.116-.432.252a.75.75 0 0 0-.168.492.73.73 0 0 0 .168.456c.112.144.256.232.432.264-.176.032-.32.116-.432.252s-.168.292-.168.468a.7.7 0 0 0 .156.456.79.79 0 0 0 .387.261.67.67 0 0 0-.387.255.75.75 0 0 0-.156.468c0 .176.056.332.168.468s.256.22.432.252c-.176.032-.32.116-.432.252s-.168.292-.168.468a.8.8 0 0 0 .156.48.64.64 0 0 0 .42.264c-.176.032-.316.116-.42.252a.75.75 0 0 0-.156.468c0 .176.056.332.168.468s.256.22.432.252c-.176.032-.32.116-.432.252a.75.75 0 0 0-.168.492c0 .176.076.34.228.492s.324.228.516.228c.176 0 .332-.056.468-.168s.216-.24.25-.396c.035.148.123.284.266.396s.304.168.48.168a.67.67 0 0 0 .456-.168c.125-.11.204-.24.237-.396.035.148.127.284.28.396s.316.168.492.168.34-.076.492-.228.228-.316.228-.492a.73.73 0 0 0-.18-.48c-.12-.144-.26-.232-.42-.264.16-.032.3-.116.42-.252s.18-.292.18-.468-.06-.328-.18-.456-.247-.213-.388-.26a.76.76 0 0 0 .388-.267.73.73 0 0 0 .18-.48c0-.176-.06-.332-.18-.468a.75.75 0 0 0-.408-.249c.148-.035.288-.12.408-.255s.18-.292.18-.468-.056-.332-.168-.468-.236-.218-.378-.25a.91.91 0 0 0 .378-.265.67.67 0 0 0 .168-.456c0-.176-.06-.332-.18-.468a.75.75 0 0 0-.408-.249c.148-.035.288-.123.408-.267s.18-.296.18-.456a.73.73 0 0 0-.18-.48c-.12-.144-.26-.232-.42-.264.16-.032.3-.116.42-.252s.18-.292.18-.468-.06-.328-.18-.456-.247-.213-.388-.26a.76.76 0 0 0 .388-.267.73.73 0 0 0 .18-.48c0-.176-.06-.332-.18-.468a.75.75 0 0 0-.408-.249c.148-.035.288-.123.408-.267s.18-.296.18-.456c0-.176-.06-.332-.18-.468s-.247-.225-.388-.273c.136-.035.268-.12.388-.255s.18-.292.18-.468-.06-.332-.18-.468a.75.75 0 0 0-.408-.249l-.012-.003zm1.08-.528c.24 0 .46.1.66.3s.3.436.3.708a.74.74 0 0 1-.108.36c-.072.128-.148.24-.228.336.224.176.336.424.336.744s-.112.568-.336.744a.91.91 0 0 1 .336.72.74.74 0 0 1-.108.36c-.072.128-.148.24-.228.336.224.192.336.44.336.744a.91.91 0 0 1-.36.744 1.62 1.62 0 0 1 .24.324.78.78 0 0 1 .12.396.91.91 0 0 1-.336.72 1.28 1.28 0 0 1 .24.336.9.9 0 0 1 .096.408.74.74 0 0 1-.108.36c-.072.128-.148.24-.228.336.224.192.336.44.336.744 0 .256-.104.488-.312.696.208.192.312.44.312.744a.91.91 0 0 1-.336.72.91.91 0 0 1 .336.72.91.91 0 0 1-.36.744 1.62 1.62 0 0 1 .24.324.78.78 0 0 1 .12.396.91.91 0 0 1-.336.72c.224.224.336.472.336.744 0 .24-.1.46-.3.66s-.42.3-.66.3a.96.96 0 0 1-.768-.336.84.84 0 0 1-.696.336c-.304 0-.552-.104-.744-.312a.94.94 0 0 1-.72.312c-.256 0-.484-.1-.684-.3s-.3-.42-.3-.66c0-.128.008-.216.024-.264-.032 0-.072.004-.12.012s-.088.012-.12.012c-.256 0-.484-.1-.684-.3s-.3-.42-.3-.66a.9.9 0 0 1 .096-.408 1.28 1.28 0 0 1 .24-.336c-.224-.224-.336-.464-.336-.72 0-.144.032-.284.096-.42a1.14 1.14 0 0 1 .216-.324c-.08-.096-.152-.208-.216-.336a.85.85 0 0 1-.096-.384.91.91 0 0 1 .336-.72c-.224-.224-.336-.464-.336-.72 0-.32.104-.568.312-.744-.208-.208-.312-.44-.312-.696a.91.91 0 0 1 .336-.72.91.91 0 0 1-.336-.72.9.9 0 0 1 .096-.408 1.28 1.28 0 0 1 .24-.336c-.224-.224-.336-.464-.336-.72 0-.144.032-.284.096-.42a1.14 1.14 0 0 1 .216-.324c-.08-.096-.152-.208-.216-.336a.85.85 0 0 1-.096-.384.91.91 0 0 1 .336-.72.91.91 0 0 1-.336-.72c0-.304.104-.552.312-.744-.208-.208-.312-.448-.312-.72 0-.144.036-.284.108-.42a1.35 1.35 0 0 1 .228-.324c-.224-.192-.336-.424-.336-.696 0-.304.1-.548.3-.732s.428-.276.684-.276a.94.94 0 0 1 .72.312c.208-.208.456-.312.744-.312s.52.104.696.312c.192-.208.448-.312.768-.312.24 0 .46.1.66.3s.3.436.3.708c0 .048-.016.12-.048.216a1.28 1.28 0 0 1 .288-.024zm11.112 9.24c.288-.08.456-.272.504-.576a.75.75 0 0 0 .552.576c-.288.048-.472.24-.552.576-.048-.304-.216-.496-.504-.576zm-1.464 0a.66.66 0 0 0 .528-.576c.08.304.256.496.528.576-.272.048-.448.24-.528.576a.66.66 0 0 0-.528-.576zm-1.454-8.715c.124-.033.237-.1.338-.2s.17-.216.202-.34c.082.28.274.465.578.545a.66.66 0 0 0-.576.528c-.112-.304-.296-.48-.552-.528l.01-.003zm7.248 0c.124-.033.237-.1.338-.2s.17-.216.202-.34c.082.28.274.465.578.545a.66.66 0 0 0-.576.528c-.112-.304-.296-.48-.552-.528l.01-.003zm-5.263.877a.79.79 0 0 0 .19.362c.094.102.212.17.352.202-.28.082-.464.282-.544.602-.032-.128-.1-.252-.204-.372s-.216-.193-.34-.226a.78.78 0 0 0 .341-.206c.104-.104.172-.228.204-.372l.002.01zm1.44-.001c.033.14.1.26.202.362s.223.17.364.202a.77.77 0 0 0-.568.602c-.032-.128-.096-.252-.192-.372s-.204-.193-.33-.226a.7.7 0 0 0 .329-.206.79.79 0 0 0 .192-.372l.002.01zm2.358-.876c.125-.033.242-.1.352-.202s.18-.222.214-.362a.78.78 0 0 0 .206.362c.102.102.222.17.362.202-.134.034-.258.098-.362.194s-.17.22-.202.374c-.034-.118-.106-.238-.218-.35s-.232-.184-.36-.216l.008-.002zm-4.368 5.808c.125-.033.242-.1.352-.202s.18-.223.214-.364c.082.296.274.488.578.568-.304.048-.496.248-.576.6-.032-.144-.104-.272-.216-.384s-.232-.184-.36-.216l.008-.002zm0 7.248c.125-.033.242-.1.352-.202s.18-.223.214-.364c.082.296.274.488.578.568-.304.048-.496.248-.576.6-.032-.144-.104-.272-.216-.384s-.232-.184-.36-.216l.008-.002zm0-8.688a.78.78 0 0 0 .352-.214c.1-.1.18-.235.214-.375a.77.77 0 0 0 .578.591c-.32.048-.512.24-.576.576-.032-.144-.104-.268-.216-.372a.82.82 0 0 0-.36-.204l.008-.002zm1.464 1.44c.125-.033.238-.1.34-.202s.17-.223.202-.364a.77.77 0 0 0 .602.568c-.32.048-.52.248-.6.6-.032-.144-.1-.272-.204-.384s-.22-.184-.348-.216l.008-.002zm0 7.248c.125-.033.238-.1.34-.202s.17-.223.202-.364a.77.77 0 0 0 .602.568c-.32.048-.52.248-.6.6-.032-.144-.1-.272-.204-.384s-.22-.184-.348-.216l.008-.002zm0-8.688a.71.71 0 0 0 .34-.214c.102-.1.17-.235.202-.375.082.31.282.51.602.59-.144.032-.272.092-.384.18s-.18.214-.214.384c-.034-.133-.102-.257-.206-.36s-.22-.172-.348-.204l.007-.002zm-1.464 7.248a.78.78 0 0 0 .352-.214c.1-.1.18-.235.214-.375a.77.77 0 0 0 .578.591c-.304.048-.496.24-.576.576-.032-.144-.104-.268-.216-.372a.82.82 0 0 0-.36-.204l.008-.002zm1.464 0a.71.71 0 0 0 .34-.214c.102-.1.17-.235.202-.375.082.31.282.51.602.59-.32.048-.52.24-.6.576-.032-.144-.1-.268-.204-.372s-.22-.172-.348-.204l.007-.002zM78.156 9.478a.78.78 0 0 0 .352-.214c.1-.1.18-.235.214-.375a.77.77 0 0 0 .578.591c-.304.048-.496.24-.576.576-.032-.128-.104-.248-.216-.36s-.232-.184-.36-.216l.008-.002zm0 7.272a.78.78 0 0 0 .352-.214c.1-.1.18-.235.214-.375a.77.77 0 0 0 .578.591c-.304.048-.496.24-.576.576-.032-.128-.104-.248-.216-.36s-.232-.184-.36-.216l.008-.002zm-2.88-7.272a.71.71 0 0 0 .34-.214c.102-.1.17-.235.202-.375.082.31.282.51.602.59-.32.048-.52.24-.6.576a.82.82 0 0 0-.204-.36c-.104-.112-.22-.184-.348-.216l.008-.002zm4.344 7.272a.71.71 0 0 0 .34-.214c.102-.1.17-.235.202-.375.082.31.282.51.602.59-.32.048-.52.24-.6.576a.82.82 0 0 0-.204-.36c-.104-.112-.22-.184-.348-.216l.008-.002zm0-7.272a.71.71 0 0 0 .34-.214c.102-.1.17-.235.202-.375.082.31.282.51.602.59-.32.048-.52.24-.6.576a.82.82 0 0 0-.204-.36c-.104-.112-.22-.184-.348-.216l.008-.002zM78.156 19.63a.78.78 0 0 0 .352-.214.78.78 0 0 0 .214-.353c.082.297.274.49.578.57-.304.048-.496.248-.576.6-.032-.144-.104-.272-.216-.384s-.232-.184-.36-.216l.008-.002zm0-7.248a.78.78 0 0 0 .352-.214.78.78 0 0 0 .214-.353c.082.297.274.49.578.57-.304.048-.496.248-.576.6-.032-.144-.104-.272-.216-.384s-.232-.184-.36-.216l.008-.002zm1.464 0a.71.71 0 0 0 .34-.214c.102-.1.17-.227.202-.352a.77.77 0 0 0 .602.568c-.32.048-.52.248-.6.6-.032-.144-.1-.272-.204-.384s-.22-.184-.348-.216l.008-.002zm0 7.248a.71.71 0 0 0 .34-.214c.102-.1.17-.227.202-.352a.77.77 0 0 0 .602.568c-.32.048-.52.248-.6.6-.032-.144-.1-.272-.204-.384s-.22-.184-.348-.216l.008-.002zm1.44-10.152a.78.78 0 0 0 .352-.214c.1-.1.18-.235.214-.375a.77.77 0 0 0 .578.591c-.304.064-.496.256-.576.576-.032-.128-.104-.248-.216-.36s-.232-.184-.36-.216l.008-.002zm-7.248 0a.78.78 0 0 0 .352-.214c.1-.1.18-.235.214-.375a.77.77 0 0 0 .578.591c-.304.064-.496.256-.576.576-.032-.128-.104-.248-.216-.36s-.232-.184-.36-.216l.008-.002zm11.584.002c.16-.032.3-.12.42-.264s.18-.296.18-.456c0-.208-.076-.388-.228-.54s-.324-.228-.516-.228a.75.75 0 0 0-.468.156c-.136.104-.22.244-.252.42-.048-.176-.136-.316-.264-.42s-.272-.156-.432-.156c-.176 0-.336.056-.48.168a.7.7 0 0 0-.264.456c-.032-.176-.116-.324-.252-.444s-.292-.18-.468-.18-.336.056-.48.168a.7.7 0 0 0-.264.456c-.032-.176-.116-.324-.252-.444s-.284-.18-.444-.18c-.176 0-.34.056-.492.168s-.244.264-.276.456c-.032-.176-.112-.324-.24-.444s-.28-.18-.456-.18-.336.056-.48.168a.7.7 0 0 0-.264.456c-.032-.176-.116-.324-.252-.444s-.292-.18-.468-.18a.75.75 0 0 0-.468.156c-.136.104-.22.244-.252.42-.048-.176-.14-.316-.276-.42s-.276-.156-.42-.156c-.176 0-.34.056-.492.168s-.244.264-.276.456c-.032-.176-.112-.324-.24-.444s-.28-.18-.456-.18-.336.056-.48.168-.232.256-.264.432c-.048-.176-.14-.32-.276-.432s-.284-.168-.444-.168a.73.73 0 0 0-.516.216c-.152.144-.228.328-.228.552a.73.73 0 0 0 .168.456c.112.144.256.232.432.264a.73.73 0 0 0-.432.24c-.112.128-.168.288-.168.48s.076.36.228.504a.73.73 0 0 0 .516.216.75.75 0 0 0 .468-.156c.136-.104.22-.244.252-.42a.64.64 0 0 0 .264.42.8.8 0 0 0 .48.156c.16 0 .308-.048.444-.144a.61.61 0 0 0 .25-.395c.035.163.127.3.278.395s.316.144.492.144a.72.72 0 0 0 .42-.144c.134-.095.226-.22.274-.378.082.298.266.474.554.522a.64.64 0 0 0-.42.264.8.8 0 0 0-.156.48.73.73 0 0 0 .168.456c.112.144.256.232.432.264-.176.032-.32.116-.432.252s-.168.292-.168.468a.8.8 0 0 0 .156.48.64.64 0 0 0 .42.264c-.176.032-.316.116-.42.252a.75.75 0 0 0-.156.468c0 .176.056.332.168.468s.256.22.432.252c-.176.032-.32.116-.432.252a.75.75 0 0 0-.168.492.73.73 0 0 0 .168.456c.112.144.256.232.432.264-.176.032-.32.116-.432.252s-.168.292-.168.468a.7.7 0 0 0 .156.456.79.79 0 0 0 .387.261.67.67 0 0 0-.387.255.75.75 0 0 0-.156.468c0 .176.056.332.168.468s.256.22.432.252c-.176.032-.32.116-.432.252s-.168.292-.168.468a.8.8 0 0 0 .156.48.64.64 0 0 0 .42.264c-.176.032-.316.116-.42.252a.75.75 0 0 0-.156.468c0 .176.056.332.168.468s.256.22.432.252c-.176.032-.32.116-.432.252a.75.75 0 0 0-.168.492c0 .176.076.34.228.492s.324.228.516.228c.176 0 .332-.056.468-.168s.216-.24.25-.396c.035.148.123.284.266.396s.304.168.48.168a.67.67 0 0 0 .456-.168c.125-.11.204-.24.237-.396.035.148.127.284.28.396s.316.168.492.168.34-.076.492-.228.228-.316.228-.492a.73.73 0 0 0-.18-.48c-.12-.144-.26-.232-.42-.264.16-.032.3-.116.42-.252s.18-.292.18-.468-.06-.328-.18-.456-.247-.213-.388-.26a.76.76 0 0 0 .388-.267.73.73 0 0 0 .18-.48c0-.176-.06-.332-.18-.468a.75.75 0 0 0-.408-.249c.148-.035.288-.12.408-.255s.18-.292.18-.468-.056-.332-.168-.468-.236-.218-.378-.25a.91.91 0 0 0 .378-.265.67.67 0 0 0 .168-.456c0-.176-.06-.332-.18-.468a.75.75 0 0 0-.408-.249c.148-.035.288-.123.408-.267s.18-.296.18-.456a.73.73 0 0 0-.18-.48c-.12-.144-.26-.232-.42-.264.16-.032.3-.116.42-.252s.18-.292.18-.468-.06-.328-.18-.456-.247-.213-.388-.26a.76.76 0 0 0 .388-.267.73.73 0 0 0 .18-.48c0-.176-.06-.332-.18-.468a.75.75 0 0 0-.408-.249c.148-.035.288-.123.408-.267s.18-.296.18-.456c0-.176-.06-.332-.18-.468s-.248-.225-.39-.274c.12-.034.237-.102.34-.206s.168-.214.2-.338c.035.166.123.302.267.398s.304.144.48.144a.75.75 0 0 0 .468-.156c.136-.104.22-.244.252-.42a.64.64 0 0 0 .264.42.8.8 0 0 0 .48.156c.352 0 .584-.176.696-.528a.6.6 0 0 0 .252.384.79.79 0 0 0 .468.144.73.73 0 0 0 .516-.216c.152-.144.228-.312.228-.504 0-.176-.06-.332-.18-.468a.75.75 0 0 0-.408-.249l-.012-.003zm-11.472 1.632c-.064.032-.152.048-.264.048a.96.96 0 0 1-.684-.288c-.2-.192-.3-.416-.3-.672 0-.144.036-.284.108-.42a1.35 1.35 0 0 1 .228-.324c-.224-.192-.336-.424-.336-.696 0-.304.1-.548.3-.732s.428-.276.684-.276c.272 0 .512.104.72.312.096-.08.212-.152.348-.216s.268-.096.396-.096c.24 0 .472.112.696.336a.96.96 0 0 1 .768-.336c.256 0 .48.104.672.312.208-.208.456-.312.744-.312a.94.94 0 0 1 .72.312c.208-.208.456-.312.744-.312a.85.85 0 0 1 .384.096 1.19 1.19 0 0 1 .312.216c.208-.208.464-.312.768-.312.272 0 .504.104.696.312.208-.208.456-.312.744-.312a.78.78 0 0 1 .372.096c.12.064.228.136.324.216a1.53 1.53 0 0 1 .36-.216c.144-.064.28-.096.408-.096a.95.95 0 0 1 .696.288c.192-.192.432-.288.72-.288.256 0 .484.1.684.3s.3.436.3.708c0 .048-.016.12-.048.216.032 0 .072-.004.12-.012s.096-.012.144-.012c.256 0 .484.1.684.3s.3.436.3.708a.74.74 0 0 1-.108.36c-.072.128-.148.24-.228.336.224.176.336.424.336.744 0 .256-.1.48-.3.672a.96.96 0 0 1-.684.288c-.256 0-.496-.096-.72-.288a.95.95 0 0 1-.696.288c-.288 0-.536-.104-.744-.312-.096.08-.208.152-.336.216a.85.85 0 0 1-.384.096c-.272 0-.52-.096-.744-.288l-.072.072a.91.91 0 0 1 .336.72.74.74 0 0 1-.108.36c-.072.128-.148.24-.228.336.224.192.336.44.336.744a.91.91 0 0 1-.36.744 1.62 1.62 0 0 1 .24.324.78.78 0 0 1 .12.396.91.91 0 0 1-.336.72c.224.224.336.472.336.744a.74.74 0 0 1-.108.36c-.072.128-.148.24-.228.336.224.192.336.44.336.744 0 .256-.104.488-.312.696.208.192.312.44.312.744a.91.91 0 0 1-.336.72.91.91 0 0 1 .336.72.91.91 0 0 1-.36.744 1.62 1.62 0 0 1 .24.324.78.78 0 0 1 .12.396.91.91 0 0 1-.336.72c.224.224.336.472.336.744 0 .24-.1.46-.3.66s-.42.3-.66.3a.96.96 0 0 1-.768-.336.84.84 0 0 1-.696.336c-.304 0-.552-.104-.744-.312a.94.94 0 0 1-.72.312c-.256 0-.484-.1-.684-.3s-.3-.42-.3-.66c0-.128.008-.216.024-.264-.032 0-.072.004-.12.012s-.088.012-.12.012c-.256 0-.484-.1-.684-.3s-.3-.42-.3-.66a.9.9 0 0 1 .096-.408 1.28 1.28 0 0 1 .24-.336 1.28 1.28 0 0 1-.24-.336.85.85 0 0 1-.096-.384c0-.144.032-.284.096-.42a1.14 1.14 0 0 1 .216-.324c-.08-.096-.152-.208-.216-.336a.85.85 0 0 1-.096-.384.91.91 0 0 1 .336-.72 1.28 1.28 0 0 1-.24-.336.85.85 0 0 1-.096-.384c0-.32.104-.568.312-.744-.208-.208-.312-.44-.312-.696a.91.91 0 0 1 .336-.72.91.91 0 0 1-.336-.72.9.9 0 0 1 .096-.408 1.28 1.28 0 0 1 .24-.336 1.28 1.28 0 0 1-.24-.336.85.85 0 0 1-.096-.384c0-.144.032-.284.096-.42a1.14 1.14 0 0 1 .216-.324c-.08-.096-.152-.208-.216-.336a.85.85 0 0 1-.096-.384.91.91 0 0 1 .336-.72.58.58 0 0 0-.084-.072c-.024-.016-.044-.04-.06-.072-.096-.064-.16-.12-.192-.168a.95.95 0 0 1-.696.288.9.9 0 0 1-.408-.096c-.128-.064-.24-.136-.336-.216-.096.08-.208.152-.336.216a.85.85 0 0 1-.384.096.96.96 0 0 1-.684-.288c-.2-.192-.3-.416-.3-.672 0-.126.016-.22.047-.285l.001-.003zm28.992 7.08a.73.73 0 0 0 .504-.528c.08.272.256.448.528.528-.272.048-.448.224-.528.528-.08-.288-.248-.464-.504-.528zm-1.464 0a.74.74 0 0 0 .528-.552c.048.288.224.472.528.552-.304.048-.48.24-.528.576a.66.66 0 0 0-.528-.576zm-7.248 0c.288-.08.456-.272.504-.576a.75.75 0 0 0 .552.576c-.288.048-.472.24-.552.576-.048-.304-.216-.496-.504-.576zm-1.464 0a.66.66 0 0 0 .528-.576c.08.304.256.496.528.576-.272.048-.448.24-.528.576a.66.66 0 0 0-.528-.576zm10.68-7.8c.08.304.264.48.552.528-.288.08-.472.264-.552.552-.096-.288-.272-.472-.528-.552a.81.81 0 0 0 .324-.192c.104-.096.172-.208.204-.336zm-1.992.528c.128-.032.244-.1.348-.204s.172-.22.204-.348a.66.66 0 0 0 .552.552c-.32.08-.504.28-.552.6-.032-.128-.1-.252-.204-.372s-.216-.193-.34-.226l-.007-.002zm1.45 2.925c.124-.033.237-.1.338-.2s.17-.216.202-.34c.082.28.274.465.578.545a.7.7 0 0 0-.576.528c-.096-.304-.28-.48-.552-.528l.01-.003zm0 1.44c.124-.033.237-.096.338-.19s.17-.204.202-.33c.082.266.274.442.578.522-.304.048-.496.232-.576.552-.112-.32-.296-.504-.552-.552l.01-.003zm0 7.248c.124-.033.237-.096.338-.19s.17-.204.202-.33c.082.266.274.442.578.522-.304.048-.496.232-.576.552-.112-.32-.296-.504-.552-.552l.01-.003zm0-10.152c.124-.033.237-.096.338-.19s.17-.204.202-.33c.082.266.274.442.578.522-.304.048-.496.232-.576.552-.112-.32-.296-.504-.552-.552l.01-.003zm0 7.248c.124-.033.237-.096.338-.19s.17-.204.202-.33c.082.266.274.442.578.522-.304.048-.496.232-.576.552-.112-.32-.296-.504-.552-.552l.01-.003zM95.63 9.477c.124-.033.237-.1.338-.2s.17-.216.202-.34c.082.28.274.465.578.545a.66.66 0 0 0-.576.528c-.112-.304-.296-.48-.552-.528l.01-.003zm7.248 11.616c.124-.033.237-.1.338-.2s.17-.216.202-.34c.082.28.274.465.578.545a.66.66 0 0 0-.576.528c-.112-.304-.296-.48-.552-.528l.01-.003zM95.63 16.75c.124-.033.237-.1.338-.2s.17-.216.202-.34c.082.28.274.465.578.545a.66.66 0 0 0-.576.528c-.112-.304-.296-.48-.552-.528l.01-.003zm7.248 0c.124-.033.237-.1.338-.2s.17-.216.202-.34c.082.28.274.465.578.545a.66.66 0 0 0-.576.528c-.112-.304-.296-.48-.552-.528l.01-.003zm-1.465 5.784a.88.88 0 0 0 .351-.19c.1-.094.18-.21.214-.35.034.135.102.255.206.35a.79.79 0 0 0 .362.19c-.134.034-.258.098-.362.194s-.17.22-.202.374c-.034-.118-.106-.238-.218-.35s-.232-.184-.36-.216l.01-.002zm0-7.248a.88.88 0 0 0 .351-.19c.1-.094.18-.21.214-.35.034.135.102.255.206.35a.79.79 0 0 0 .362.19c-.134.034-.258.098-.362.194s-.17.22-.202.374c-.034-.118-.106-.238-.218-.35s-.232-.184-.36-.216l.01-.002zm0-1.44c.125-.033.242-.1.352-.202s.18-.222.214-.362a.78.78 0 0 0 .206.362c.102.102.223.17.362.202a.9.9 0 0 0-.362.182c-.102.086-.17.214-.202.384-.034-.132-.106-.256-.218-.36a.82.82 0 0 0-.36-.204l.008-.002zM94.7 10.354c.033.14.1.26.202.362s.223.17.364.202a.77.77 0 0 0-.568.602c-.032-.128-.096-.252-.192-.372s-.204-.193-.33-.226a.7.7 0 0 0 .329-.206.79.79 0 0 0 .192-.372l.002.01zm6.702 6.396c.125-.033.242-.1.352-.202s.18-.222.214-.362a.78.78 0 0 0 .206.362c.102.102.222.17.362.202-.134.034-.258.098-.362.194s-.17.22-.202.374c-.034-.118-.106-.238-.218-.35s-.232-.184-.36-.216l.008-.002zm0-7.272c.125-.033.242-.1.352-.202s.18-.222.214-.362a.78.78 0 0 0 .206.362c.102.102.222.17.362.202-.134.034-.258.098-.362.194s-.17.22-.202.374c-.034-.118-.106-.238-.218-.35s-.232-.184-.36-.216l.008-.002zm-8.142.876c.033.14.1.26.202.362s.216.17.34.202c-.28.082-.465.282-.545.602-.032-.128-.1-.252-.204-.372s-.216-.193-.34-.226a.78.78 0 0 0 .341-.206c.104-.104.172-.228.204-.372l.002.01zm8.142 9.276c.125-.033.242-.1.352-.202a.71.71 0 0 0 .214-.34c.034.12.102.237.206.34s.222.17.362.202c-.134.034-.258.098-.362.194s-.17.22-.202.374c-.034-.118-.106-.238-.218-.35s-.232-.184-.36-.216l.008-.002zm0-7.248c.125-.033.242-.1.352-.202a.71.71 0 0 0 .214-.34c.034.12.102.237.206.34s.222.17.362.202c-.134.034-.258.098-.362.194s-.17.22-.202.374c-.034-.118-.106-.238-.218-.35s-.232-.184-.36-.216l.008-.002zm-7.248 10.152c.125-.033.238-.1.34-.202s.17-.223.202-.364a.77.77 0 0 0 .602.568c-.32.048-.52.248-.6.6-.032-.144-.1-.272-.204-.384s-.22-.184-.348-.216l.008-.002zm0-7.248c.125-.033.238-.1.34-.202s.17-.223.202-.364a.77.77 0 0 0 .602.568c-.32.048-.52.248-.6.6-.032-.144-.1-.272-.204-.384s-.22-.184-.348-.216l.008-.002zm0-1.44a.71.71 0 0 0 .34-.214c.102-.1.17-.235.202-.375.082.31.282.51.602.59-.144.032-.272.092-.384.18s-.18.214-.214.384c-.034-.133-.102-.257-.206-.36s-.22-.172-.348-.204l.007-.002zm0 7.248a.71.71 0 0 0 .34-.214c.102-.1.17-.235.202-.375.082.31.282.51.602.59-.32.048-.52.24-.6.576-.032-.144-.1-.268-.204-.372s-.22-.172-.348-.204l.007-.002zm2.88-11.616a.78.78 0 0 0 .352-.214c.1-.1.18-.235.214-.375a.77.77 0 0 0 .578.591c-.304.048-.496.24-.576.576-.032-.128-.104-.248-.216-.36s-.232-.184-.36-.216l.008-.002zm0 7.272a.78.78 0 0 0 .352-.214c.1-.1.18-.235.214-.375a.77.77 0 0 0 .578.591c-.304.048-.496.24-.576.576-.032-.128-.104-.248-.216-.36s-.232-.184-.36-.216l.008-.002zm-2.88-7.272a.71.71 0 0 0 .34-.214c.102-.1.17-.235.202-.375.082.31.282.51.602.59-.32.048-.52.24-.6.576a.82.82 0 0 0-.204-.36c-.104-.112-.22-.184-.348-.216l.008-.002zm0 7.272a.71.71 0 0 0 .34-.214c.102-.1.17-.235.202-.375.082.31.282.51.602.59-.32.048-.52.24-.6.576a.82.82 0 0 0-.204-.36c-.104-.112-.22-.184-.348-.216l.008-.002zM92.7 22.534c.125-.033.242-.1.352-.202s.18-.223.214-.364c.082.296.274.488.578.568-.304.064-.496.264-.576.6-.032-.144-.104-.272-.216-.384s-.232-.184-.36-.216l.008-.002zm0-7.248c.125-.033.242-.1.352-.202s.18-.223.214-.364c.082.296.274.488.578.568-.304.064-.496.264-.576.6-.032-.144-.104-.272-.216-.384s-.232-.184-.36-.216l.008-.002zm5.807-5.808a.71.71 0 0 0 .34-.214c.102-.1.17-.235.202-.375.082.31.282.51.602.59-.32.048-.52.24-.6.576a.82.82 0 0 0-.204-.36c-.104-.112-.22-.184-.348-.216l.008-.002zm0 7.272a.71.71 0 0 0 .34-.214c.102-.1.17-.235.202-.375.082.31.282.51.602.59-.32.048-.52.24-.6.576a.82.82 0 0 0-.204-.36c-.104-.112-.22-.184-.348-.216l.008-.002zM92.7 13.846a.78.78 0 0 0 .352-.214c.1-.1.18-.235.214-.375a.77.77 0 0 0 .578.591c-.128.032-.248.092-.36.18s-.18.214-.214.384c-.034-.132-.106-.256-.218-.36a.82.82 0 0 0-.36-.204l.008-.002zm1.464-1.464a.71.71 0 0 0 .34-.214c.102-.1.17-.227.202-.352a.77.77 0 0 0 .602.568c-.32.048-.52.248-.6.6-.032-.144-.1-.272-.204-.384s-.22-.184-.348-.216l.008-.002zm0 7.248a.71.71 0 0 0 .34-.214c.102-.1.17-.227.202-.352a.77.77 0 0 0 .602.568c-.32.048-.52.248-.6.6-.032-.144-.1-.272-.204-.384s-.22-.184-.348-.216l.008-.002zM92.7 21.094a.78.78 0 0 0 .352-.214c.1-.1.18-.235.214-.375a.77.77 0 0 0 .578.591c-.304.064-.496.256-.576.576-.032-.144-.104-.268-.216-.372a.82.82 0 0 0-.36-.204l.008-.002zm0-1.464a.78.78 0 0 0 .352-.214.78.78 0 0 0 .214-.353c.082.297.274.49.578.57-.304.064-.496.264-.576.6-.032-.144-.104-.272-.216-.384s-.232-.184-.36-.216l.008-.002zm0-7.248a.78.78 0 0 0 .352-.214.78.78 0 0 0 .214-.353c.082.297.274.49.578.57-.304.064-.496.264-.576.6-.032-.144-.104-.272-.216-.384s-.232-.184-.36-.216l.008-.002zm7.248-2.904a.78.78 0 0 0 .352-.214c.1-.1.18-.235.214-.375a.77.77 0 0 0 .578.591c-.304.064-.496.256-.576.576-.032-.128-.104-.248-.216-.36s-.232-.184-.36-.216l.008-.002zm0 7.272a.78.78 0 0 0 .352-.214c.1-.1.18-.235.214-.375a.77.77 0 0 0 .578.591c-.304.064-.496.256-.576.576-.032-.128-.104-.248-.216-.36s-.232-.184-.36-.216l.008-.002zm-7.248 0a.78.78 0 0 0 .352-.214c.1-.1.18-.235.214-.375a.77.77 0 0 0 .578.591c-.304.064-.496.256-.576.576-.032-.128-.104-.248-.216-.36s-.232-.184-.36-.216l.008-.002zm8.392-1.462c-.304.064-.496.264-.576.6-.032-.176-.116-.324-.252-.444s-.284-.18-.444-.18c-.176 0-.34.056-.492.168s-.244.264-.276.456c-.032-.176-.112-.324-.24-.444s-.28-.18-.456-.18-.336.056-.48.168-.232.256-.264.432c-.048-.176-.14-.32-.276-.432s-.284-.168-.444-.168a.75.75 0 0 0-.468.156c-.136.104-.22.244-.252.42-.112-.32-.296-.504-.552-.552.144-.032.276-.116.396-.252s.18-.292.18-.468-.06-.332-.18-.468-.246-.216-.386-.25a.76.76 0 0 0 .386-.266.73.73 0 0 0 .18-.48c0-.176-.06-.332-.18-.468s-.246-.216-.386-.25a.76.76 0 0 0 .386-.266c.12-.144.18-.296.18-.456a.73.73 0 0 0-.18-.48.73.73 0 0 0-.387-.262.84.84 0 0 0 .339-.194c.102-.094.17-.203.202-.327.034.15.118.28.254.375a.79.79 0 0 0 .468.144.75.75 0 0 0 .468-.156c.136-.104.22-.244.252-.42a.64.64 0 0 0 .264.42.8.8 0 0 0 .48.156.7.7 0 0 0 .456-.156c.125-.1.204-.237.237-.406.035.162.127.302.28.406s.316.156.492.156c.16 0 .308-.052.444-.156s.22-.244.252-.42c.032.144.1.268.204.372s.214.17.34.202a.65.65 0 0 0-.387.266.8.8 0 0 0-.156.48.73.73 0 0 0 .168.456.68.68 0 0 0 .397.262.72.72 0 0 0-.397.254c-.112.136-.168.292-.168.468s.056.336.168.48a.68.68 0 0 0 .397.262c-.15.034-.285.114-.397.242s-.168.288-.168.48c0 .176.056.332.168.468s.242.216.397.25l.01.002zm3.216-4.368c.144-.032.276-.116.396-.252s.18-.292.18-.468c0-.192-.076-.364-.228-.516s-.324-.228-.516-.228a.79.79 0 0 0-.468.144.61.61 0 0 0-.252.408c-.112-.304-.296-.48-.552-.528.144-.032.276-.12.396-.264s.18-.296.18-.456c0-.208-.076-.388-.228-.54s-.316-.228-.492-.228-.336.056-.48.168a.7.7 0 0 0-.264.456c-.032-.176-.116-.324-.252-.444s-.292-.18-.468-.18-.336.056-.48.168a.7.7 0 0 0-.264.456c-.032-.176-.116-.324-.252-.444s-.284-.18-.444-.18c-.176 0-.34.056-.492.168a.67.67 0 0 0-.276.432.86.86 0 0 0-.264-.432.64.64 0 0 0-.432-.168c-.176 0-.336.056-.48.168a.7.7 0 0 0-.264.456c-.032-.176-.116-.324-.252-.444s-.292-.18-.468-.18a.75.75 0 0 0-.468.156c-.136.104-.22.244-.252.42-.048-.176-.14-.316-.276-.42s-.276-.156-.42-.156c-.176 0-.34.056-.492.168s-.244.264-.276.456c-.032-.176-.112-.324-.24-.444s-.28-.18-.456-.18c-.208 0-.384.072-.528.216s-.216.328-.216.552a.73.73 0 0 0 .168.456.68.68 0 0 0 .397.262.72.72 0 0 0-.565.578c-.032-.176-.116-.32-.252-.432s-.292-.168-.468-.168c-.192 0-.364.068-.516.204a.69.69 0 0 0-.228.54.75.75 0 0 0 .156.468c.104.136.244.22.42.252a.64.64 0 0 0-.42.264.8.8 0 0 0-.156.48.73.73 0 0 0 .168.456c.112.144.256.232.432.264-.176.032-.32.116-.432.252s-.168.292-.168.468a.8.8 0 0 0 .156.48.64.64 0 0 0 .42.264c-.176.032-.316.116-.42.252a.75.75 0 0 0-.156.468c0 .176.056.332.168.468s.256.22.432.252c-.176.032-.32.116-.432.252a.75.75 0 0 0-.168.492.73.73 0 0 0 .168.456c.112.144.256.232.432.264-.176.032-.32.116-.432.252s-.168.292-.168.468a.7.7 0 0 0 .156.456.79.79 0 0 0 .387.261.67.67 0 0 0-.387.255.75.75 0 0 0-.156.468c0 .176.056.332.168.468s.256.22.432.252c-.176.032-.32.116-.432.252s-.168.292-.168.468a.8.8 0 0 0 .156.48.64.64 0 0 0 .42.264c-.176.032-.316.116-.42.252a.75.75 0 0 0-.156.468c0 .176.056.332.168.468s.256.22.432.252c-.176.032-.32.116-.432.252a.75.75 0 0 0-.168.492c0 .176.076.34.228.492s.324.228.516.228c.176 0 .332-.056.468-.168s.216-.24.25-.396c.035.148.123.284.266.396s.304.168.48.168c.16 0 .308-.052.444-.156s.216-.23.25-.385a.64.64 0 0 0 .278.385c.152.104.316.156.492.156s.34-.076.492-.228.228-.316.228-.492a.73.73 0 0 0-.18-.48c-.117-.14-.246-.228-.386-.262a.78.78 0 0 0 .386-.254c.12-.136.18-.292.18-.468s-.06-.332-.18-.468-.246-.216-.386-.25a.76.76 0 0 0 .386-.266.73.73 0 0 0 .18-.48c0-.176-.06-.332-.18-.468s-.246-.216-.386-.25c.134-.034.266-.118.386-.254s.18-.292.18-.468-.056-.332-.168-.468a.7.7 0 0 0-.354-.251c.25-.08.418-.257.498-.53.032.16.116.292.252.396a.75.75 0 0 0 .468.156c.176 0 .332-.056.468-.168s.22-.256.252-.432c.032.176.12.32.264.432s.304.168.48.168c.16 0 .304-.052.432-.156s.216-.244.264-.42a.63.63 0 0 0 .276.42c.152.104.316.156.492.156.16 0 .308-.056.444-.168s.22-.256.252-.432c.08.304.256.496.528.576a.64.64 0 0 0-.372.252.75.75 0 0 0-.156.468c0 .176.056.332.168.468s.24.216.396.25c-.148.035-.284.12-.396.254s-.168.292-.168.468.056.336.168.48a.68.68 0 0 0 .397.262c-.15.034-.285.114-.397.242s-.168.288-.168.48c0 .176.056.332.168.468s.24.216.396.25c-.148.035-.284.12-.396.254a.75.75 0 0 0-.168.492c0 .176.076.34.228.492s.324.228.516.228c.176 0 .332-.056.468-.168s.216-.24.25-.396c.035.148.123.284.266.396s.304.168.48.168c.16 0 .304-.052.432-.156s.213-.224.262-.365c.035.137.12.26.254.365a.75.75 0 0 0 .468.156c.192 0 .364-.076.516-.228s.228-.316.228-.492a.73.73 0 0 0-.18-.48c-.12-.144-.26-.232-.42-.264.16-.032.3-.116.42-.252s.18-.292.18-.468-.06-.328-.18-.456-.247-.213-.388-.26a.76.76 0 0 0 .388-.267.73.73 0 0 0 .18-.48c0-.176-.06-.332-.18-.468a.75.75 0 0 0-.408-.249c.148-.035.288-.12.408-.255s.18-.292.18-.468-.056-.332-.168-.468-.236-.218-.378-.25a.91.91 0 0 0 .378-.265.67.67 0 0 0 .168-.456c0-.176-.06-.332-.18-.468a.75.75 0 0 0-.408-.249c.148-.035.288-.123.408-.267s.18-.296.18-.456a.73.73 0 0 0-.18-.48c-.12-.144-.26-.232-.42-.264.16-.032.3-.116.42-.252s.18-.292.18-.468-.06-.328-.18-.456-.247-.213-.388-.26a.76.76 0 0 0 .388-.267.73.73 0 0 0 .18-.48c0-.176-.06-.332-.18-.468a.75.75 0 0 0-.408-.249c.148-.035.288-.123.408-.267s.18-.296.18-.456c0-.176-.06-.332-.18-.468s-.247-.225-.388-.273l-.008-.003zm1.032-.504c.256 0 .484.1.684.3s.3.428.3.684c0 .32-.112.568-.336.744a.91.91 0 0 1 .336.72.74.74 0 0 1-.108.36c-.072.128-.148.24-.228.336.224.192.336.44.336.744a.91.91 0 0 1-.36.744 1.62 1.62 0 0 1 .24.324.78.78 0 0 1 .12.396.91.91 0 0 1-.336.72c.224.224.336.472.336.744a.74.74 0 0 1-.108.36c-.072.128-.148.24-.228.336.224.192.336.44.336.744 0 .256-.104.488-.312.696.208.192.312.44.312.744a.91.91 0 0 1-.336.72.91.91 0 0 1 .336.72.91.91 0 0 1-.36.744 1.62 1.62 0 0 1 .24.324.78.78 0 0 1 .12.396.91.91 0 0 1-.336.72c.224.224.336.472.336.744 0 .24-.1.46-.3.66s-.428.3-.684.3a.85.85 0 0 1-.384-.096c-.128-.064-.24-.136-.336-.216-.176.208-.408.312-.696.312a.9.9 0 0 1-.408-.096c-.128-.064-.24-.136-.336-.216a.94.94 0 0 1-.72.312c-.256 0-.484-.1-.684-.3s-.3-.42-.3-.66c0-.128.008-.216.024-.264-.032 0-.072.004-.12.012s-.088.012-.12.012c-.256 0-.484-.1-.684-.3s-.3-.42-.3-.66c0-.144.032-.284.096-.42a1.14 1.14 0 0 1 .216-.324.94.94 0 0 1-.312-.72c0-.336.104-.584.312-.744-.08-.096-.152-.208-.216-.336a.85.85 0 0 1-.096-.384c0-.336.104-.584.312-.744l-.072-.072c-.128-.064-.216-.128-.264-.192a1.19 1.19 0 0 1-.312.216.85.85 0 0 1-.384.096c-.272 0-.52-.112-.744-.336a1.28 1.28 0 0 1-.336.24.85.85 0 0 1-.384.096.91.91 0 0 1-.72-.336l-.048.048c.208.208.312.456.312.744 0 .256-.112.496-.336.72.224.224.336.464.336.72 0 .128-.036.256-.108.384s-.148.24-.228.336c.224.192.336.44.336.744 0 .256-.112.496-.336.72.224.224.336.472.336.744 0 .24-.1.46-.3.66s-.42.3-.66.3c-.304 0-.56-.104-.768-.312-.096.08-.204.152-.324.216a.78.78 0 0 1-.372.096c-.304 0-.552-.104-.744-.312a.94.94 0 0 1-.72.312c-.256 0-.484-.1-.684-.3s-.3-.42-.3-.66c0-.128.008-.216.024-.264-.032 0-.072.004-.12.012s-.088.012-.12.012c-.256 0-.484-.1-.684-.3s-.3-.42-.3-.66a.9.9 0 0 1 .096-.408 1.28 1.28 0 0 1 .24-.336 1.28 1.28 0 0 1-.24-.336.85.85 0 0 1-.096-.384c0-.144.032-.284.096-.42a1.14 1.14 0 0 1 .216-.324c-.08-.096-.152-.208-.216-.336a.85.85 0 0 1-.096-.384.91.91 0 0 1 .336-.72c-.224-.224-.336-.464-.336-.72 0-.32.104-.568.312-.744-.208-.208-.312-.44-.312-.696a.91.91 0 0 1 .336-.72.91.91 0 0 1-.336-.72.9.9 0 0 1 .096-.408 1.28 1.28 0 0 1 .24-.336c-.224-.224-.336-.464-.336-.72 0-.144.032-.284.096-.42a1.14 1.14 0 0 1 .216-.324c-.08-.096-.152-.208-.216-.336a.85.85 0 0 1-.096-.384.91.91 0 0 1 .336-.72.91.91 0 0 1-.336-.72c0-.304.104-.552.312-.744-.208-.208-.312-.448-.312-.72 0-.288.1-.524.3-.708s.428-.276.684-.276c.272 0 .504.104.696.312.048-.048.08-.072.096-.072-.08-.096-.152-.204-.216-.324a.78.78 0 0 1-.096-.372c0-.304.096-.548.288-.732a.97.97 0 0 1 .696-.276c.24 0 .472.112.696.336a.96.96 0 0 1 .768-.336c.256 0 .48.104.672.312.208-.208.456-.312.744-.312a.94.94 0 0 1 .72.312c.208-.208.456-.312.744-.312s.52.104.696.312c.192-.208.448-.312.768-.312.272 0 .504.104.696.312.208-.208.456-.312.744-.312a.78.78 0 0 1 .372.096c.12.064.228.136.324.216a1.53 1.53 0 0 1 .36-.216c.144-.064.28-.096.408-.096.24 0 .46.1.66.3s.3.436.3.708c0 .032-.004.072-.012.12s-.012.088-.012.12a.84.84 0 0 1 .264-.048c.32 0 .584.16.792.48.272.224.408.48.408.768 0 .048-.004.092-.012.132s-.012.076-.012.108c.032 0 .068-.004.108-.012s.084-.012.132-.012zm-5.52 4.608c.272 0 .504.104.696.312l.024-.048c.016 0 .032-.008.048-.024-.208-.192-.312-.424-.312-.696 0-.336.104-.584.312-.744-.08-.096-.152-.208-.216-.336a.85.85 0 0 1-.096-.384c0-.336.104-.584.312-.744-.064-.064-.104-.112-.12-.144-.096-.064-.16-.12-.192-.168a1.14 1.14 0 0 1-.324.216c-.136.064-.268.096-.396.096a.9.9 0 0 1-.408-.096c-.128-.064-.24-.136-.336-.216-.096.08-.208.152-.336.216a.85.85 0 0 1-.384.096c-.256 0-.496-.096-.72-.288-.016.016-.032.024-.048.024l-.024.024a1.28 1.28 0 0 1 .24.336.9.9 0 0 1 .096.408c0 .304-.112.544-.336.72a1.36 1.36 0 0 1 .24.324.83.83 0 0 1 .096.396c0 .128-.036.256-.108.384s-.148.24-.228.336a.9.9 0 0 1 .084.096.9.9 0 0 0 .084.096c.032.032.056.052.072.06s.04.028.072.06c.096-.08.212-.152.348-.216s.268-.096.396-.096a.85.85 0 0 1 .384.096 1.19 1.19 0 0 1 .312.216c.208-.208.464-.312.768-.312zm11.496 3.168c.304.08.472.272.504.576.08-.336.264-.528.552-.576a.75.75 0 0 1-.552-.576c-.032.304-.2.496-.504.576zm1.464 0a.61.61 0 0 1 .324.204.85.85 0 0 1 .18.372c.08-.336.264-.528.552-.576a.75.75 0 0 1-.552-.576c-.034.133-.094.25-.18.36s-.192.18-.317.214l-.007.002zm1.392 4.344c.272.048.464.232.576.552.08-.32.264-.504.552-.552a.74.74 0 0 1-.552-.528c-.08.272-.272.448-.576.528zm-2.35-12.177c.033.138.1.257.2.357s.223.17.364.202a.77.77 0 0 0-.568.602c-.016-.128-.076-.252-.18-.372s-.216-.193-.34-.226a.78.78 0 0 0 .341-.206c.104-.104.164-.228.18-.372l.004.015zm-.555 4.93c.128.032.248.104.36.216a.63.63 0 0 1 .192.384c.08-.352.28-.552.6-.6-.32-.08-.52-.272-.6-.576a.59.59 0 0 1-.192.372c-.1.102-.227.17-.352.202l-.008.002zm0 7.248c.128.032.248.104.36.216a.63.63 0 0 1 .192.384c.08-.352.28-.552.6-.6-.32-.08-.52-.272-.6-.576a.59.59 0 0 1-.192.372c-.1.102-.227.17-.352.202l-.008.002zm7.248 0c.128.032.248.104.36.216s.184.24.216.384c.035-.182.102-.314.204-.408a.79.79 0 0 1 .372-.192.8.8 0 0 1-.372-.192c-.104-.096-.172-.216-.204-.36-.035.15-.106.266-.216.36a.88.88 0 0 1-.351.19l-.01.002zm-7.248-8.688a.82.82 0 0 1 .36.204c.112.104.176.228.192.372a.63.63 0 0 1 .216-.396c.112-.088.24-.148.384-.18a.77.77 0 0 1-.6-.6.64.64 0 0 1-.192.384.78.78 0 0 1-.352.214l-.008.002zm0 7.248a.82.82 0 0 1 .36.204c.112.104.176.228.192.372.08-.336.28-.528.6-.576a.77.77 0 0 1-.6-.6.64.64 0 0 1-.192.384.78.78 0 0 1-.352.214l-.008.002zm2.018-10.742c.033.14.1.26.202.362s.223.17.364.202a.77.77 0 0 0-.568.602c-.032-.128-.1-.252-.204-.372s-.21-.194-.32-.226c.107-.034.215-.102.32-.206s.172-.228.204-.372l.002.01zm-2.018 6.398c.128.032.248.104.36.216s.176.232.192.36c.08-.336.28-.528.6-.576a.77.77 0 0 1-.6-.6.64.64 0 0 1-.192.384.78.78 0 0 1-.352.214l-.008.002zm0-7.272c.128.032.248.104.36.216s.176.232.192.36c.08-.336.28-.528.6-.576a.77.77 0 0 1-.6-.6.64.64 0 0 1-.192.384.78.78 0 0 1-.352.214l-.008.002zm0 2.904c.128.032.248.104.36.216a.63.63 0 0 1 .192.384c.08-.352.28-.552.6-.6-.32-.08-.52-.272-.6-.576-.02.134-.083.25-.192.36a.78.78 0 0 1-.352.214l-.008.002zm0 7.248c.128.032.248.104.36.216a.63.63 0 0 1 .192.384c.08-.352.28-.552.6-.6-.32-.08-.52-.272-.6-.576-.02.134-.083.25-.192.36a.78.78 0 0 1-.352.214l-.008.002zm4.344 2.904c.128.032.244.104.348.216s.172.24.204.384c.08-.352.28-.552.6-.6-.32-.08-.52-.272-.6-.576a.75.75 0 0 1-.204.372c-.102.102-.215.17-.34.202l-.008.002zm-2.88-7.248c.128.032.244.104.348.216s.172.24.204.384c.08-.352.28-.552.6-.6-.32-.08-.52-.272-.6-.576a.75.75 0 0 1-.204.372c-.102.102-.215.17-.34.202l-.008.002zm0 7.248c.128.032.244.104.348.216s.172.24.204.384c.08-.352.28-.552.6-.6-.32-.08-.52-.272-.6-.576a.75.75 0 0 1-.204.372c-.102.102-.215.17-.34.202l-.008.002zm4.32 0c.128.032.248.104.36.216s.184.24.216.384c.08-.336.272-.536.576-.6-.304-.08-.496-.272-.576-.576-.035.15-.106.27-.216.372s-.227.17-.352.202l-.008.002zm-4.32-8.688c.128.032.244.1.348.204s.172.228.204.372c.035-.182.106-.3.216-.396s.24-.148.384-.18a.77.77 0 0 1-.6-.6c-.035.15-.102.274-.204.384a.71.71 0 0 1-.34.214l-.007.002zm0 7.248c.128.032.244.1.348.204s.172.228.204.372c.08-.336.28-.528.6-.576a.77.77 0 0 1-.6-.6c-.035.15-.102.274-.204.384a.71.71 0 0 1-.34.214l-.007.002zm0-4.344c.128.032.244.104.348.216a.82.82 0 0 1 .204.36c.08-.336.28-.528.6-.576a.77.77 0 0 1-.6-.6c-.035.15-.102.274-.204.384a.71.71 0 0 1-.34.214l-.008.002zm0-7.272c.128.032.244.104.348.216a.82.82 0 0 1 .204.36c.08-.336.28-.528.6-.576a.77.77 0 0 1-.6-.6c-.035.15-.102.274-.204.384a.71.71 0 0 1-.34.214l-.008.002zm0 2.904c.128.032.244.104.348.216s.172.24.204.384c.08-.352.28-.552.6-.6-.32-.08-.52-.272-.6-.576a.83.83 0 0 1-.204.36.71.71 0 0 1-.34.214l-.008.002zm0 7.248c.128.032.244.104.348.216s.172.24.204.384c.08-.352.28-.552.6-.6-.32-.08-.52-.272-.6-.576a.83.83 0 0 1-.204.36.71.71 0 0 1-.34.214l-.008.002zm8.304 2.4c.24 0 .46.096.66.288a.93.93 0 0 1 .3.696c0 .256-.112.496-.336.72.224.224.336.472.336.744 0 .24-.1.46-.3.66s-.42.3-.66.3a.9.9 0 0 1-.408-.096c-.128-.064-.24-.136-.336-.216a.94.94 0 0 1-.72.312c-.128 0-.26-.036-.396-.108s-.252-.148-.348-.228c-.192.224-.424.336-.696.336a.96.96 0 0 1-.768-.336.84.84 0 0 1-.696.336c-.304 0-.544-.112-.72-.336a.91.91 0 0 1-.72.336c-.128 0-.26-.036-.396-.108s-.252-.148-.348-.228c-.192.224-.424.336-.696.336-.304 0-.56-.104-.768-.312-.096.08-.204.152-.324.216a.78.78 0 0 1-.372.096c-.256 0-.484-.1-.684-.3s-.3-.42-.3-.66a1.28 1.28 0 0 1 .024-.288.79.79 0 0 1-.24.048c-.256 0-.484-.1-.684-.3s-.3-.42-.3-.66c0-.144.032-.284.096-.42a1.14 1.14 0 0 1 .216-.324.94.94 0 0 1-.312-.72c0-.336.104-.584.312-.744-.08-.096-.152-.208-.216-.336a.85.85 0 0 1-.096-.384c0-.336.104-.584.312-.744-.208-.192-.312-.424-.312-.696 0-.32.104-.56.312-.72-.208-.176-.312-.416-.312-.72 0-.336.104-.584.312-.744-.08-.096-.152-.204-.216-.324a.78.78 0 0 1-.096-.372c0-.144.032-.284.096-.42a1.14 1.14 0 0 1 .216-.324.94.94 0 0 1-.312-.72c0-.336.104-.584.312-.744-.08-.096-.152-.208-.216-.336a.85.85 0 0 1-.096-.384c0-.336.104-.584.312-.744-.08-.096-.152-.204-.216-.324a.78.78 0 0 1-.096-.372c0-.304.096-.552.288-.744-.192-.224-.288-.464-.288-.72 0-.336.104-.584.312-.744-.08-.096-.152-.204-.216-.324a.78.78 0 0 1-.096-.372c0-.304.1-.548.3-.732s.428-.276.684-.276c.24 0 .472.112.696.336a.96.96 0 0 1 .768-.336c.272 0 .504.104.696.312.208-.208.456-.312.744-.312.256 0 .484.1.684.3s.3.436.3.708c0 .032-.016.112-.048.24a.84.84 0 0 1 .264-.048c.256 0 .484.1.684.3s.3.436.3.708a.74.74 0 0 1-.108.36c-.072.128-.148.24-.228.336.224.176.336.424.336.744s-.112.568-.336.744a.91.91 0 0 1 .336.72.74.74 0 0 1-.108.36c-.072.128-.148.24-.228.336.224.192.336.44.336.744a.91.91 0 0 1-.36.744 1.62 1.62 0 0 1 .24.324.78.78 0 0 1 .12.396.91.91 0 0 1-.336.72 1.28 1.28 0 0 1 .24.336.9.9 0 0 1 .096.408.74.74 0 0 1-.108.36c-.072.128-.148.24-.228.336.224.192.336.44.336.744 0 .256-.104.488-.312.696.208.192.312.44.312.744a.91.91 0 0 1-.336.72c.096.096.16.168.192.216l.096.096c.192-.208.448-.312.768-.312.272 0 .504.104.696.312.192-.208.44-.312.744-.312a.85.85 0 0 1 .384.096 1.28 1.28 0 0 1 .336.24c.176-.224.424-.336.744-.336.24 0 .46.096.66.288a.93.93 0 0 1 .3.696.79.79 0 0 1-.048.24 1.28 1.28 0 0 1 .288-.024z" fill="#fff" fill-rule="evenodd"/></svg>