<?xml version="1.0" encoding="UTF-8"?>
<svg width="138px" height="32px" viewBox="0 0 138 32" version="1.1" xmlns="http://www.w3.org/2000/svg" xmlns:xlink="http://www.w3.org/1999/xlink">
    <!-- Generator: Sketch 52.6 (67491) - http://www.bohemiancoding.com/sketch -->
    <title>Artboard</title>
    <desc>Created with Sketch.</desc>
    <g id="Artboard" stroke="none" stroke-width="1" fill="none" fill-rule="evenodd">
        <g id="analogue" transform="translate(5.000000, 2.000000)" fill="#FFFFFF">
            <path d="M18.1353934,21 L11.1693934,21 C11.5473953,20.4599973 11.7363934,19.8750031 11.7363934,19.245 C11.7363934,18.9029983 11.6643941,18.4620027 11.5203934,17.922 C11.448393,17.723999 11.3808937,17.5170011 11.3178934,17.301 C11.2548931,17.0849989 11.1873937,16.8690011 11.1153934,16.653 C10.5573906,17.1570025 9.7473987,17.409 8.68539339,17.409 C8.45139222,17.409 8.00139672,17.3280008 7.33539339,17.166 C6.65138997,17.0039992 6.20139447,16.923 5.98539339,16.923 C4.99538844,16.923 4.50039339,17.5349939 4.50039339,18.759 C4.50039339,19.4250033 4.63539204,19.8929986 4.90539339,20.163 C5.04939411,20.3070007 5.18889271,20.4419994 5.32389339,20.568 C5.45889406,20.6940006 5.59839267,20.8289993 5.74239339,20.973 L1.04439339,20.973 C1.94439789,20.2889966 2.51139222,19.5690038 2.74539339,18.813 C3.267396,17.0849914 3.94238925,14.925013 4.77039339,12.333 C5.59839753,9.74098704 6.59738754,6.68101764 7.76739339,3.153 L12.2223934,3.153 L16.7853934,18.462 C17.1633953,19.6860061 17.6133908,20.5319977 18.1353934,21 Z M10.5483934,14.547 L8.19939339,6.177 L6.22839339,12.09 C6.10239276,12.486002 5.94489433,12.9629972 5.75589339,13.521 C5.56689244,14.0790028 5.33739474,14.7359962 5.06739339,15.492 C5.75139681,15.1499983 6.32739105,14.979 6.79539339,14.979 C6.97539429,15.0510004 7.40738997,15.1499994 8.09139339,15.276 C8.77539681,15.4020006 9.23439222,15.465 9.46839339,15.465 C10.0803964,15.465 10.4313929,15.2490022 10.5213934,14.817 C10.5573936,14.6549992 10.5663935,14.5650001 10.5483934,14.547 Z M34.1268615,21 L31.2378615,21 C30.6078584,20.9819999 30.049864,20.973 29.5638615,20.973 L28.3758615,20.973 C28.861864,20.3069967 29.1048615,19.0650091 29.1048615,17.247 L29.1048615,15.924 C29.1048615,15.4019974 29.0958616,14.7810036 29.0778615,14.061 C29.0598614,13.3409964 29.0508615,12.7200026 29.0508615,12.198 L29.0508615,10.875 C29.0508615,10.4429978 28.9113629,10.0605017 28.6323615,9.7275 C28.3533601,9.39449833 27.9978637,9.228 27.5658615,9.228 C27.061859,9.228 26.6388632,9.39449833 26.2968615,9.7275 C25.9548598,10.0605017 25.7568618,10.4789975 25.7028615,10.983 L25.7028615,15.87 C25.6848614,16.5360033 25.6758615,17.1209975 25.6758615,17.625 L25.6758615,18.867 C25.6758615,19.7310043 25.8918594,20.4419972 26.3238615,21 L20.5458615,21 C20.9958638,20.4779974 21.2208615,19.7310049 21.2208615,18.759 L21.2208615,10.551 C21.2208615,9.81299631 21.0138636,8.85000594 20.5998615,7.662 L25.7298615,7.662 L25.7298615,8.877 C26.4678652,7.9769955 27.592854,7.527 29.1048615,7.527 C29.7708649,7.527 30.3738588,7.64399883 30.9138615,7.878 C31.4538642,8.11200117 31.9128596,8.43149797 32.2908615,8.8365 C32.6688634,9.24150202 32.9613605,9.73199712 33.1683615,10.308 C33.3753626,10.8840029 33.4788615,11.5049967 33.4788615,12.171 L33.4788615,17.031 C33.4608614,17.427002 33.4518615,17.7689986 33.4518615,18.057 L33.4518615,18.786 C33.4518615,19.6500043 33.6768593,20.3879969 34.1268615,21 Z M49.6053297,20.973 L44.7723297,20.973 L44.3943297,19.92 C43.2783241,20.8920049 42.0993359,21.378 40.8573297,21.378 C39.6513236,21.378 38.6343338,21.0450033 37.8063297,20.379 C36.8883251,19.6589964 36.4293297,18.7140058 36.4293297,17.544 C36.4293297,16.4819947 36.8073259,15.555004 37.5633297,14.763 C38.2473331,14.0789966 39.1293243,13.5660017 40.2093297,13.224 C40.9293333,12.9899988 41.5953266,12.7470013 42.2073297,12.495 C42.675332,12.296999 43.0308284,12.1485005 43.2738297,12.0495 L43.6383297,11.901 C44.1603323,11.5949985 44.4213297,11.1810026 44.4213297,10.659 C44.4213297,9.47099406 43.9533343,8.877 43.0173297,8.877 C42.2613259,8.877 41.8833297,9.18299694 41.8833297,9.795 C41.8833297,9.92100063 41.9283292,10.087499 42.0183297,10.2945 C42.1083301,10.501501 42.1533297,10.6679994 42.1533297,10.794 C42.1533297,11.0280012 41.8383328,11.2529989 41.2083297,11.469 C40.7223272,11.6490009 40.3083314,11.739 39.9663297,11.739 C39.0483251,11.739 38.3103325,11.2710047 37.7523297,10.335 C37.2663272,9.56099613 37.0233297,8.68800486 37.0233297,7.716 C37.0233297,7.57199928 37.0413295,7.5 37.0773297,7.5 C37.0953298,7.5 37.1538292,7.52249977 37.2528297,7.5675 C37.3518302,7.61250022 37.4553291,7.65749977 37.5633297,7.7025 C37.6713302,7.74750022 37.7838291,7.79249977 37.9008297,7.8375 C38.0178302,7.88250022 38.1213292,7.905 38.2113297,7.905 L38.5353297,7.905 C39.1653328,7.905 39.7143273,7.89600009 40.1823297,7.878 C40.650332,7.85999991 41.055328,7.83300018 41.3973297,7.797 C41.4873301,7.77899991 41.6043289,7.75650013 41.7483297,7.7295 C41.8923304,7.70249986 42.0813285,7.66200027 42.3153297,7.608 C42.7293317,7.51799955 43.0353287,7.473 43.2333297,7.473 C45.3573403,7.473 46.8333255,7.81499658 47.6613297,8.499 C48.5433341,9.25500378 48.9843297,10.6859895 48.9843297,12.792 L48.9843297,18.489 C48.9843297,19.0650029 49.1913276,19.8929946 49.6053297,20.973 Z M44.3403297,13.17 C43.602326,13.2600004 42.8733333,13.7729953 42.1533297,14.709 C41.4513262,15.6270046 41.1003297,16.4639962 41.1003297,17.22 C41.1003297,17.814003 41.2353283,18.308998 41.5053297,18.705 C41.8293313,19.1730023 42.261327,19.407 42.8013297,19.407 C43.071331,19.407 43.3863279,19.2450016 43.7463297,18.921 C44.1243316,18.5969984 44.3133297,18.3000013 44.3133297,18.03 L44.3133297,14.115 C44.3133297,13.8449986 44.3223296,13.5300018 44.3403297,13.17 Z M57.5237978,20.973 L51.7727978,21 C52.2228,20.3159966 52.4477978,19.578004 52.4477978,18.786 L52.4477978,5.637 C52.4477978,4.64699505 52.1868004,3.81000342 51.6647978,3.126 L56.8757978,3.126 C56.8397976,3.27000072 56.8217978,3.36899973 56.8217978,3.423 L56.8217978,18.786 C56.8217978,18.8580004 56.9207968,19.2089968 57.1187978,19.839 C57.2987987,20.433003 57.4337973,20.8109992 57.5237978,20.973 Z M72.8672659,14.223 C72.8672659,16.2570102 72.2372722,17.9579932 70.9772659,19.326 C69.6992595,20.6760067 68.052276,21.351 66.0362659,21.351 C64.056256,21.351 62.4362722,20.649007 61.1762659,19.245 C59.9522598,17.8769932 59.3402659,16.2030099 59.3402659,14.223 C59.3402659,12.3869908 59.9792595,10.8030067 61.2572659,9.471 C62.5532724,8.13899334 64.1282567,7.473 65.9822659,7.473 C67.8722754,7.473 69.4832593,8.12999343 70.8152659,9.444 C72.1832728,10.7580066 72.8672659,12.3509906 72.8672659,14.223 Z M68.1422659,12.9 C68.1422659,10.0199856 67.4222731,8.58 65.9822659,8.58 C64.6862595,8.58 64.0382659,10.4069817 64.0382659,14.061 L64.0382659,14.871 C64.0202658,15.0510009 64.0112659,15.2039994 64.0112659,15.33 L64.0112659,15.654 C64.0112659,18.7320154 64.7582585,20.271 66.2522659,20.271 C67.5302723,20.271 68.1692659,18.8760139 68.1692659,16.086 C68.1692659,15.9779995 68.164766,15.8385009 68.1557659,15.6675 C68.1467659,15.4964991 68.1422659,15.3210009 68.1422659,15.141 C68.1422659,14.942999 68.137766,14.7585009 68.1287659,14.5875 C68.1197659,14.4164991 68.1152659,14.2770005 68.1152659,14.169 L68.1152659,13.548 C68.133266,13.4039993 68.1422659,13.2870004 68.1422659,13.197 L68.1422659,12.9 Z M88.6697341,21.459 C88.6697341,22.6110058 88.0847399,23.5289966 86.9147341,24.213 C85.9607293,24.7710028 84.8537404,25.05 83.5937341,25.05 C82.6397293,25.05 81.370742,24.9150013 79.7867341,24.645 C78.5447279,24.4289989 77.9507338,24.321 78.0047341,24.321 C76.9427288,24.321 75.9707385,24.4649986 75.0887341,24.753 C75.0347338,24.6269994 75.0077341,24.4560011 75.0077341,24.24 C75.0077341,22.439991 76.0247239,21.54 78.0587341,21.54 C78.9407385,21.54 79.9037288,21.9089963 80.9477341,22.647 C81.9917393,23.3850037 82.7297319,23.754 83.1617341,23.754 C83.5037358,23.754 83.8007328,23.5740018 84.0527341,23.214 C84.2687351,22.9259986 84.3767341,22.584002 84.3767341,22.188 C84.3767341,22.0979995 84.1337365,21.2970076 83.6477341,19.785 C82.7297295,20.6490043 81.5867409,21.081 80.2187341,21.081 C77.8427222,21.081 76.2677379,19.7040138 75.4937341,16.95 C75.2957331,16.1939962 75.1967341,15.6990012 75.1967341,15.465 C75.1967341,15.3749995 75.205734,15.2850004 75.2237341,15.195 L75.2237341,14.358 C75.205734,14.2319994 75.1967341,14.1330004 75.1967341,14.061 L75.1967341,13.818 C75.1967341,13.421998 75.3227328,12.819004 75.5747341,12.009 C76.0067362,10.6589932 76.7357289,9.59250391 77.7617341,8.8095 C78.7877392,8.02649608 80.002727,7.635 81.4067341,7.635 L88.6427341,7.635 C88.2107319,8.5350045 87.9947341,9.24599739 87.9947341,9.768 L87.9947341,18.462 C87.9947341,18.7860016 88.102733,19.2809967 88.3187341,19.947 C88.5527352,20.5770031 88.6697341,21.0809981 88.6697341,21.459 Z M83.5667341,16.869 L83.5667341,9.174 C83.5667341,8.97599901 83.4677351,8.877 83.2697341,8.877 L82.1357341,8.877 C80.6597267,8.877 79.9217341,10.6229825 79.9217341,14.115 C79.9217341,17.4810168 80.5517278,19.164 81.8117341,19.164 C82.6577383,19.164 83.1977329,18.6420052 83.4317341,17.598 C83.5217345,17.201998 83.5667341,16.9590004 83.5667341,16.869 Z M96.1832022,5.043 C96.1832022,5.60100279 95.9807042,6.09599784 95.5757022,6.528 C95.1707002,6.96000216 94.689205,7.176 94.1312022,7.176 C93.5551993,7.176 93.0512044,6.96900207 92.6192022,6.555 C92.1872,6.14099793 91.9712022,5.64600288 91.9712022,5.07 C91.9712022,4.49399712 92.1602003,3.99000216 92.5382022,3.558 C92.9162041,3.12599784 93.3841994,2.91 93.9422022,2.91 C94.5722054,2.91 95.1032,3.11249797 95.5352022,3.5175 C95.9672044,3.92250202 96.1832022,4.43099694 96.1832022,5.043 Z M96.9392022,21 L91.3232022,21 C91.7732045,20.3159966 91.9982022,19.578004 91.9982022,18.786 L91.9982022,10.2 C91.9982022,9.98399892 91.8992032,9.56100315 91.7012022,8.931 C91.5212013,8.35499712 91.3592029,7.94100126 91.2152022,7.689 L96.4262022,7.689 C96.3722019,7.79700054 96.3452022,7.89599955 96.3452022,7.986 L96.3722022,18.786 C96.3722022,18.7319997 96.3992019,18.8669984 96.4532022,19.191 C96.5072025,19.5510018 96.6692009,20.1539958 96.9392022,21 Z M112.22867,17.193 C112.22867,18.5250067 111.607677,19.5779961 110.36567,20.352 C109.303665,21.0360034 108.070677,21.378 106.66667,21.378 C104.56066,21.378 102.850677,20.7480063 101.53667,19.488 C100.240664,18.2279937 99.5926703,16.5540104 99.5926703,14.466 C99.5926703,12.5039902 100.222664,10.8390068 101.48267,9.471 C102.760677,8.08499307 104.362661,7.392 106.28867,7.392 C106.828673,7.392 107.629665,7.49999892 108.69167,7.716 C109.231673,7.80600045 109.704168,7.87799973 110.10917,7.932 C110.514172,7.98600027 110.851669,8.013 111.12167,8.013 C111.373672,8.013 111.670669,7.91400099 112.01267,7.716 C112.102671,8.11200198 112.14767,8.38199928 112.14767,8.526 C112.14767,9.35400414 111.823674,10.0469972 111.17567,10.605 C110.545667,11.1810029 109.825674,11.469 109.01567,11.469 C108.277667,11.469 107.602673,11.2530022 106.99067,10.821 C107.350672,10.424998 107.53067,10.0920013 107.53067,9.822 C107.53067,9.53399856 107.409172,9.29100099 107.16617,9.093 C106.923169,8.89499901 106.648672,8.796 106.34267,8.796 C104.992664,8.796 104.31767,10.8659793 104.31767,15.006 C104.31767,16.3200066 104.515668,17.4089957 104.91167,18.273 C105.451673,19.479006 106.270665,20.082 107.36867,20.082 C108.214675,20.082 108.862668,19.7760031 109.31267,19.164 C109.708672,18.6419974 109.90667,17.9400044 109.90667,17.058 C109.90667,16.6799981 109.834671,16.3290016 109.69067,16.005 C109.65467,15.9509997 109.591671,15.8520007 109.50167,15.708 C109.41167,15.5639993 109.276671,15.3750012 109.09667,15.141 C109.474672,14.9249989 109.852668,14.817 110.23067,14.817 C110.860673,14.817 111.364668,15.0599976 111.74267,15.546 C112.066672,16.0140023 112.22867,16.5629968 112.22867,17.193 Z M127.896138,14.223 C127.896138,16.2570102 127.266145,17.9579932 126.006138,19.326 C124.728132,20.6760067 123.081149,21.351 121.065138,21.351 C119.085129,21.351 117.465145,20.649007 116.205138,19.245 C114.981132,17.8769932 114.369138,16.2030099 114.369138,14.223 C114.369138,12.3869908 115.008132,10.8030067 116.286138,9.471 C117.582145,8.13899334 119.157129,7.473 121.011138,7.473 C122.901148,7.473 124.512132,8.12999343 125.844138,9.444 C127.212145,10.7580066 127.896138,12.3509906 127.896138,14.223 Z M123.171138,12.9 C123.171138,10.0199856 122.451146,8.58 121.011138,8.58 C119.715132,8.58 119.067138,10.4069817 119.067138,14.061 L119.067138,14.871 C119.049138,15.0510009 119.040138,15.2039994 119.040138,15.33 L119.040138,15.654 C119.040138,18.7320154 119.787131,20.271 121.281138,20.271 C122.559145,20.271 123.198138,18.8760139 123.198138,16.086 C123.198138,15.9779995 123.193639,15.8385009 123.184638,15.6675 C123.175638,15.4964991 123.171138,15.3210009 123.171138,15.141 C123.171138,14.942999 123.166639,14.7585009 123.157638,14.5875 C123.148638,14.4164991 123.144138,14.2770005 123.144138,14.169 L123.144138,13.548 C123.162139,13.4039993 123.171138,13.2870004 123.171138,13.197 L123.171138,12.9 Z" id="2"></path>
        </g>
    </g>
</svg>