<?xml version="1.0" encoding="UTF-8"?>
<svg width="138px" height="32px" viewBox="0 0 138 32" version="1.1" xmlns="http://www.w3.org/2000/svg" xmlns:xlink="http://www.w3.org/1999/xlink">
    <!-- Generator: Sketch 52.6 (67491) - http://www.bohemiancoding.com/sketch -->
    <title>Artboard</title>
    <desc>Created with Sketch.</desc>
    <g id="Artboard" stroke="none" stroke-width="1" fill="none" fill-rule="evenodd">
        <g id="analogue" transform="translate(5.000000, 2.000000)" fill="#FFFFFF">
            <path d="M15.0588846,13.5 L12.7346658,5.51171875 L10.2932596,13.5 L15.0588846,13.5 Z M19.6682596,21 L17.2268533,21 C17.2073221,21 16.6213846,18.9492188 15.4299783,14.828125 L9.90263456,14.828125 L8.34013456,19.9453125 C8.26200956,20.1210938 8.12529081,20.3164062 7.94950956,20.5117188 C7.57841581,20.84375 7.20732206,21 6.85575956,21 L5.62529081,21 C8.88700956,10.2382812 10.5276346,4.7890625 10.5276346,4.6328125 C10.5276346,4.203125 10.2932596,3.91015625 9.80497831,3.75390625 C8.47685331,3.75390625 7.57841581,3.94921875 7.12919706,4.359375 C6.77763456,4.6328125 6.50419706,5.04296875 6.30888456,5.58984375 C6.19169706,5.9609375 6.13310331,6.25390625 6.13310331,6.44921875 L6.13310331,6.5078125 C6.26982206,6.21484375 6.56279081,5.9609375 7.01200956,5.78515625 C7.20732206,5.7265625 7.38310331,5.6875 7.51982206,5.6875 C7.96904081,5.6875 8.37919706,5.86328125 8.73075956,6.234375 C9.02372831,6.56640625 9.16044706,6.9375 9.16044706,7.328125 C9.16044706,7.73828125 9.02372831,8.08984375 8.73075956,8.421875 C8.39872831,8.75390625 7.98857206,8.9296875 7.51982206,8.9296875 C6.60185331,8.9296875 5.87919706,8.48046875 5.39091581,7.6015625 C5.13700956,7.07421875 5.00029081,6.48828125 5.00029081,5.8828125 C5.00029081,5.08203125 5.21513456,4.3203125 5.64482206,3.59765625 C6.52372831,2.171875 7.94950956,1.44921875 9.92216581,1.44921875 L15.0588846,1.4296875 C15.3127908,1.4296875 15.6252908,1.546875 15.9768533,1.76171875 C16.3870096,2.0546875 16.6604471,2.4453125 16.7971658,2.93359375 L20.8596658,17.015625 C21.2307596,18.2851562 21.4260721,19.046875 21.4260721,19.2617188 C21.4260721,19.8671875 21.1916971,20.3359375 20.7034158,20.6875 C20.3909158,20.9023438 20.0393533,21 19.6682596,21 Z M35.4411984,21 L33.0193234,21 C32.4919797,21 31.9841672,20.8242188 31.5154172,20.453125 C31.2615109,20.1992188 31.0661984,19.9648438 30.9294797,19.7304688 C30.7536984,19.3789062 30.6560422,18.96875 30.6560422,18.5 L30.6560422,11.0390625 C30.6560422,10.4726562 30.5388547,10.0039062 30.2849484,9.671875 C30.0896359,9.45703125 29.8552609,9.33984375 29.5622922,9.33984375 C29.2693234,9.33984375 28.9958859,9.45703125 28.7615109,9.671875 C28.4490109,9.96484375 28.2146359,10.296875 28.0388547,10.6289062 L28.0388547,21 L23.2341672,21 L23.2341672,7.328125 L25.6755734,7.328125 C26.1443234,7.328125 26.5935422,7.484375 27.0427609,7.77734375 C27.3943234,8.03125 27.6482297,8.32421875 27.7849484,8.65625 C27.9216672,8.91015625 27.9802609,9.0859375 27.9802609,9.203125 C29.0154172,7.953125 30.2068234,7.328125 31.5740109,7.328125 C32.2185422,7.328125 32.8630734,7.484375 33.4685422,7.796875 C34.1911984,8.20703125 34.7380734,8.7734375 35.0896359,9.53515625 C35.3240109,10.0234375 35.4411984,10.5898438 35.4411984,11.2148438 L35.4411984,21 Z M42.1516373,19.8476562 C42.522731,19.8476562 42.8938248,19.5742188 43.303981,19.0273438 C43.8313248,18.2460938 44.1047623,17.328125 44.1047623,16.2734375 L44.1047623,12.6796875 C43.928981,13.0703125 43.4797623,13.5 42.7375748,13.9882812 C42.4836685,14.1640625 42.2492935,14.3398438 42.053981,14.515625 C41.4680435,15.0625 41.1750748,15.8242188 41.1750748,16.8203125 L41.1750748,18.0703125 C41.1750748,18.6367188 41.2922623,19.1054688 41.5266373,19.4765625 C41.7024185,19.7304688 41.897731,19.8476562 42.1516373,19.8476562 Z M40.9211685,21.0585938 C40.0617935,21.0585938 39.2805435,20.765625 38.5969498,20.1601562 C37.7180435,19.3007812 37.288356,18.2460938 37.288356,17.015625 C37.288356,16.3710938 37.5031998,15.7460938 37.913356,15.1015625 C38.7531998,13.8710938 40.0813248,13.0898438 41.8586685,12.7578125 C43.1086685,12.4453125 43.8313248,11.8789062 44.0461685,11.078125 C44.085231,10.9414062 44.1047623,10.6875 44.1047623,10.3359375 C44.1047623,9.7890625 43.9485123,9.359375 43.6360123,9.06640625 C43.303981,8.7734375 42.8547623,8.6171875 42.2492935,8.6171875 C41.8391373,8.6171875 41.3899185,8.6953125 40.9016373,8.83203125 C41.272731,9.0078125 41.5656998,9.30078125 41.7805435,9.7109375 C41.9563248,10.0039062 42.053981,10.296875 42.053981,10.6289062 C42.053981,11.15625 41.8586685,11.6445312 41.4875748,12.0742188 C41.0188248,12.5625 40.491481,12.796875 39.8860123,12.796875 C39.397731,12.796875 38.9485123,12.640625 38.5578873,12.3085938 C38.069606,11.8789062 37.835231,11.3320312 37.835231,10.6679688 C37.835231,10.140625 37.991481,9.6328125 38.3235123,9.125 C38.772731,8.48046875 39.4172623,8.01171875 40.257106,7.71875 C40.9211685,7.46484375 41.8781998,7.328125 43.1281998,7.328125 C45.4328873,7.328125 47.0344498,7.9140625 47.913356,9.10546875 C48.5774185,9.9453125 48.9094498,11.1171875 48.9094498,12.5820312 L48.9094498,21 L46.507106,21 C45.9016373,21 45.3742935,20.7851562 44.8860123,20.3359375 C44.5930435,20.0429688 44.397731,19.75 44.2805435,19.4570312 C43.2063248,20.53125 42.0930435,21.0585938 40.9211685,21.0585938 Z M55.3073886,21 C54.3112949,21 53.4128574,20.6484375 52.6316074,19.9257812 C51.8308261,19.1445312 51.4402011,18.1875 51.4402011,17.0546875 L51.4402011,1.4296875 L53.8816074,1.4296875 C54.3698886,1.4296875 54.8386386,1.5859375 55.2878574,1.8984375 C55.9323886,2.38671875 56.2448886,3.05078125 56.2448886,3.9296875 L56.2448886,17.1914062 C56.2448886,17.7773438 56.3620761,18.2460938 56.5964511,18.578125 C56.7722324,18.8125 57.0261386,18.9296875 57.3386386,18.9296875 C58.0808261,18.9296875 58.7839511,18.0703125 59.4284824,16.3710938 L60.3269199,16.3710938 C59.8386386,17.71875 59.2331699,18.7929688 58.4714511,19.5742188 C57.4948886,20.53125 56.4402011,21 55.3073886,21 Z M66.1779837,19.5351562 C66.6467337,19.5351562 67.0764212,19.125 67.447515,18.3242188 C67.9357962,17.2890625 68.1897025,15.9023438 68.1897025,14.1640625 C68.1897025,12.7578125 68.0139212,11.5078125 67.6428275,10.4140625 C67.2326712,9.28125 66.74439,8.71484375 66.1779837,8.71484375 C65.4748587,8.71484375 64.9084525,9.515625 64.4982962,11.1367188 C64.2834525,12.0742188 64.166265,13.0898438 64.166265,14.1640625 C64.166265,15.4726562 64.322515,16.6640625 64.6545462,17.71875 C65.0647025,18.9296875 65.572515,19.5351562 66.1779837,19.5351562 Z M66.1584525,21 C64.4982962,21 63.0139212,20.4335938 61.666265,19.28125 C60.1232962,17.875 59.3615775,16.1757812 59.3615775,14.1640625 C59.3615775,12.8554688 59.71314,11.625 60.4357962,10.4726562 C61.0998587,9.41796875 62.0178275,8.59765625 63.1701712,8.01171875 C64.08814,7.5625 65.0842337,7.328125 66.1779837,7.328125 C67.0178275,7.328125 67.83814,7.484375 68.6584525,7.77734375 C70.0451712,8.34375 71.1584525,9.26171875 71.9592337,10.53125 C72.6428275,11.6640625 72.99439,12.875 72.99439,14.1640625 C72.99439,15.453125 72.6428275,16.6640625 71.9592337,17.796875 C71.11939,19.0859375 70.0061087,20.0039062 68.5998587,20.5507812 C67.8186087,20.84375 66.9982962,21 66.1584525,21 Z M80.4860788,16.8007812 C80.896235,16.8007812 81.2673288,16.4492188 81.59936,15.765625 C81.9704538,15.0234375 82.1657663,14.0273438 82.1657663,12.7578125 C82.1657663,11.6445312 81.989985,10.6484375 81.6384225,9.80859375 C81.3063913,9.0859375 80.9352975,8.734375 80.4860788,8.734375 C80.19311,8.734375 79.9001413,8.9296875 79.6267038,9.30078125 C79.0798288,10.0820312 78.8063913,11.234375 78.8063913,12.7578125 C78.8063913,13.9492188 79.0017038,14.984375 79.3923288,15.8242188 C79.72436,16.46875 80.0759225,16.8007812 80.4860788,16.8007812 Z M79.7438913,26.8789062 C78.552485,26.8789062 77.53686,26.6445312 76.677485,26.15625 C75.7009225,25.5507812 75.2126413,24.7304688 75.2126413,23.65625 C75.2126413,23.109375 75.34936,22.6210938 75.6423288,22.171875 C75.97436,21.7226562 76.4040475,21.4882812 76.91186,21.4882812 C77.4392038,21.4882812 77.8688913,21.6835938 78.239985,22.09375 C78.5134225,22.4257812 78.6501413,22.796875 78.6501413,23.2070312 C78.6501413,23.6171875 78.5134225,23.9882812 78.2204538,24.3203125 C77.8884225,24.671875 77.458735,24.8476562 76.9313913,24.8476562 L76.6384225,24.828125 C76.9704538,25.2382812 77.4977975,25.53125 78.2204538,25.6875 C78.6110788,25.7851562 78.9821725,25.84375 79.333735,25.84375 C80.2126413,25.84375 80.9548288,25.6679688 81.5798288,25.3359375 C82.1852975,25.0039062 82.4977975,24.5351562 82.4977975,23.9492188 C82.4977975,23.5 82.2438913,23.0507812 81.75561,22.6210938 C81.1696725,22.1328125 80.271235,21.7617188 79.0602975,21.4882812 C78.396235,21.3320312 77.8298288,21.15625 77.3610788,20.9609375 C76.0915475,20.4140625 75.4665475,19.6132812 75.4665475,18.578125 C75.4665475,18.03125 75.6227975,17.40625 75.9548288,16.6835938 C75.0173288,15.5898438 74.5485788,14.359375 74.5485788,13.0117188 C74.5485788,11.7421875 74.958735,10.5898438 75.7985788,9.53515625 C77.06811,8.0703125 78.63061,7.328125 80.4860788,7.328125 L81.0720163,7.3671875 C81.2282663,7.0546875 81.4626413,6.7421875 81.7946725,6.41015625 C82.4977975,5.765625 83.2985788,5.453125 84.1970163,5.453125 C84.802485,5.453125 85.3298288,5.62890625 85.7790475,5.9609375 C86.208735,6.29296875 86.4235788,6.7421875 86.4235788,7.30859375 C86.4235788,7.77734375 86.2282663,8.1484375 85.8376413,8.40234375 C85.6423288,8.51953125 85.427485,8.578125 85.2126413,8.578125 C84.8610788,8.578125 84.5485788,8.44140625 84.2751413,8.16796875 C84.0407663,7.89453125 83.9235788,7.6015625 83.9235788,7.2890625 C83.9235788,6.99609375 84.0407663,6.72265625 84.2751413,6.44921875 C84.3923288,6.33203125 84.489985,6.25390625 84.5485788,6.234375 C84.4509225,6.234375 84.25561,6.2734375 83.9821725,6.33203125 C83.63061,6.4296875 83.3571725,6.60546875 83.1813913,6.859375 C82.9665475,7.171875 82.8688913,7.484375 82.8688913,7.81640625 C83.7477975,8.1875 84.5095163,8.71484375 85.114985,9.4375 C85.9938913,10.53125 86.4235788,11.7226562 86.4235788,13.0117188 C86.4235788,14.3203125 85.97436,15.53125 85.0954538,16.6054688 C83.8454538,17.9921875 82.302485,18.6953125 80.4860788,18.6953125 C79.3142038,18.6953125 78.1813913,18.3632812 77.0876413,17.6796875 C77.0876413,18.0703125 77.4196725,18.3828125 78.083735,18.6367188 C78.6501413,18.8515625 79.6657663,19.0859375 81.1501413,19.3203125 C82.0485788,19.4570312 82.6735788,19.59375 83.0251413,19.7304688 C83.708735,19.9648438 84.2751413,20.2773438 84.7438913,20.6484375 C85.4665475,21.2929688 85.81811,21.9960938 85.81811,22.7578125 C85.81811,23.4023438 85.583735,24.0273438 85.1345163,24.6328125 C84.72436,25.1796875 84.177485,25.6289062 83.5329538,25.9804688 C82.4782663,26.5859375 81.208735,26.8789062 79.7438913,26.8789062 Z M90.6340176,6.234375 C90.0285489,6.234375 89.4816739,6.01953125 88.9933926,5.58984375 C88.4855801,5.08203125 88.2316739,4.49609375 88.2316739,3.8515625 C88.2316739,3.28515625 88.4269864,2.7578125 88.8176114,2.2890625 C89.3449551,1.72265625 89.9504239,1.44921875 90.6340176,1.44921875 C91.1613614,1.44921875 91.6496426,1.60546875 92.0988614,1.9375 C92.7238614,2.46484375 93.0363614,3.08984375 93.0363614,3.8515625 C93.0363614,4.41796875 92.8410489,4.92578125 92.4699551,5.375 C91.9426114,5.94140625 91.3371426,6.234375 90.6340176,6.234375 Z M92.0988614,21 C91.0246426,21 90.0676114,20.5898438 89.2668301,19.7890625 C88.5832364,19.046875 88.2316739,18.1679688 88.2316739,17.1523438 L88.2316739,7.328125 L90.6340176,7.328125 C91.2785489,7.328125 91.8644864,7.58203125 92.3722989,8.0703125 C92.5480801,8.28515625 92.6652676,8.4609375 92.7238614,8.55859375 C92.9387051,8.890625 93.0363614,9.3203125 93.0363614,9.828125 L93.0363614,17.171875 C93.0363614,18.3632812 93.4074551,18.9492188 94.1301114,18.9492188 C94.4621426,18.9492188 94.7941739,18.7734375 95.0871426,18.4414062 C95.5363614,17.953125 95.9074551,17.2695312 96.2199551,16.3710938 C96.8254239,16.3710938 97.1183926,16.3710938 97.1183926,16.390625 C96.7472989,17.484375 96.2394864,18.421875 95.5949551,19.2226562 C94.5988614,20.4140625 93.4269864,21 92.0988614,21 Z M103.281956,21 C102.09055,21 100.957738,20.7265625 99.8639877,20.1796875 C99.258519,19.8671875 98.6921127,19.4765625 98.1843002,18.9882812 C96.7780502,17.5820312 96.0749252,15.9804688 96.0749252,14.203125 C96.0749252,13.1289062 96.2702377,12.1328125 96.6413315,11.2539062 C97.2858627,9.75 98.4186752,8.63671875 100.020238,7.953125 C101.016331,7.54296875 102.071019,7.328125 103.145238,7.328125 C104.512425,7.328125 105.664769,7.640625 106.602269,8.28515625 C107.40305,8.8515625 107.813206,9.57421875 107.813206,10.4921875 C107.813206,11.1171875 107.598363,11.6445312 107.188206,12.0546875 C106.758519,12.484375 106.250706,12.6992188 105.664769,12.6992188 C105.098363,12.6992188 104.629613,12.484375 104.219456,12.0742188 C103.8093,11.6640625 103.594456,11.1757812 103.594456,10.6289062 C103.594456,10.2382812 103.731175,9.828125 104.024144,9.41796875 C104.258519,9.0859375 104.492894,8.890625 104.7468,8.79296875 C102.188206,9.10546875 100.918675,10.4140625 100.918675,12.6992188 L100.918675,13.9882812 C100.918675,15.453125 101.055394,16.546875 101.3093,17.2890625 C101.856175,18.7929688 102.988988,19.5351562 104.707738,19.5351562 C105.703831,19.5351562 106.660863,19.1640625 107.578831,18.421875 C108.223363,17.8554688 108.770238,17.171875 109.180394,16.3710938 C109.7468,16.3710938 110.020238,16.3710938 110.020238,16.390625 C109.258519,18.3242188 107.891331,19.6914062 105.957738,20.4921875 C105.078831,20.8242188 104.199925,21 103.281956,21 Z M116.203333,19.5351562 C116.672083,19.5351562 117.10177,19.125 117.472864,18.3242188 C117.961145,17.2890625 118.215052,15.9023438 118.215052,14.1640625 C118.215052,12.7578125 118.03927,11.5078125 117.668177,10.4140625 C117.25802,9.28125 116.769739,8.71484375 116.203333,8.71484375 C115.500208,8.71484375 114.933802,9.515625 114.523645,11.1367188 C114.308802,12.0742188 114.191614,13.0898438 114.191614,14.1640625 C114.191614,15.4726562 114.347864,16.6640625 114.679895,17.71875 C115.090052,18.9296875 115.597864,19.5351562 116.203333,19.5351562 Z M116.183802,21 C114.523645,21 113.03927,20.4335938 111.691614,19.28125 C110.148645,17.875 109.386927,16.1757812 109.386927,14.1640625 C109.386927,12.8554688 109.738489,11.625 110.461145,10.4726562 C111.125208,9.41796875 112.043177,8.59765625 113.19552,8.01171875 C114.113489,7.5625 115.109583,7.328125 116.203333,7.328125 C117.043177,7.328125 117.863489,7.484375 118.683802,7.77734375 C120.07052,8.34375 121.183802,9.26171875 121.984583,10.53125 C122.668177,11.6640625 123.019739,12.875 123.019739,14.1640625 C123.019739,15.453125 122.668177,16.6640625 121.984583,17.796875 C121.144739,19.0859375 120.031458,20.0039062 118.625208,20.5507812 C117.843958,20.84375 117.023645,21 116.183802,21 Z" id="3"></path>
        </g>
    </g>
</svg>