<?xml version="1.0" encoding="UTF-8"?>
<svg width="138px" height="32px" viewBox="0 0 138 32" version="1.1" xmlns="http://www.w3.org/2000/svg" xmlns:xlink="http://www.w3.org/1999/xlink">
    <!-- Generator: Sketch 52.6 (67491) - http://www.bohemiancoding.com/sketch -->
    <title>Artboard</title>
    <desc>Created with Sketch.</desc>
    <g id="Artboard" stroke="none" stroke-width="1" fill="none" fill-rule="evenodd">
        <g id="analogue" transform="translate(5.000000, 2.000000)" fill="#FFFFFF">
            <path d="M27.0626594,1.69 L27.0326594,22.03 L23.3726594,22.03 L23.3726594,15.61 C22.2026594,15.79 20.7026594,16 19.7726594,16 C18.5726594,24.04 13.5626594,22.12 13.1126594,20.5 C15.0326594,21.1 15.9926594,18.01 16.3226594,15.25 C13.6226594,14.14 13.4126594,11.77 14.9126594,9.7 C15.3926594,10.63 15.9626594,11.32 16.6226594,11.83 C17.0426594,7.33 17.7026594,1.27 23.5226594,0.85 C24.2126594,0.85 26.9126594,0.91 27.0626594,1.69 Z M20.0126594,13.39 C20.9126594,13.51 22.3526594,13.45 23.3726594,13.51 L23.3726594,2.14 C19.5326594,2.62 20.3726594,10.78 20.0126594,13.39 Z M39.4309573,18.25 C39.3409573,19.6 39.8809573,20.2 40.3009573,20.26 C41.9209573,20.56 42.3109573,17.92 42.2809573,16 L43.2409573,16 C44.1109573,23.98 35.5009573,23.41 35.8909573,17.77 C35.8009573,11.14 36.1009573,8.74 34.6309573,8.62 C33.8809573,8.56 32.9809573,8.8 32.9809573,10.96 L32.9809573,22 L29.5009573,22 L29.5009573,7 L33.0409573,7 L33.0409573,8.23 C33.8809573,7.39 34.7209573,7.03 35.5309573,7.03 C39.4609573,7 39.4309573,9.85 39.4309573,18.25 Z M52.8792552,7 L52.9092552,18.43 C52.8192552,19.78 53.2992552,20.38 53.7192552,20.44 C55.3992552,20.74 55.7592552,17.92 55.6992552,16 L56.6592552,16 C57.2592552,23.02 51.5592552,23.35 49.4292552,20.14 C46.5792552,24.91 42.2592552,20.08 42.1992552,14.5 C42.1392552,9.1 45.9492552,4.84 49.3392552,8.23 L49.3392552,7 L52.8792552,7 Z M46.0392552,14.53 C46.0392552,17.86 46.6992552,19.54 47.5992552,19.96 C47.8692552,20.08 49.3692552,19.96 49.3392552,17.95 L49.1892552,10.93 C49.1292552,8.98 48.5292552,8.32 47.7492552,8.62 C46.8492552,8.95 46.0392552,11.29 46.0392552,14.53 Z M56.1875531,17.77 L56.2175531,1 L59.7575531,1 L59.7575531,18.25 C59.6675531,19.6 60.1475531,20.2 60.5675531,20.26 C62.1875531,20.56 62.5775531,17.92 62.5475531,16 L63.5075531,16 C64.3775531,23.98 55.7975531,23.41 56.1875531,17.77 Z M62.435851,14.5 C62.435851,10.36 64.835851,7 68.105851,7 C71.345851,7 73.565851,10.36 73.565851,14.5 C73.565851,18.64 71.345851,22 68.105851,22 C64.835851,22 62.435851,18.64 62.435851,14.5 Z M66.275851,14.53 C66.275851,18.13 66.485851,21.07 68.015851,21.07 C69.515851,21.07 69.695851,17.98 69.695851,14.38 C69.695851,10.78 69.515851,8.02 68.015851,8.02 C66.485851,8.02 66.275851,10.93 66.275851,14.53 Z M90.284149,16.03 C90.554149,20.59 88.334149,23.11 86.294149,23.2 C85.994149,27.52 84.944149,28.87 83.114149,28.93 C79.604149,29.05 76.934149,22.63 82.694149,22 L82.694149,20.35 C79.844149,24.76 75.584149,20.02 75.524149,14.5 C75.464149,9.1 79.274149,4.84 82.664149,8.23 L82.664149,7 L86.204149,7 L86.174149,22 C89.024149,21.76 89.384149,17.77 89.324149,16.03 L90.284149,16.03 Z M79.364149,14.53 C79.364149,17.89 79.964149,19.6 80.954149,19.93 C81.554149,20.14 82.634149,19.54 82.634149,18.01 L82.574149,10.93 C82.544149,8.92 81.794149,8.32 81.014149,8.62 C80.144149,8.95 79.364149,11.35 79.364149,14.53 Z M81.404149,26.53 C81.854149,26.95 83.114149,26.17 82.754149,23.23 C80.804149,23.14 80.144149,25.3 81.404149,26.53 Z M92.3924469,18.37 C92.3024469,19.72 92.7824469,20.32 93.2024469,20.38 C94.8824469,20.68 95.2424469,17.86 95.1824469,15.94 L96.1424469,15.94 C97.1924469,24.04 88.8224469,23.59 88.8224469,17.89 L88.8224469,7.03 L92.3624469,7.03 L92.3924469,18.37 Z M88.7024469,2.92 C88.7024469,1.87 89.5424469,1.03 90.5924469,1.03 C91.6424469,1.03 92.4824469,1.87 92.4824469,2.92 C92.4824469,3.97 91.6424469,4.81 90.5924469,4.81 C89.5424469,4.81 88.7024469,3.97 88.7024469,2.92 Z M100.860745,11.08 C100.920745,10.39 102.000745,8.5 100.680745,8.59 C99.7207448,8.65 98.9707448,11.26 98.9707448,14.5 C98.9707448,17.53 98.9707448,20.02 100.050745,20.32 C102.180745,21.58 106.020745,19.3 106.080745,16 L107.280745,16 C106.710745,21.28 103.020745,22.3 99.9307448,21.94 C97.2007448,21.61 95.1607448,18.55 95.1307448,14.47 C95.0707448,10.39 96.9307448,7.24 99.7807448,7 C103.200745,6.7 104.280745,9.28 103.800745,11.08 C103.590745,11.83 103.320745,12.49 102.450745,12.49 C101.580745,12.49 100.800745,11.86 100.860745,11.08 Z M106.119043,14.5 C106.119043,10.36 108.519043,7 111.789043,7 C115.029043,7 117.249043,10.36 117.249043,14.5 C117.249043,18.64 115.029043,22 111.789043,22 C108.519043,22 106.119043,18.64 106.119043,14.5 Z M109.959043,14.53 C109.959043,18.13 110.169043,21.07 111.699043,21.07 C113.199043,21.07 113.379043,17.98 113.379043,14.38 C113.379043,10.78 113.199043,8.02 111.699043,8.02 C110.169043,8.02 109.959043,10.93 109.959043,14.53 Z" id="4"></path>
        </g>
    </g>
</svg>