<?xml version="1.0" encoding="UTF-8"?>
<svg width="138px" height="32px" viewBox="0 0 138 32" version="1.1" xmlns="http://www.w3.org/2000/svg" xmlns:xlink="http://www.w3.org/1999/xlink">
    <!-- Generator: Sketch 52.6 (67491) - http://www.bohemiancoding.com/sketch -->
    <title>Artboard</title>
    <desc>Created with Sketch.</desc>
    <g id="Artboard" stroke="none" stroke-width="1" fill="none" fill-rule="evenodd">
        <g id="analogue" transform="translate(7.000000, 2.000000)" fill="#FFFFFF">
            <path d="M5.97503519,21.2490234 C5.97503519,21.2047524 5.9529,21.1826172 5.90862894,21.1826172 C5.90862894,21.2268882 5.88649375,21.2490234 5.84222269,21.2490234 C5.84222269,21.1494136 5.73154671,21.083008 5.51019144,21.0498047 L5.51019144,20.9169922 L5.64300394,20.9169922 L5.64300394,20.8505859 L5.37737894,20.8505859 C5.37737894,20.9833991 5.33310855,21.0498047 5.24456644,21.0498047 L5.11175394,20.9833984 C5.11175394,21.0276695 5.08961875,21.0498047 5.04534769,21.0498047 L4.97894144,20.9169922 L5.31097269,20.9169922 L5.31097269,20.8505859 L4.97894144,20.8505859 C4.93467039,20.9280603 4.91253519,21.0166011 4.91253519,21.1162109 L4.84612894,21.1162109 L4.84612894,20.8505859 L4.77972269,20.8505859 L4.77972269,21.1162109 L4.51409769,21.1162109 C4.41448782,21.1162109 4.32594704,21.1383461 4.24847269,21.1826172 C3.61761016,21.005533 3.24131184,20.9169922 3.11956644,20.9169922 C3.07529539,20.9169922 3.05316019,20.9391274 3.05316019,20.9833984 L2.92034769,20.9169922 L2.78753519,20.9833984 C2.78753519,20.9391274 2.7654,20.9169922 2.72112894,20.9169922 L2.72112894,21.0498047 C2.63258683,21.0498047 2.58831644,20.9612639 2.58831644,20.7841797 C2.44443551,20.8727218 2.33375954,20.9169922 2.25628519,20.9169922 C2.32269177,20.739908 2.38909736,20.6513672 2.45550394,20.6513672 C2.45550394,20.6956382 2.47763914,20.7177734 2.52191019,20.7177734 L2.52191019,20.6513672 L2.45550394,20.5185547 C2.54404605,20.5185547 2.58831644,20.4742843 2.58831644,20.3857422 C2.54404539,20.3857422 2.52191019,20.363607 2.52191019,20.3193359 C2.56618125,20.3193359 2.58831644,20.2972007 2.58831644,20.2529297 C2.54404539,20.2529297 2.52191019,20.2307945 2.52191019,20.1865234 L2.38909769,20.2529297 L2.25628519,20.1865234 L2.25628519,20.2529297 C2.30055625,20.2529297 2.32269144,20.2750649 2.32269144,20.3193359 L1.99066019,20.3193359 L1.99066019,20.1201172 C2.12347335,20.1201172 2.27841972,20.0537116 2.45550394,19.9208984 C2.52191052,19.9208984 2.58831611,19.8544929 2.65472269,19.7216797 L2.58831644,19.5888672 C2.76540066,19.5445961 2.94248222,19.5224609 3.11956644,19.5224609 L3.25237894,19.5888672 L4.04925394,18.1943359 L3.98284769,18.1943359 C4.0713898,17.9840484 4.11566019,17.7184261 4.11566019,17.3974609 L4.24847269,17.4638672 L4.44769144,17.4638672 C4.44769144,17.4195961 4.46982664,17.3531905 4.51409769,17.2646484 C4.46982664,17.2646484 4.44769144,17.2425132 4.44769144,17.1982422 C4.5805046,17.1982422 4.80185656,16.6005919 5.11175394,15.4052734 C5.32204145,14.9736307 5.5655286,14.221034 5.84222269,13.1474609 L6.70550394,10.8896484 C6.66123289,10.8896484 6.63909769,10.8675132 6.63909769,10.8232422 L6.70550394,10.8232422 L6.63909769,10.6904297 L6.63909769,10.6240234 L6.77191019,10.6904297 L6.77191019,10.6240234 C6.72763914,10.5354813 6.70550394,10.4690757 6.70550394,10.4248047 L6.83831644,10.4912109 L6.83831644,10.4248047 C6.79404539,10.4248047 6.77191019,10.4026695 6.77191019,10.3583984 C6.81618125,10.3583984 6.83831644,10.3362632 6.83831644,10.2919922 L6.77191019,10.2919922 C6.94899441,9.8935527 7.03753519,9.62793035 7.03753519,9.49511719 L7.10394144,9.49511719 L7.10394144,9.69433594 L7.17034769,9.69433594 C7.34743191,9.14094775 7.43597269,8.80891982 7.43597269,8.69824219 L7.50237894,8.69824219 L7.50237894,8.89746094 L7.56878519,8.89746094 C7.56878519,8.53222474 7.61305558,8.26660239 7.70159769,8.10058594 C7.65732664,8.10058594 7.63519144,8.07845074 7.63519144,8.03417969 C7.71266579,8.03417969 7.84547696,7.68001656 8.03362894,6.97167969 L7.96722269,6.97167969 L8.16644144,6.63964844 L8.16644144,6.57324219 L8.03362894,6.57324219 C8.03362894,6.37402244 8.16644011,6.04199451 8.43206644,5.57714844 C8.50954079,5.17870895 8.59808157,4.97949219 8.69769144,4.97949219 L8.89691019,4.97949219 L8.89691019,4.91308594 C8.89691019,4.84667936 8.8305046,4.78027377 8.69769144,4.71386719 L8.63128519,4.84667969 C8.55381084,4.80240863 8.46527006,4.78027344 8.36566019,4.78027344 L8.36566019,4.71386719 C8.54274441,4.71386719 8.63128519,4.6474616 8.63128519,4.51464844 C8.45420097,4.51464844 8.36566019,4.42610766 8.36566019,4.24902344 L8.49847269,4.18261719 L8.63128519,4.18261719 C8.67555625,4.18261719 8.69769144,4.20475238 8.69769144,4.24902344 C8.75303026,4.20475238 8.90797663,4.18261719 9.16253519,4.18261719 L9.16253519,4.11621094 C8.94117992,4.11621094 8.69769277,4.07194055 8.43206644,3.98339844 C8.43206644,4.02766949 8.40993125,4.04980469 8.36566019,4.04980469 L8.29925394,3.91699219 L8.43206644,3.71777344 L8.29925394,3.65136719 C8.343525,3.51855402 8.38779539,3.45214844 8.43206644,3.45214844 C9.36175859,3.56282607 9.82659769,3.65136686 9.82659769,3.71777344 L9.95941019,3.65136719 L10.1586289,3.65136719 C10.2582388,3.65136719 10.3467796,3.67350238 10.4242539,3.71777344 L10.4906602,3.71777344 L10.4906602,3.65136719 L10.3578477,3.65136719 L10.3578477,3.58496094 L10.8226914,3.65136719 L11.4203477,3.65136719 C11.4424832,3.65136719 11.5088888,3.69563758 11.6195664,3.78417969 L11.9515977,3.71777344 C11.9515977,3.76204449 11.9737329,3.78417969 12.0180039,3.78417969 L12.0180039,3.58496094 L12.2172227,3.58496094 L12.2172227,3.78417969 L12.4828477,3.78417969 L12.4828477,3.65136719 L12.6156602,3.71777344 C12.626728,3.62923133 12.6709983,3.58496094 12.7484727,3.58496094 L13.3461289,3.58496094 L13.4789414,3.65136719 C13.4900092,3.56282508 13.5342796,3.51855469 13.6117539,3.51855469 L13.7445664,3.51855469 L13.6781602,3.65136719 L13.7445664,3.65136719 C13.7445664,3.58496061 13.8552424,3.49641982 14.0765977,3.38574219 L14.1430039,3.51855469 L14.1430039,3.58496094 L14.0101914,3.78417969 L14.0101914,3.85058594 L14.1430039,3.78417969 L14.2094102,3.78417969 L14.1430039,3.91699219 C14.2758171,3.91699219 14.3422227,3.96126258 14.3422227,4.04980469 L14.2094102,4.04980469 L14.2094102,4.18261719 L14.3422227,4.11621094 L14.4750352,4.11621094 L14.3422227,4.31542969 L14.4086289,4.31542969 C14.4086289,4.24902311 14.4750345,4.18261752 14.6078477,4.11621094 L14.6742539,4.11621094 L14.6742539,4.38183594 C14.6078474,4.38183594 14.452901,4.51464711 14.2094102,4.78027344 C14.0655293,4.78027344 13.9769885,4.9352198 13.9437852,5.24511719 L14.0101914,5.24511719 C14.0101914,5.20084613 14.0323266,5.17871094 14.0765977,5.17871094 C14.0765977,5.40006621 14.1208681,5.51074219 14.2094102,5.51074219 L14.2094102,5.70996094 L14.1430039,5.84277344 L14.2094102,5.84277344 C14.2094102,5.79850238 14.2315454,5.77636719 14.2758164,5.77636719 L14.2758164,5.84277344 C14.2315454,5.93131555 14.2094102,5.99772113 14.2094102,6.04199219 L14.3422227,5.97558594 L14.3422227,6.04199219 C14.2979516,6.1305343 14.2758164,6.19693988 14.2758164,6.24121094 L14.2094102,6.24121094 L14.2094102,6.10839844 L14.1430039,6.10839844 L14.1430039,6.17480469 C14.4086303,7.00488696 14.5414414,7.51399646 14.5414414,7.70214844 L14.6078477,7.70214844 L14.6078477,7.43652344 C14.5635766,7.28157475 14.5414414,7.17089877 14.5414414,7.10449219 L14.6078477,7.10449219 C14.6078477,7.41438957 14.6742533,7.56933594 14.8070664,7.56933594 L14.7406602,7.70214844 C14.7406602,7.79069055 14.829201,8.12271848 15.0062852,8.69824219 L15.0726914,8.69824219 C15.0726914,8.60970008 15.1169618,8.56542969 15.2055039,8.56542969 L15.2055039,8.49902344 L15.0726914,8.49902344 L15.0726914,8.43261719 C15.1169625,8.43261719 15.1833681,8.41048199 15.2719102,8.36621094 C15.3604523,8.85319254 15.4489931,9.18522047 15.5375352,9.36230469 C15.5375352,9.40657574 15.5154,9.42871094 15.4711289,9.42871094 C15.5154,9.93782807 15.6482112,10.6018839 15.8695664,11.4208984 L15.8031602,11.4208984 C15.9691766,12.1845741 16.124123,12.627278 16.2680039,12.7490234 L16.2015977,12.7490234 L16.3344102,13.2138672 L16.2680039,13.2138672 C16.5779013,14.0882205 16.7328477,14.5530596 16.7328477,14.6083984 L16.7992539,14.6083984 L16.7992539,14.3427734 L16.8656602,14.3427734 L16.8656602,14.9404297 C16.9320668,14.9404297 16.9984724,14.9847001 17.0648789,15.0732422 C17.0206079,15.1617843 16.9984727,15.2281899 16.9984727,15.2724609 L17.0648789,15.4052734 L16.9984727,15.5380859 C17.264099,16.5895235 17.4633158,17.2535793 17.5961289,17.5302734 L17.7289414,17.4638672 L17.7289414,17.5966797 L17.5961289,17.5966797 C17.7732132,18.2607455 18.1495115,18.880531 18.7250352,19.4560547 L18.7250352,19.5888672 L18.6586289,19.5888672 L18.5258164,19.5224609 C18.5258164,19.5445965 18.6364924,19.7438132 18.8578477,20.1201172 C18.8135766,20.1201172 18.7914414,20.1422524 18.7914414,20.1865234 L18.8578477,20.1865234 C18.8578477,20.1422524 18.8799829,20.1201172 18.9242539,20.1201172 C18.9242539,20.3525402 18.9906595,20.4853514 19.1234727,20.5185547 C19.1234727,20.6513679 19.1677431,20.7177734 19.2562852,20.7177734 L19.2562852,20.7841797 L18.9906602,20.7841797 L18.9906602,20.8505859 L19.1234727,20.8505859 L19.1234727,20.9169922 L18.4594102,20.9833984 L18.1273789,20.9169922 C17.8949559,20.9612632 17.673604,20.9833984 17.4633164,20.9833984 C17.1976901,20.8948563 16.8213918,20.8284507 16.3344102,20.7841797 C16.2458681,20.8284507 16.1794625,20.8505859 16.1351914,20.8505859 L16.1351914,20.7177734 L16.0687852,20.7177734 L16.0687852,20.8505859 L16.0023789,20.8505859 C15.9581079,20.8505859 15.9359727,20.8284507 15.9359727,20.7841797 C15.6260753,20.8837896 15.4711289,20.9501951 15.4711289,20.9833984 C14.3643526,20.8948563 13.7002967,20.7841804 13.4789414,20.6513672 C13.4789414,20.6956382 13.4568062,20.7177734 13.4125352,20.7177734 L13.4125352,20.6513672 L12.4828477,20.9833984 L12.0844102,20.9169922 L12.0844102,21.0498047 C12.0180036,21.0498047 11.951598,20.9833991 11.8851914,20.8505859 C11.9294625,20.8505859 11.9515977,20.8284507 11.9515977,20.7841797 L11.8187852,20.7177734 C11.8187852,20.7620445 11.79665,20.7841797 11.7523789,20.7841797 L11.7523789,20.7177734 L11.8851914,20.5185547 C11.7966493,20.5185547 11.7523789,20.4742843 11.7523789,20.3857422 L11.7523789,20.3193359 C11.8851921,20.3193359 11.9515977,20.2750655 11.9515977,20.1865234 L11.8851914,20.1865234 C11.7745138,20.2750655 11.7081082,20.3193359 11.6859727,20.3193359 L11.6195664,20.3193359 L11.6859727,20.1865234 L11.5531602,20.1865234 L11.5531602,20.1201172 C12.1065484,19.6995422 12.3943059,19.4615888 12.4164414,19.40625 C12.438577,19.3509112 12.4607122,19.301107 12.4828477,19.2568359 C12.4385766,19.2568359 12.4164414,19.2347007 12.4164414,19.1904297 C12.4607125,19.1904297 12.4828477,19.1682945 12.4828477,19.1240234 C12.4385766,19.1240234 12.4164414,19.1018882 12.4164414,19.0576172 C12.482848,19.0576172 12.5713888,18.81413 12.6820664,18.3271484 C12.5492533,17.784828 12.4385773,17.4306649 12.3500352,17.2646484 L12.4164414,17.2646484 L12.3500352,17.1318359 L12.3500352,16.9326172 L12.4164414,16.7998047 L12.3500352,16.7998047 C12.3500352,16.8440757 12.3279,16.8662109 12.2836289,16.8662109 C12.2836289,16.4788392 12.2172234,16.1689465 12.0844102,15.9365234 L12.1508164,15.9365234 C12.0622743,15.4495418 11.9737335,15.0732435 11.8851914,14.8076172 C11.9294625,14.8076172 11.9515977,14.785482 11.9515977,14.7412109 L11.8851914,14.7412109 C11.8851914,14.785482 11.8630562,14.8076172 11.8187852,14.8076172 C11.8187852,14.7633461 11.8409204,14.630535 11.8851914,14.4091797 L11.7523789,14.4091797 L11.7523789,14.0771484 L11.3539414,13.4130859 L11.5531602,13.4130859 L11.5531602,13.3466797 L11.3539414,13.3466797 C11.3539414,13.3909507 11.3318062,13.4130859 11.2875352,13.4130859 C11.2875352,13.3688149 11.2654,13.3466797 11.2211289,13.3466797 L11.2211289,13.4794922 L10.6898789,13.3466797 L10.6898789,13.4130859 C10.73415,13.4130859 10.7562852,13.4352211 10.7562852,13.4794922 C10.3578457,13.4794922 9.98154738,13.6123034 9.62737894,13.8779297 C9.62737894,13.8336586 9.60524375,13.8115234 9.56097269,13.8115234 C9.56097269,13.8668623 9.29535035,14.0439438 8.76409769,14.3427734 C8.76409769,14.2985024 8.7419625,14.2763672 8.69769144,14.2763672 C8.69769144,14.331706 8.52060988,14.5309228 8.16644144,14.8740234 C7.18141047,16.1357485 6.56162501,17.331049 6.30706644,18.4599609 L6.30706644,18.5927734 C6.30706644,18.614909 6.35133683,18.6813146 6.43987894,18.7919922 L6.30706644,18.7919922 L6.30706644,18.8583984 C6.48415066,18.8583984 6.59482664,19.0576152 6.63909769,19.4560547 L6.77191019,19.6552734 L6.77191019,19.7880859 L6.70550394,19.7880859 C6.61696183,19.7438149 6.55055625,19.7216797 6.50628519,19.7216797 L6.50628519,19.7880859 C6.50628519,19.9208991 6.59482597,19.9873047 6.77191019,19.9873047 L6.63909769,20.1865234 L6.70550394,20.1865234 C6.70550394,20.1422524 6.72763914,20.1201172 6.77191019,20.1201172 L6.77191019,20.3193359 L6.70550394,20.4521484 C6.79404605,20.4632162 6.83831644,20.5074866 6.83831644,20.5849609 C6.7276388,20.7177741 6.63909802,20.7841797 6.57269144,20.7841797 L6.63909769,20.9169922 L6.63909769,20.9833984 L6.37347269,20.9833984 L6.43987894,21.1162109 C6.21852367,21.204753 6.0635773,21.2490234 5.97503519,21.2490234 Z M12.2836289,3.65136719 L12.2172227,3.51855469 L12.4164414,3.51855469 C12.4164414,3.6070968 12.372171,3.65136719 12.2836289,3.65136719 Z M14.5414414,7.10449219 L14.4750352,7.10449219 L14.4750352,6.83886719 L14.5414414,6.83886719 L14.5414414,7.10449219 Z M8.76409769,10.9560547 C9.14040166,10.8675126 9.3838888,10.8232422 9.49456644,10.8232422 C9.58310855,10.8675132 9.64951414,10.8896484 9.69378519,10.8896484 L9.69378519,10.8232422 C9.73805625,10.8232422 9.76019144,10.8453774 9.76019144,10.8896484 L10.0922227,10.8232422 C10.1364937,10.8232422 10.2028993,10.8453774 10.2914414,10.8896484 C10.3357125,10.8453774 10.5127941,10.8232422 10.8226914,10.8232422 C10.6788105,10.7014968 10.5681345,10.4358744 10.4906602,10.0263672 L10.0922227,8.49902344 C10.1364937,8.41048133 10.1586289,8.34407574 10.1586289,8.29980469 L10.0258164,8.36621094 L9.76019144,7.30371094 C9.8044625,7.30371094 9.82659769,7.28157574 9.82659769,7.23730469 L9.76019144,7.23730469 C9.76019144,7.28157574 9.73805625,7.30371094 9.69378519,7.30371094 L9.69378519,7.17089844 L9.76019144,7.03808594 L9.69378519,7.03808594 C9.38388781,8.36621758 9.22894144,9.07454383 9.22894144,9.16308594 L9.29534769,9.29589844 C9.22894111,9.29589844 9.07399474,9.71646715 8.83050394,10.5576172 L8.89691019,10.5576172 C8.85263914,10.6461593 8.83050394,10.7125649 8.83050394,10.7568359 L8.76409769,10.7568359 L8.76409769,10.5576172 C8.76409769,10.4358718 8.80836808,10.3030606 8.89691019,10.1591797 L8.83050394,10.1591797 C8.7198263,10.3251961 8.63128552,10.5686833 8.56487894,10.8896484 C8.58701447,10.8896484 8.65342005,10.845378 8.76409769,10.7568359 L8.76409769,10.9560547 Z M14.6078477,7.96777344 L14.6742539,7.83496094 L14.6742539,7.76855469 L14.6078477,7.76855469 C14.6078477,7.81282574 14.5857125,7.87923133 14.5414414,7.96777344 L14.6078477,7.96777344 Z M15.2055039,8.36621094 C15.1390974,8.36621094 15.0726918,8.29980535 15.0062852,8.16699219 L15.0062852,7.96777344 C15.0948273,7.96777344 15.1612329,8.10058461 15.2055039,8.36621094 Z M15.4047227,9.36230469 L15.4047227,9.29589844 C15.3161806,9.16308527 15.2719102,8.98600371 15.2719102,8.76464844 L15.1390977,8.76464844 L15.2719102,9.36230469 L15.4047227,9.36230469 Z M12.8812852,9.62792969 L12.8812852,9.36230469 L12.8148789,9.36230469 L12.8148789,9.62792969 L12.8812852,9.62792969 Z M16.2015977,13.6787109 L16.2015977,13.4794922 C16.1130556,13.302408 16.0687852,13.1695968 16.0687852,13.0810547 L16.0023789,13.0810547 L16.0023789,13.1474609 C16.090921,13.3134774 16.1351914,13.490559 16.1351914,13.6787109 L16.2015977,13.6787109 Z M11.0883164,13.3466797 L11.1547227,13.2138672 C11.0772483,13.2581382 10.9887076,13.2802734 10.8890977,13.2802734 L10.8890977,13.3466797 L11.0883164,13.3466797 Z M16.7328477,14.1435547 L16.6664414,14.1435547 C16.6221704,13.988606 16.6000352,13.87793 16.6000352,13.8115234 L16.6664414,13.8115234 C16.7107125,13.9886077 16.7328477,14.0992836 16.7328477,14.1435547 Z M14.0101914,15.4716797 L14.0101914,15.4052734 C13.8773783,14.9404274 13.8109727,14.6526698 13.8109727,14.5419922 L13.7445664,14.5419922 C13.7445664,14.6305343 13.810972,14.940427 13.9437852,15.4716797 L14.0101914,15.4716797 Z M12.3500352,16.7333984 L12.4828477,16.6669922 C12.3943056,16.489908 12.3500352,16.3349616 12.3500352,16.2021484 L12.4164414,16.2021484 C12.4164414,16.3349616 12.4607118,16.4013672 12.5492539,16.4013672 L12.6156602,16.2685547 L12.6156602,16.2021484 L12.4828477,16.2685547 C12.4828477,16.113606 12.3943069,15.8037133 12.2172227,15.3388672 L12.1508164,15.3388672 L12.1508164,15.4052734 C12.2836296,16.1025425 12.3500352,16.5452465 12.3500352,16.7333984 Z M17.3305039,15.8701172 L17.1976914,15.8701172 C17.1976914,15.7483718 17.153421,15.6155606 17.0648789,15.4716797 L17.1976914,15.4052734 L17.3305039,15.8701172 Z M14.0765977,15.8037109 L14.0765977,15.7373047 C14.0323266,15.6487626 14.0101914,15.582357 14.0101914,15.5380859 L13.9437852,15.5380859 L13.9437852,15.6044922 C13.9880562,15.6930343 14.0101914,15.7594399 14.0101914,15.8037109 L14.0765977,15.8037109 Z M17.3969102,16.3349609 L17.3305039,16.3349609 C17.3305039,16.1357412 17.3083687,16.00293 17.2640977,15.9365234 L17.3969102,15.8701172 L17.3969102,16.3349609 Z M12.7484727,16.7333984 L12.7484727,16.6669922 C12.7042016,16.5895178 12.6820664,16.5009771 12.6820664,16.4013672 L12.6156602,16.4013672 L12.6156602,16.5341797 C12.6599312,16.6227218 12.6820664,16.6891274 12.6820664,16.7333984 L12.7484727,16.7333984 Z M17.4633164,16.6005859 L17.3969102,16.6005859 L17.3969102,16.3349609 L17.4633164,16.3349609 L17.4633164,16.6005859 Z M13.0140977,16.9326172 C12.9698266,16.8662106 12.9476914,16.7333994 12.9476914,16.5341797 L12.8148789,16.5341797 C12.8148789,16.5784507 12.8370141,16.7112619 12.8812852,16.9326172 L13.0140977,16.9326172 Z M4.24847269,17.9951172 L4.38128519,17.5302734 L4.18206644,17.5302734 C4.18206644,17.6630866 4.15993125,17.818033 4.11566019,17.9951172 L4.24847269,17.9951172 Z M17.3969102,18.5263672 L17.3969102,18.4599609 C17.3969102,18.3714188 17.3526398,18.3271484 17.2640977,18.3271484 C17.2640977,18.4599616 17.3083681,18.5263672 17.3969102,18.5263672 Z M17.6625352,19.0576172 C17.5739931,18.8583974 17.4854523,18.7477215 17.3969102,18.7255859 L17.3969102,18.7919922 C17.4633168,18.9690764 17.5297224,19.0576172 17.5961289,19.0576172 L17.6625352,19.0576172 Z M6.17425394,21.0498047 C6.26279605,21.0498047 6.30706644,21.0055343 6.30706644,20.9169922 L6.24066019,20.9169922 L6.24066019,20.9833984 L6.10784769,20.9169922 C6.01930558,20.92806 5.97503519,20.9723303 5.97503519,21.0498047 L6.17425394,21.0498047 Z M34.2404317,21.1328125 C33.9526698,21.1328125 33.5099659,21.1106773 32.9123067,21.0664062 L32.9123067,20.9335938 L32.7794942,21 L32.2482442,21 C32.0932955,21 31.8940787,21.0221352 31.6505879,21.0664062 C31.5841813,21.0221352 31.4513702,21 31.2521504,21 C31.2521504,21.0442711 31.2300152,21.0664062 31.1857442,21.0664062 C31.1857442,21.0221352 31.163609,21 31.1193379,21 L31.1193379,21.0664062 L30.9865254,21 C30.9422544,21 30.9201192,21.0221352 30.9201192,21.0664062 L30.5880879,21 L29.3927754,21.0664062 L29.3263692,20.9335938 L29.3263692,20.8671875 L29.4591817,20.8671875 L29.4591817,20.8007812 C29.2378264,20.8007812 29.1271504,20.7343757 29.1271504,20.6015625 C29.1714215,20.6015625 29.1935567,20.5794273 29.1935567,20.5351562 C29.1050146,20.5351562 29.0607442,20.4908859 29.0607442,20.4023438 L29.0607442,20.203125 C29.5145225,20.203125 29.8244152,19.7604211 29.9904317,18.875 C30.1232448,18.875 30.1896504,18.5208369 30.1896504,17.8125 L30.1896504,17.546875 C30.1896504,17.4029941 30.1675152,17.2923181 30.1232442,17.2148438 C30.2117863,16.5507779 30.2560567,15.8645869 30.2560567,15.15625 L30.3224629,15.15625 L30.2560567,15.0234375 C30.2560567,14.9791664 30.2781919,14.9570312 30.3224629,14.9570312 L30.2560567,14.4921875 L30.2560567,13.9609375 L30.3224629,13.828125 L30.2560567,13.828125 L30.3224629,13.6953125 C30.3224629,13.0533822 30.1896517,12.1901096 29.9240254,11.1054688 C29.9682965,11.1054688 29.9904317,11.0833336 29.9904317,11.0390625 L29.9240254,11.0390625 C29.9240254,11.0833336 29.9018902,11.1054688 29.8576192,11.1054688 C29.8576192,11.0611977 29.835484,11.0390625 29.7912129,11.0390625 L29.7912129,11.171875 C29.6805353,11.0390618 29.5919945,10.9726562 29.5255879,10.9726562 L29.5919942,10.8398438 L29.4591817,10.7734375 C29.4591817,10.8177086 29.4370465,10.8398438 29.3927754,10.8398438 C29.3927754,10.6959628 29.237829,10.5631517 28.9279317,10.4414062 L28.7951192,10.5078125 L28.7287129,10.5078125 L28.7951192,10.375 L28.6623067,10.3085938 C28.6623067,10.3971359 28.6180363,10.4414062 28.5294942,10.4414062 C28.4852231,10.4414062 28.4188175,10.4192711 28.3302754,10.375 C27.6551418,10.375 26.9246804,10.8841095 26.1388692,11.9023438 L26.1388692,12.1015625 L26.2052754,12.1015625 C26.1720721,12.2786467 26.1278017,12.3671875 26.0724629,12.3671875 L26.1388692,12.5 L26.1388692,12.5664062 L26.0724629,12.6992188 L26.1388692,12.6992188 L26.0724629,12.8320312 C26.116734,13.031251 26.1388692,13.5846309 26.1388692,14.4921875 L26.0724629,14.4921875 L26.0724629,14.8242188 L26.2052754,15.0234375 L26.2052754,15.8867188 L26.1388692,15.8867188 L26.1388692,15.5546875 L26.0724629,15.5546875 L26.0724629,16.1523438 L26.1388692,16.2851562 C26.0503271,16.296224 26.0060567,16.3404944 26.0060567,16.4179688 L26.0060567,16.6171875 C26.0945988,16.6171875 26.1388692,16.5729171 26.1388692,16.484375 C26.0945981,16.484375 26.0724629,16.4622398 26.0724629,16.4179688 L26.2716817,16.2851562 L26.2716817,16.8828125 L26.0724629,16.8828125 L26.0724629,17.1484375 L26.1388692,17.28125 L26.0724629,17.28125 C26.116734,17.5468763 26.1610044,17.6796875 26.2052754,17.6796875 L26.1388692,17.8125 C26.1388692,17.8567711 26.1610044,17.8789062 26.2052754,17.8789062 L26.1388692,18.0117188 L26.1388692,18.078125 L26.2716817,18.078125 L26.2716817,18.2773438 L26.1388692,18.2109375 C26.3491567,18.985681 26.6369142,19.6497368 27.0021504,20.203125 C27.1349636,20.2473961 27.2013692,20.2916664 27.2013692,20.3359375 L27.2013692,20.5351562 C27.2456402,20.5351562 27.2899106,20.6679674 27.3341817,20.9335938 C27.2899106,20.9335938 27.2677754,20.9557289 27.2677754,21 C26.8250649,20.9557289 26.4930369,20.9335938 26.2716817,20.9335938 L25.4084004,20.9335938 C25.3641294,20.9335938 25.3419942,20.9557289 25.3419942,21 C25.2977231,21 25.2755879,20.9778648 25.2755879,20.9335938 C24.6557932,21.0221359 24.2352244,21.0664062 24.0138692,21.0664062 C23.7482428,21.033203 23.6154317,20.9889326 23.6154317,20.9335938 L23.4826192,21 L23.1505879,21 L23.1505879,20.9335938 L23.2834004,20.9335938 L23.2834004,20.8671875 L23.1505879,20.8671875 C23.1505879,20.9557296 23.1063175,21 23.0177754,21 L22.9513692,21 L22.9513692,20.8671875 C22.8738948,20.9557296 22.5861373,21 22.0880879,21 L22.0880879,20.9335938 L21.7560567,20.9335938 L21.6232442,21 C21.6232442,20.9557289 21.601109,20.9335938 21.5568379,20.9335938 L21.5568379,21 C21.2801438,20.8671868 21.0809271,20.8007812 20.9591817,20.8007812 L21.0255879,20.6679688 C21.0255879,20.6236977 21.0034527,20.6015625 20.9591817,20.6015625 L21.0255879,20.46875 L21.0255879,20.3359375 L20.8927754,20.3359375 C20.8927754,20.2363276 21.069857,20.0813813 21.4240254,19.8710938 C21.5347031,19.4615865 21.6896494,19.0852882 21.8888692,18.7421875 C21.8445981,18.0781217 21.8224629,17.5911474 21.8224629,17.28125 L21.8224629,16.4179688 L21.8888692,16.4179688 L21.8888692,16.6171875 L21.9552754,16.6171875 C21.9995465,16.174477 22.0216817,15.842449 22.0216817,15.6210938 L21.8888692,15.6210938 L21.8888692,15.5546875 L22.0216817,15.5546875 L22.0216817,15.15625 L21.9552754,15.15625 L21.9552754,15.421875 L21.8888692,15.421875 L21.8888692,13.4296875 L22.0216817,13.4960938 L22.0880879,13.4960938 L21.9552754,13.296875 L22.0216817,13.296875 L21.9552754,13.1640625 C21.9552754,13.1197914 21.9774106,13.0976562 22.0216817,13.0976562 C21.9774106,13.0091141 21.9552754,12.9427086 21.9552754,12.8984375 L21.8888692,12.8984375 L21.8888692,13.03125 L21.8224629,13.03125 C21.8224629,12.8098947 21.8003277,12.6992188 21.7560567,12.6992188 L21.8224629,12.5664062 L21.8224629,12.5 C21.8224629,12.4557289 21.8003277,12.4335938 21.7560567,12.4335938 C21.8003277,12.3450516 21.8224629,12.2786461 21.8224629,12.234375 L21.8888692,12.234375 L21.8888692,12.8320312 L21.9552754,12.8320312 C21.9552754,12.2786431 21.9774106,11.8802096 22.0216817,11.6367188 L21.9552754,11.6367188 C21.9552754,11.5924477 21.9774106,11.5703125 22.0216817,11.5703125 C21.9774106,10.8730434 21.8888698,10.2089875 21.7560567,9.578125 C21.8003277,9.50065065 21.8224629,9.41210987 21.8224629,9.3125 C21.7671241,9.11328025 21.5236369,8.8919283 21.0919942,8.6484375 L20.9591817,8.71484375 L20.9591817,8.515625 L20.8927754,8.515625 L20.8927754,8.6484375 C20.7820978,8.55989539 20.693557,8.515625 20.6271504,8.515625 L20.8263692,8.25 L20.6271504,8.25 L20.6271504,8.18359375 C20.8042346,8.18359375 20.8927754,8.13932336 20.8927754,8.05078125 C20.8485044,8.05078125 20.8263692,8.02864605 20.8263692,7.984375 C21.114131,7.76301973 21.2912126,7.65234375 21.3576192,7.65234375 L22.4201192,7.65234375 C22.519729,7.65234375 22.6082698,7.63020855 22.6857442,7.5859375 C22.7632185,7.63020855 22.8738945,7.65234375 23.0177754,7.65234375 C23.1948596,7.65234375 23.460482,7.60807336 23.8146504,7.51953125 L23.8146504,7.5859375 C24.0360057,7.49739539 24.2130873,7.453125 24.3459004,7.453125 C24.3459004,7.49739605 24.3680356,7.51953125 24.4123067,7.51953125 C24.4123067,7.4752602 24.4344419,7.453125 24.4787129,7.453125 C24.4787129,7.49739605 24.5008481,7.51953125 24.5451192,7.51953125 L24.5451192,7.453125 C24.6779323,7.49739605 24.7443379,7.54166645 24.7443379,7.5859375 L25.6740254,7.453125 L25.6076192,7.5859375 L25.9396504,7.5859375 L25.9396504,7.65234375 L25.8068379,7.65234375 L25.8068379,7.78515625 C25.8732445,7.78515625 25.9617853,7.82942664 26.0724629,7.91796875 L26.0724629,7.71875 C26.1499373,7.71875 26.2163428,7.87369637 26.2716817,8.18359375 L26.2052754,8.18359375 L26.2716817,8.31640625 L26.2716817,8.6484375 L26.1388692,8.84765625 C26.1831402,8.93619836 26.2052754,9.00260395 26.2052754,9.046875 L26.2716817,9.046875 C26.2716817,8.82551973 26.7365208,8.51562699 27.6662129,8.1171875 L27.6662129,8.18359375 C27.7990261,8.18359375 27.8654317,8.11718816 27.8654317,7.984375 L27.9982442,8.05078125 C27.9982442,7.81835821 28.6844352,7.59700626 30.0568379,7.38671875 C30.2671254,7.38671875 30.6212886,7.43098914 31.1193379,7.51953125 L31.1193379,7.453125 C31.1525412,7.453125 31.351758,7.54166578 31.7169942,7.71875 L31.7169942,7.65234375 C31.6727231,7.65234375 31.6505879,7.63020855 31.6505879,7.5859375 C31.7834011,7.5859375 31.8498067,7.63020789 31.8498067,7.71875 C31.8055356,7.71875 31.7834004,7.7408852 31.7834004,7.78515625 L31.9162129,7.8515625 L31.9162129,7.78515625 C31.9936873,7.8294273 32.082228,7.8515625 32.1818379,7.8515625 L32.1154317,7.984375 L32.1154317,8.05078125 L32.2482442,7.984375 C32.2814475,7.984375 32.5027994,8.13932137 32.9123067,8.44921875 C32.9676455,8.44921875 33.0783215,8.58202992 33.2443379,8.84765625 C33.4988965,8.84765625 33.786654,9.51171211 34.1076192,10.8398438 C34.1076192,11.3710964 34.1518896,11.6367188 34.2404317,11.6367188 C34.2404317,11.6809898 34.2182965,11.703125 34.1740254,11.703125 L34.2404317,12.0351562 L34.2404317,12.6992188 C34.2404317,12.7434898 34.2625669,12.765625 34.3068379,12.765625 L34.2404317,12.8984375 L34.2404317,14.7578125 L34.3068379,14.890625 L34.2404317,14.890625 L34.3068379,15.0234375 L34.3068379,15.6210938 C34.3068379,15.6653648 34.3289731,15.6875 34.3732442,15.6875 L34.3068379,15.8203125 L34.3068379,16.2851562 C34.3068379,16.3847661 34.3289731,16.4733069 34.3732442,16.5507812 C34.3289731,16.6393234 34.3068379,16.7057289 34.3068379,16.75 L34.3732442,17.1484375 C34.3289731,17.2369796 34.3068379,17.3033852 34.3068379,17.3476562 C34.5060577,18.4212293 34.6831392,19.1074204 34.8380879,19.40625 C34.9155623,19.6940119 35.0262382,19.8489582 35.1701192,19.8710938 L35.3029317,19.8046875 C35.3029317,19.9375007 35.3914724,20.0039062 35.5685567,20.0039062 C35.5685567,20.0924484 35.5021511,20.1367188 35.3693379,20.1367188 C35.3693379,20.2695319 35.5021491,20.3359375 35.7677754,20.3359375 C35.7677754,20.4687507 35.7013698,20.5351562 35.5685567,20.5351562 L35.5685567,20.734375 L35.6349629,20.734375 L35.7677754,20.6679688 L35.7677754,20.734375 C35.7677754,20.7786461 35.612829,20.889322 35.3029317,21.0664062 C34.8491534,21.0221352 34.4949902,21 34.2404317,21 L34.2404317,21.1328125 Z M21.8888692,12.1679688 L21.8224629,12.1679688 L21.8224629,11.5039062 L21.8888692,11.5039062 L21.8888692,12.1679688 Z M22.0216817,13.7617188 L22.0216817,13.6289062 L21.9552754,13.6289062 L21.9552754,13.7617188 L22.0216817,13.7617188 Z M26.0060567,15.5546875 L26.0060567,15.3554688 L25.9396504,15.3554688 L25.9396504,15.5546875 L26.0060567,15.5546875 Z M21.8888692,16.3515625 L21.8224629,16.3515625 L21.8224629,16.21875 L21.8888692,16.21875 L21.8888692,16.3515625 Z M26.2716817,17.4140625 L26.2052754,17.4140625 L26.2052754,17.2148438 L26.2716817,17.2148438 L26.2716817,17.4140625 Z M20.7599629,20.46875 L20.6271504,20.46875 L20.6271504,20.4023438 L20.7599629,20.4023438 L20.7599629,20.46875 Z M27.4669942,20.6015625 L27.3341817,20.6015625 L27.3341817,20.5351562 L27.4669942,20.5351562 L27.4669942,20.6015625 Z M27.5998067,20.734375 C27.5112646,20.734375 27.4669942,20.6901046 27.4669942,20.6015625 L27.5998067,20.6015625 L27.5998067,20.734375 Z M29.9240254,21 L29.9240254,20.9335938 L29.7912129,20.8671875 L29.7248067,21 L29.7912129,21 C29.7912129,20.9557289 29.8133481,20.9335938 29.8576192,20.9335938 C29.8576192,20.9778648 29.8797544,21 29.9240254,21 Z M21.1584004,21 L21.0255879,21 L21.0255879,20.9335938 L21.1584004,20.9335938 L21.1584004,21 Z M41.1728203,21.4150391 L41.0400078,21.4150391 C40.9957368,21.4150391 40.9736016,21.3929039 40.9736016,21.3486328 L40.8407891,21.4150391 L40.7079766,21.4150391 L40.7079766,21.2822266 L40.5751641,21.3486328 C40.4976897,21.3043618 40.409149,21.2822266 40.3095391,21.2822266 C40.3095391,21.3264976 40.2874039,21.3486328 40.2431328,21.3486328 L40.2431328,21.1494141 C40.1545907,21.1936851 40.0881851,21.2158203 40.0439141,21.2158203 L39.8446953,21.2158203 L39.8446953,21.2822266 C39.7561532,21.1936845 39.4683957,21.1272789 38.9814141,21.0830078 C38.9814141,21.027669 38.8043325,20.9391282 38.4501641,20.8173828 L38.5165703,20.6845703 L38.5165703,20.6181641 C38.3948249,20.6181641 37.9963914,20.1975954 37.3212578,19.3564453 C37.2327157,18.8583959 37.1441749,18.4820976 37.0556328,18.2275391 C37.0556328,17.5192022 37.2105792,16.8994167 37.5204766,16.3681641 C37.4762055,16.279622 37.4540703,16.2132164 37.4540703,16.1689453 L37.5868828,16.2353516 L37.5204766,16.1025391 L37.5204766,16.0361328 L37.7196953,16.1689453 L37.7196953,16.1025391 C37.6754243,16.1025391 37.6532891,16.0804039 37.6532891,16.0361328 C37.6975601,16.0361328 37.7196953,16.0139976 37.7196953,15.9697266 L37.6532891,15.9697266 C38.0627963,15.1285765 38.6383114,14.5530614 39.3798516,14.2431641 C40.1877983,13.4905561 40.8739894,13.1142578 41.4384453,13.1142578 L41.4384453,13.0478516 L41.3056328,13.0478516 L41.3056328,12.9814453 L41.4384453,12.9814453 L41.5712578,13.0478516 L41.8368828,12.9150391 L41.8368828,12.9814453 C42.013967,12.9814453 42.1025078,12.8929045 42.1025078,12.7158203 L42.3681328,12.7158203 C42.4677427,12.7158203 42.7776354,12.6494147 43.2978203,12.5166016 C43.3863624,12.5608726 43.452768,12.5830078 43.4970391,12.5830078 L43.4970391,12.5166016 C43.6298522,12.5608726 43.6962578,12.605143 43.6962578,12.6494141 C44.3603236,12.5166009 44.6923516,12.4059249 44.6923516,12.3173828 L44.6259453,12.3173828 L44.6923516,12.1845703 C44.5484707,11.4319624 44.4599299,11.0556641 44.4267266,11.0556641 C44.0725581,10.6461568 43.7626654,10.4248049 43.4970391,10.3916016 L43.5634453,10.2587891 C43.3863611,10.2587891 43.2314147,10.1923835 43.0986016,10.0595703 L42.9657891,10.0595703 L42.8329766,10.1259766 L42.8329766,9.99316406 L42.7001641,10.0595703 L42.7001641,9.92675781 L42.5673516,9.92675781 L42.6337578,10.0595703 L42.5009453,10.0595703 C42.4566743,10.0595703 42.3902687,10.0374351 42.3017266,9.99316406 C40.8407818,10.2477226 40.1103203,10.513345 40.1103203,10.7900391 C39.9332361,10.8121746 39.8446953,10.8785802 39.8446953,10.9892578 C39.8889664,10.9892578 39.9111016,11.011393 39.9111016,11.0556641 C39.7340174,11.0556641 39.5348006,11.3212864 39.3134453,11.8525391 L39.1806328,11.7861328 C39.1806328,12.0738947 39.0699569,12.2731114 38.8486016,12.3837891 C38.7157884,13.0035838 38.5387069,13.3134766 38.3173516,13.3134766 L38.2509453,13.0478516 L38.1181328,13.0478516 L38.1181328,13.1806641 L37.9189141,13.1806641 C37.9189141,13.092122 37.8746437,13.0478516 37.7861016,13.0478516 L37.8525078,12.9150391 L37.7861016,12.7822266 C37.8303726,12.7822266 37.8525078,12.7600914 37.8525078,12.7158203 L37.7861016,12.7158203 C37.7861016,12.7600914 37.7639664,12.7822266 37.7196953,12.7822266 L37.5868828,11.9853516 C37.6754249,11.4540989 37.7418305,11.1884766 37.7861016,11.1884766 L37.6532891,10.3916016 L37.7196953,10.3916016 C37.7196953,10.3473305 37.6975601,10.3251953 37.6532891,10.3251953 L37.7196953,9.99316406 L37.7196953,9.39550781 C37.7196953,9.35123676 37.7418305,9.32910156 37.7861016,9.32910156 L37.7196953,9.19628906 L37.7196953,8.99707031 C37.8082374,8.88639268 37.8525078,8.7757167 37.8525078,8.66503906 L37.9189141,8.66503906 L37.9189141,8.79785156 L37.9853203,8.79785156 L37.9853203,8.73144531 C37.9410493,8.6429032 37.9189141,8.57649762 37.9189141,8.53222656 L38.1181328,8.53222656 L38.1181328,8.66503906 L38.3173516,8.66503906 L38.3173516,8.53222656 L38.3837578,8.53222656 L38.3837578,8.66503906 L38.4501641,8.66503906 C38.4501641,8.59863248 38.4944345,8.53222689 38.5829766,8.46582031 C38.9814161,8.68717559 39.2470384,8.79785156 39.3798516,8.79785156 L39.6454766,8.79785156 C39.8446963,8.79785156 40.4202114,8.57649961 41.3720391,8.13378906 C41.5933944,8.13378906 41.9254223,8.02311309 42.3681328,7.80175781 L42.5009453,7.86816406 L43.5634453,7.40332031 L43.8290703,7.53613281 C44.1278999,7.49186176 44.3271167,7.44759137 44.4267266,7.40332031 C44.4267266,7.44759137 44.4488618,7.46972656 44.4931328,7.46972656 L44.4931328,7.40332031 C44.6370138,7.49186242 44.7476897,7.53613281 44.8251641,7.53613281 C44.8251641,7.49186176 44.8472993,7.46972656 44.8915703,7.46972656 C44.8915703,7.51399762 44.9137055,7.53613281 44.9579766,7.53613281 C44.9579766,7.49186176 44.9801118,7.46972656 45.0243828,7.46972656 C45.0243828,7.55826867 45.4228163,7.66894465 46.2196953,7.80175781 C46.4410506,7.87923216 46.5517266,7.96777294 46.5517266,8.06738281 L46.6845391,8.00097656 C46.6845391,8.05631538 46.9501614,8.25553214 47.4814141,8.59863281 L47.9462578,9.32910156 L48.0126641,9.32910156 L48.0126641,9.26269531 C47.968393,9.1741532 47.9462578,9.10774762 47.9462578,9.06347656 C48.1122743,9.06347656 48.422167,9.72753242 48.8759453,11.0556641 C48.9202164,11.0556641 48.9423516,11.1220696 48.9423516,11.2548828 L48.9423516,11.7197266 L49.0087578,11.8525391 C48.9202157,11.8525391 48.8759453,11.9189446 48.8759453,12.0517578 C48.9202164,12.184571 48.9644868,12.2509766 49.0087578,12.2509766 L48.8095391,12.6494141 L48.8095391,12.7158203 L48.8759453,12.7158203 L48.8759453,12.5830078 L48.9423516,12.5830078 L49.0087578,12.9814453 L48.8759453,12.9814453 L48.8759453,12.7822266 L48.8095391,12.7822266 L48.8095391,13.3134766 L48.9423516,13.3134766 C48.8980805,13.8336615 48.8759453,14.2985006 48.8759453,14.7080078 C48.8759453,14.7522789 48.8538101,14.7744141 48.8095391,14.7744141 C48.8095391,14.8186851 48.8316743,14.8408203 48.8759453,14.8408203 L48.8095391,15.3720703 L48.8759453,15.5048828 L48.8095391,15.5048828 L48.8759453,15.6376953 C48.8759453,15.6819664 48.8538101,15.7041016 48.8095391,15.7041016 C48.8538101,15.7926437 48.8759453,15.8590493 48.8759453,15.9033203 C48.8759453,16.1910822 48.8538101,16.6337861 48.8095391,17.2314453 C48.8538101,17.4860039 48.9644861,17.9065726 49.1415703,18.4931641 C49.0972993,18.5706384 49.0751641,18.6591792 49.0751641,18.7587891 C49.3961292,19.555668 49.6174812,19.9541016 49.7392266,19.9541016 L49.7392266,20.0869141 L49.6064141,20.0869141 L49.6728203,20.2197266 L49.5400078,20.2197266 L49.5400078,20.2861328 C49.6064144,20.2861328 49.6949552,20.3304032 49.8056328,20.4189453 L49.8056328,20.2861328 L49.9384453,20.3525391 L50.0048516,20.3525391 L50.1376641,20.2861328 L50.1376641,20.4853516 C49.9605799,20.4853516 49.8720391,20.5517571 49.8720391,20.6845703 L49.9384453,20.6845703 C50.0269874,20.6402993 50.093393,20.6181641 50.1376641,20.6181641 C50.1376641,20.6624351 50.1597993,20.6845703 50.2040703,20.6845703 L50.1376641,20.8173828 L50.1376641,20.8837891 L50.2040703,21.0166016 C50.0933927,21.0166016 49.9827167,21.060872 49.8720391,21.1494141 L49.6728203,21.1494141 L49.6728203,21.0166016 C49.5842782,21.0276693 49.5400078,21.0719397 49.5400078,21.1494141 C49.0972973,21.105143 48.7874045,21.0830078 48.6103203,21.0830078 C48.5660493,21.0830078 48.5439141,21.0608726 48.5439141,21.0166016 C48.455372,21.0608726 48.3889664,21.0830078 48.3446953,21.0830078 L48.2118828,21.0166016 C47.9462565,21.0608726 47.8134453,21.105143 47.8134453,21.1494141 C47.7691743,21.1494141 47.7470391,21.1272789 47.7470391,21.0830078 L47.4150078,21.1494141 L46.6845391,21.1494141 C46.640268,21.1494141 46.6181328,21.1715493 46.6181328,21.2158203 L46.4853203,21.1494141 L46.4189141,21.1494141 L46.2861016,21.2158203 L46.2861016,21.0830078 C46.1975595,21.0830078 45.9319371,21.0608726 45.4892266,21.0166016 L45.4892266,20.9501953 L45.6884453,20.9501953 C45.1129216,20.4632137 44.7808937,20.0205098 44.6923516,19.6220703 C43.784795,20.1090519 43.2092799,20.5074854 42.9657891,20.8173828 C42.877247,20.7731118 42.8108414,20.7509766 42.7665703,20.7509766 C42.5894861,20.7952476 42.5009453,20.8837884 42.5009453,21.0166016 L42.4345391,21.0166016 L42.4345391,20.8837891 L42.3681328,20.8837891 L42.3681328,21.0166016 L42.1689141,21.0166016 C42.124643,21.0166016 42.1025078,20.9944664 42.1025078,20.9501953 C41.6155262,21.1272795 41.3056335,21.2822259 41.1728203,21.4150391 Z M47.7470391,8.93066406 L47.6806328,8.93066406 L47.6806328,8.79785156 L47.7470391,8.79785156 L47.7470391,8.93066406 Z M37.8525078,11.3876953 L37.8525078,11.2548828 L37.7861016,11.2548828 L37.7861016,11.3876953 L37.8525078,11.3876953 Z M49.0087578,12.0517578 L48.9423516,12.0517578 L48.9423516,11.9189453 L49.0087578,11.9189453 L49.0087578,12.0517578 Z M48.8095391,12.3173828 L48.8095391,12.0517578 L48.7431328,12.0517578 L48.7431328,12.3173828 L48.8095391,12.3173828 Z M42.3681328,18.6259766 L42.3681328,18.5595703 C42.3238618,18.5595703 42.3017266,18.5374351 42.3017266,18.4931641 L42.4345391,18.4931641 C42.4788101,18.4931641 42.5009453,18.5152993 42.5009453,18.5595703 L42.8329766,18.3603516 L42.9657891,18.3603516 L42.8993828,18.4931641 L42.8993828,18.5595703 C43.2424835,18.5595703 43.640917,18.183272 44.0946953,17.4306641 L44.5595391,15.9697266 L44.4931328,15.9697266 C44.5374039,15.7926423 44.6038095,15.637696 44.6923516,15.5048828 L44.6923516,14.8408203 C44.6923516,14.7412104 44.7144868,14.6526697 44.7587578,14.5751953 C44.7144868,14.3981111 44.5595404,14.3095703 44.2939141,14.3095703 C44.2939141,14.3538414 44.2717789,14.3759766 44.2275078,14.3759766 L44.2275078,14.3095703 L44.0946953,14.3759766 C44.0061532,14.3317055 43.9397476,14.3095703 43.8954766,14.3095703 C43.8954766,14.3981124 43.8512062,14.4423828 43.7626641,14.4423828 C43.7626641,14.3981118 43.7405289,14.3759766 43.6962578,14.3759766 L43.6962578,14.4423828 L43.5634453,14.3759766 L43.4970391,14.3759766 L43.5634453,14.5087891 C42.8883117,14.65267 42.3127967,14.9846979 41.8368828,15.5048828 C41.6597986,15.7373058 41.4384467,16.1800098 41.1728203,16.8330078 C41.2170914,16.9215499 41.2392266,16.9879555 41.2392266,17.0322266 L41.3720391,16.9658203 C41.3720391,17.4306664 41.5712558,17.9176407 41.9696953,18.4267578 C41.9254243,18.4267578 41.9032891,18.448893 41.9032891,18.4931641 C42.0361022,18.4931641 42.1910486,18.5374345 42.3681328,18.6259766 Z M47.4814141,14.5087891 L47.4814141,14.3759766 L47.4150078,14.3759766 L47.4150078,14.5087891 L47.4814141,14.5087891 Z M48.7431328,14.7744141 L48.7431328,14.5751953 L48.6767266,14.5751953 L48.6767266,14.7744141 L48.7431328,14.7744141 Z M46.2196953,16.7666016 L46.2196953,16.5673828 L46.1532891,16.5673828 L46.1532891,16.7666016 L46.2196953,16.7666016 Z M41.3056328,16.8994141 L41.2392266,16.8994141 L41.2392266,16.7666016 L41.3056328,16.7666016 L41.3056328,16.8994141 Z M49.8720391,20.2197266 L49.8056328,20.2197266 L49.8056328,20.0205078 L49.8720391,20.0205078 L49.8720391,20.2197266 Z M50.0712578,20.9501953 L50.0712578,20.7509766 L49.9384453,20.7509766 C49.9827164,20.8395187 50.0048516,20.9059243 50.0048516,20.9501953 L50.0712578,20.9501953 Z M49.6728203,20.9501953 L49.6728203,20.8837891 L49.5400078,20.8837891 L49.5400078,20.9501953 L49.6728203,20.9501953 Z M49.8720391,20.9501953 L49.8720391,20.8837891 L49.7392266,20.8837891 L49.7392266,20.9501953 L49.8720391,20.9501953 Z M54.3805996,21.1328125 C54.3363286,21.1328125 54.3141934,21.1106773 54.3141934,21.0664062 C54.1371091,21.1106773 53.9600276,21.1328125 53.7829434,21.1328125 L53.6501309,21.0664062 C53.6501309,21.1106773 53.6279957,21.1328125 53.5837246,21.1328125 C53.5837246,21.0885414 53.5615894,21.0664062 53.5173184,21.0664062 C53.5173184,21.1106773 53.4951832,21.1328125 53.4509121,21.1328125 C53.4509121,21.0885414 53.4287769,21.0664062 53.3845059,21.0664062 L53.3845059,21.1328125 L53.2516934,21.0664062 C52.8864572,21.0664062 52.4437533,21.0442711 51.9235684,21 C51.9235684,20.8561191 51.9014332,20.7454431 51.8571621,20.6679688 C51.9457042,20.6679688 51.9899746,20.6236984 51.9899746,20.5351562 C51.9457036,20.5351562 51.9235684,20.5130211 51.9235684,20.46875 C51.9899749,20.46875 52.0563805,20.4023444 52.1227871,20.2695312 C52.0785161,20.2695312 52.0563809,20.2473961 52.0563809,20.203125 L52.1891934,20.203125 L52.1227871,20.0703125 L52.1227871,20.0039062 L52.2555996,20.0703125 C52.5987003,19.5501276 52.9307282,18.7089902 53.2516934,17.546875 C53.2074223,16.9270802 53.1852871,16.2630244 53.1852871,15.5546875 C53.1852871,15.5104164 53.1631519,15.4882812 53.1188809,15.4882812 L53.1852871,15.3554688 L53.1188809,15.2226562 L53.1188809,15.0234375 C53.0746098,15.0234375 53.0524746,15.0013023 53.0524746,14.9570313 L53.1188809,14.8242188 C53.0746098,14.6914056 53.0303394,14.625 52.9860684,14.625 L53.0524746,14.4921875 L52.9860684,14.0273438 C53.0303394,14.0273438 53.0524746,14.0052086 53.0524746,13.9609375 C53.0082036,13.9609375 52.9860684,13.9388023 52.9860684,13.8945312 L53.0524746,13.8945312 L52.9860684,13.7617188 L52.9860684,13.03125 C52.9860684,12.9869789 53.0082036,12.9648438 53.0524746,12.9648438 L52.9860684,12.8320312 C52.9860684,12.7877602 53.0082036,12.765625 53.0524746,12.765625 C53.0524746,12.7213539 53.0303394,12.6992188 52.9860684,12.6992188 L53.1852871,10.7070312 L53.0524746,10.7734375 C53.0524746,9.91015193 53.0746098,9.06901451 53.1188809,8.25 C53.0303388,7.59700194 52.9639332,6.82227011 52.9196621,5.92578125 L52.9860684,5.79296875 C52.9307295,5.50520689 52.7757832,5.10677338 52.5212246,4.59765625 C52.5654957,4.59765625 52.5876309,4.57552105 52.5876309,4.53125 L52.3884121,4.53125 L52.4548184,4.3984375 C52.144921,4.19921775 51.9899746,4.02213619 51.9899746,3.8671875 L52.1227871,3.8671875 L52.0563809,3.734375 C52.2002618,3.64583289 52.3109378,3.6015625 52.3884121,3.6015625 L52.3884121,3.46875 L52.2555996,3.46875 L52.2555996,3.40234375 L52.4548184,3.40234375 L52.4548184,3.53515625 L52.5876309,3.53515625 L52.5876309,3.40234375 C52.720444,3.40234375 52.7868496,3.42447895 52.7868496,3.46875 L53.4509121,3.40234375 L54.3805996,3.40234375 L54.7790371,3.46875 L55.0446621,3.3359375 L55.9079434,3.46875 C56.206773,3.42447895 56.4502601,3.40234375 56.6384121,3.40234375 L56.5720059,3.53515625 L56.8376309,3.6015625 L56.7712246,3.46875 L56.9040371,3.40234375 C56.9040371,3.57942797 56.9483075,3.66796875 57.0368496,3.66796875 L57.0368496,3.53515625 L57.1696621,3.53515625 C57.1696621,3.66796941 57.2360677,3.734375 57.3688809,3.734375 L57.3024746,4.53125 L57.3024746,5.59375 C57.3024746,5.63802105 57.2803394,5.66015625 57.2360684,5.66015625 C57.2360684,5.7044273 57.2582036,5.7265625 57.3024746,5.7265625 L57.2360684,6.390625 L57.2360684,8.05078125 C57.2360684,8.0950523 57.2582036,8.1171875 57.3024746,8.1171875 L57.2360684,8.25 L57.2360684,8.78125 C57.2360684,8.82552105 57.2582036,8.84765625 57.3024746,8.84765625 L57.2360684,8.98046875 L57.3024746,9.77734375 L57.2360684,10.0429688 L57.3024746,10.0429688 L57.2360684,10.1757812 L57.3688809,10.375 L57.2360684,10.640625 L57.3024746,10.9726562 L57.2360684,11.1054688 C57.2803394,11.1829431 57.3024746,11.2714839 57.3024746,11.3710938 L57.2360684,11.7695312 L57.3688809,11.7695312 L57.3024746,11.9023438 L57.3024746,12.5 C57.3024746,12.8098974 57.2582042,12.9648438 57.1696621,12.9648438 L57.2360684,13.0976562 L57.1696621,13.2304688 L57.2360684,13.2304688 C57.2360684,13.2747398 57.2139332,13.296875 57.1696621,13.296875 C57.2139332,13.8281277 57.2582036,14.09375 57.3024746,14.09375 L57.2360684,14.2265625 C57.2360684,14.2708336 57.2582036,14.2929687 57.3024746,14.2929687 C57.3024746,14.3372398 57.2803394,14.359375 57.2360684,14.359375 L57.3024746,15.0898438 C57.3024746,15.1341148 57.2803394,15.15625 57.2360684,15.15625 L57.3024746,15.2890625 L57.3024746,15.6210938 C57.3024746,15.6653648 57.2803394,15.6875 57.2360684,15.6875 L57.3024746,15.8203125 L57.3024746,16.5507812 L57.3688809,16.8828125 L57.3024746,16.8828125 L57.3688809,17.015625 L57.3688809,17.28125 C57.3688809,17.3255211 57.3467457,17.3476562 57.3024746,17.3476562 L57.4352871,17.7460938 C57.3910161,17.7460938 57.3688809,17.7682289 57.3688809,17.8125 L57.4352871,17.8125 C57.3910161,17.9010421 57.3688809,17.9674477 57.3688809,18.0117188 C57.3688809,19.0852918 57.6566384,19.8157533 58.2321621,20.203125 C58.2321621,20.1588539 58.2542973,20.1367188 58.2985684,20.1367188 C58.3096361,20.2252609 58.3539065,20.2695312 58.4313809,20.2695312 C58.4313809,20.2252602 58.4535161,20.203125 58.4977871,20.203125 C58.4977871,20.3802092 58.5863279,20.46875 58.7634121,20.46875 L58.7634121,20.5351562 L58.6305996,20.5351562 L58.6305996,20.8671875 L58.6970059,20.8671875 L58.6970059,20.6679688 L58.7634121,20.6679688 L58.7634121,21 C58.7191411,21 58.6970059,20.9778648 58.6970059,20.9335938 C58.5199216,21.0221359 58.3649753,21.0664062 58.2321621,21.0664062 L57.6345059,21 L57.6345059,21.0664062 L57.5016934,21 L56.7048184,21 L56.5720059,21.0664062 C56.5720059,21.0221352 56.5498707,21 56.5055996,21 L56.5055996,21.0664062 L56.3727871,21 L55.9079434,21 L55.4430996,21.0664062 C55.4430996,21.0221352 55.4209644,21 55.3766934,21 L55.3766934,21.0664062 C54.9339828,21.0221352 54.7126309,20.9778648 54.7126309,20.9335938 C54.4912756,20.9557293 54.3805996,21.0221349 54.3805996,21.1328125 Z M56.5055996,4.53125 L56.5055996,4.19921875 L56.4391934,4.19921875 L56.4391934,4.53125 L56.5055996,4.53125 Z M56.4391934,4.796875 L56.4391934,4.59765625 L56.3727871,4.59765625 L56.3727871,4.796875 L56.4391934,4.796875 Z M56.4391934,5.0625 L56.4391934,4.9296875 L56.3727871,4.9296875 L56.3727871,5.0625 L56.4391934,5.0625 Z M54.4470059,13.5625 L54.4470059,13.4296875 L54.3805996,13.4296875 L54.3805996,13.5625 L54.4470059,13.5625 Z M67.6713867,21.5810547 L67.6713867,21.5146484 C67.6271157,21.5146484 67.6049805,21.5367836 67.6049805,21.5810547 C65.7566639,21.4593093 64.738445,21.2822277 64.550293,21.0498047 C64.2514633,21.0498047 63.985841,20.9612639 63.753418,20.7841797 C63.753418,20.8284507 63.7312828,20.8505859 63.6870117,20.8505859 L63.6870117,20.7177734 L63.5541992,20.7841797 C63.5541992,20.7399086 63.532064,20.7177734 63.487793,20.7177734 C63.487793,20.7620445 63.4656578,20.7841797 63.4213867,20.7841797 C63.4213867,20.629231 63.2443052,20.4521494 62.8901367,20.2529297 L62.8901367,20.3193359 C62.9344078,20.3193359 62.956543,20.3414711 62.956543,20.3857422 L62.8901367,20.3857422 C62.6798492,20.3857422 62.2150101,19.9430383 61.4956055,19.0576172 C60.6544554,17.5302658 60.2338867,16.3571004 60.2338867,15.5380859 L60.300293,15.5380859 L60.2338867,15.4052734 L60.300293,15.2724609 C60.2117509,15.2724609 60.1674805,15.2281905 60.1674805,15.1396484 C60.1674805,14.9514965 60.1896157,14.8186853 60.2338867,14.7412109 L60.1674805,14.6083984 L60.300293,13.7451172 C60.2560219,13.7451172 60.2338867,13.722982 60.2338867,13.6787109 C60.3224288,13.6787109 60.3888344,13.5237646 60.4331055,13.2138672 L60.300293,13.2138672 C60.3888351,13.0257152 60.4995111,12.6272817 60.6323242,12.0185547 L60.8979492,11.7529297 L60.831543,11.6201172 C60.831543,11.443033 60.8536782,11.2659514 60.8979492,11.0888672 C60.8536782,11.0888672 60.831543,11.066732 60.831543,11.0224609 C61.0418305,10.7014958 61.55094,10.1923863 62.3588867,9.49511719 C62.8790716,8.88639019 63.2553699,8.53222706 63.487793,8.43261719 C63.487793,8.47688824 63.5099282,8.49902344 63.5541992,8.49902344 C64.3510782,7.96777078 65.0815396,7.70214844 65.7456055,7.70214844 C66.2325871,7.49186093 66.4760742,7.33691456 66.4760742,7.23730469 L67.206543,7.23730469 C67.3614917,7.23730469 67.627114,7.30371027 68.003418,7.43652344 L68.003418,7.37011719 C68.3133154,7.41438824 68.4682617,7.45865863 68.4682617,7.50292969 L68.6010742,7.43652344 C68.7117519,7.43652344 69.0216446,7.52506422 69.5307617,7.70214844 L69.5307617,7.63574219 C70.8588934,8.23340143 71.5450844,8.65397014 71.5893555,8.89746094 L71.722168,8.83105469 C72.3862338,9.45084945 72.7182617,9.91568855 72.7182617,10.2255859 C72.6739907,10.2255859 72.6518555,10.2477211 72.6518555,10.2919922 L72.784668,10.2255859 C73.1720397,10.7900419 73.5040676,11.6090441 73.7807617,12.6826172 L73.7807617,12.7490234 C73.7807617,12.7932945 73.7586265,12.8154297 73.7143555,12.8154297 L73.847168,13.0810547 L73.7807617,13.4130859 C73.8693038,14.1435583 73.9357094,14.8740198 73.9799805,15.6044922 C73.8914384,15.7483731 73.847168,15.8590491 73.847168,15.9365234 L73.9135742,15.9365234 C73.8250321,16.1136077 73.7807617,16.2464188 73.7807617,16.3349609 C73.8250328,16.3349609 73.847168,16.3570961 73.847168,16.4013672 C73.7586259,16.412435 73.7143555,16.4567053 73.7143555,16.5341797 C73.7586265,16.611654 73.7807617,16.7001948 73.7807617,16.7998047 C73.6590163,16.7998047 73.4597996,17.2646438 73.1831055,18.1943359 L73.050293,18.1943359 C73.050293,18.238607 73.0724282,18.2607422 73.1166992,18.2607422 C73.1166992,18.3603521 72.983888,18.5374336 72.7182617,18.7919922 L72.7182617,18.9248047 L72.5854492,18.8583984 C72.408365,18.9912116 72.3198242,19.1240228 72.3198242,19.2568359 L72.253418,19.2568359 L72.253418,19.1240234 C71.9656561,19.5888695 71.500817,19.987303 70.8588867,20.3193359 L70.8588867,20.1865234 L70.925293,20.0537109 L70.8588867,20.0537109 L70.7260742,20.2529297 C70.8146163,20.2639975 70.8588867,20.3082678 70.8588867,20.3857422 L70.8588867,20.4521484 L70.7924805,20.4521484 C70.7039384,20.4078774 70.6375328,20.3857422 70.5932617,20.3857422 C70.5711262,20.5406909 70.2390983,20.7177724 69.597168,20.9169922 C69.597168,20.8727211 69.5750328,20.8505859 69.5307617,20.8505859 L69.5307617,20.9833984 L69.4643555,20.9833984 C69.4200844,20.9833984 69.3979492,20.9612632 69.3979492,20.9169922 L69.065918,21.0498047 C69.065918,21.0055336 69.0437828,20.9833984 68.9995117,20.9833984 C68.9995117,21.2822281 68.578943,21.4593096 67.737793,21.5146484 C67.737793,21.5589195 67.7156578,21.5810547 67.6713867,21.5810547 Z M67.3393555,19.5224609 C67.3393555,19.4449866 67.6713834,19.2900402 68.3354492,19.0576172 C69.0991249,18.3714158 69.6082344,17.3974672 69.862793,16.1357422 C69.8185219,16.0472001 69.7963867,15.9807945 69.7963867,15.9365234 L69.9291992,16.0029297 L69.9291992,15.9365234 C69.9291992,15.8922524 69.907064,15.8701172 69.862793,15.8701172 L69.9291992,15.7373047 L69.862793,15.6044922 L69.9291992,15.6044922 C69.9291992,15.5602211 69.907064,15.5380859 69.862793,15.5380859 L69.9291992,15.2724609 L69.862793,14.9404297 C69.907064,14.7080067 69.9291992,14.4866547 69.9291992,14.2763672 C69.8849282,14.1878251 69.862793,14.1214195 69.862793,14.0771484 L69.9291992,14.0771484 L69.862793,13.9443359 L69.9291992,13.8115234 C69.8406571,13.8115234 69.7963867,13.767253 69.7963867,13.6787109 L69.7963867,13.6123047 C69.7963867,13.5680336 69.8185219,13.5458984 69.862793,13.5458984 L69.7963867,13.4130859 L69.7963867,13.2802734 L69.9291992,13.3466797 C69.8849282,13.2138665 69.8406578,13.1474609 69.7963867,13.1474609 L69.862793,13.0146484 L69.862793,12.8154297 C69.7521153,12.8154297 69.6414394,12.5498073 69.5307617,12.0185547 C69.2097966,11.3434211 68.8556334,10.767906 68.4682617,10.2919922 L68.6674805,10.2919922 C68.5568028,10.114908 68.4018565,10.0263672 68.2026367,10.0263672 L68.269043,9.89355469 C68.0476877,9.89355469 67.9370117,9.80501391 67.9370117,9.62792969 L67.472168,9.62792969 C67.3725581,9.62792969 67.2840173,9.65006488 67.206543,9.69433594 L67.0737305,9.62792969 C66.2768515,9.73860732 65.878418,9.89355369 65.878418,10.0927734 L65.7456055,10.0263672 L65.6791992,10.1591797 C65.7234703,10.1591797 65.7456055,10.1813149 65.7456055,10.2255859 C65.6127923,10.269857 65.5463867,10.4026682 65.5463867,10.6240234 L65.4135742,10.5576172 L65.2807617,10.6240234 L65.347168,10.7568359 L65.347168,10.8896484 C65.1700838,10.8896484 65.081543,10.9781892 65.081543,11.1552734 L65.1479492,11.2880859 C65.0926104,11.5426445 64.9819344,11.7639965 64.815918,11.9521484 L64.7495117,11.9521484 L64.7495117,12.0185547 C64.7495117,12.0628257 64.7716469,12.0849609 64.815918,12.0849609 C64.7716469,12.2620452 64.6831061,12.3505859 64.550293,12.3505859 L64.550293,12.5498047 L64.6831055,12.4833984 L64.6831055,12.8154297 L64.550293,12.8154297 C64.550293,12.8597007 64.5724282,12.8818359 64.6166992,12.8818359 L64.550293,13.2138672 L64.550293,13.5458984 C64.550293,13.5901695 64.5724282,13.6123047 64.6166992,13.6123047 L64.550293,13.7451172 L64.550293,14.4755859 L64.4838867,14.8076172 L64.550293,14.8076172 L64.4838867,14.9404297 C64.4838867,15.5380889 64.5502923,16.002928 64.6831055,16.3349609 L64.6166992,16.3349609 L64.7495117,16.7333984 L64.6831055,16.7333984 C64.7937831,17.0211603 65.0594054,17.4859994 65.4799805,18.1279297 L65.347168,18.1279297 L65.7456055,18.6591797 C65.7013344,18.6591797 65.6791992,18.6813149 65.6791992,18.7255859 C65.7788091,18.814128 65.9116203,18.8583984 66.0776367,18.8583984 L66.0112305,18.9912109 L66.0776367,18.9912109 C66.0776367,18.9469399 66.0997719,18.9248047 66.144043,18.9248047 C66.144043,19.1572277 66.4982061,19.3121741 67.206543,19.3896484 L67.206543,19.4560547 L66.940918,19.4560547 L66.940918,19.5224609 L67.3393555,19.5224609 Z M68.534668,9.95996094 C68.4903969,9.87141883 68.4682617,9.80501324 68.4682617,9.76074219 L68.3354492,9.76074219 L68.3354492,9.89355469 C68.3797203,9.89355469 68.4461259,9.91568988 68.534668,9.95996094 Z M65.8120117,10.2919922 L65.8120117,10.1591797 L65.9448242,10.1591797 C65.9448242,10.2477218 65.9005538,10.2919922 65.8120117,10.2919922 Z M65.4799805,10.4912109 L65.4799805,10.4248047 L65.347168,10.4248047 L65.347168,10.4912109 L65.4799805,10.4912109 Z M73.7143555,13.4794922 L73.7143555,13.0810547 L73.6479492,13.0810547 L73.6479492,13.4794922 L73.7143555,13.4794922 Z M60.4995117,16.0693359 C60.4995117,15.9807938 60.4552413,15.9365234 60.3666992,15.9365234 L60.3666992,16.0693359 L60.4995117,16.0693359 Z M66.6088867,19.7880859 L66.6088867,19.7216797 L66.4760742,19.7216797 L66.4760742,19.7880859 L66.6088867,19.7880859 Z M70.7260742,20.5185547 L70.5932617,20.5185547 L70.5932617,20.4521484 L70.7260742,20.4521484 L70.7260742,20.5185547 Z M84.0500644,28.1054688 C83.7290993,28.1054688 83.3749362,28.0833336 82.9875644,28.0390625 L82.5891269,28.1054688 L82.5891269,28.0390625 C82.5448559,28.0390625 82.5227207,28.0611977 82.5227207,28.1054688 C81.9029259,28.0169266 81.4380868,27.9283859 81.1281894,27.8398438 L80.9953769,27.90625 C80.8846993,27.90625 79.9992915,27.6627629 78.3391269,27.1757812 L78.3391269,27.2421875 L78.2063144,27.1757812 L78.1399082,27.1757812 C77.6971976,27.4414076 77.2766289,27.5742188 76.8781894,27.5742188 L76.7453769,27.4414062 C76.789648,27.3528641 76.8117832,27.2864586 76.8117832,27.2421875 L76.6789707,27.1757812 L76.7453769,27.0429688 L76.7453769,26.9765625 L76.6125644,26.9765625 C76.6125644,26.7552072 76.6568348,26.3346385 76.7453769,25.7148438 L76.6789707,25.3164062 C77.0774102,23.2799377 77.2766269,22.2395836 77.2766269,22.1953125 L77.2102207,22.1953125 C77.3430339,21.796873 77.4979802,21.5976562 77.6750644,21.5976562 L77.6086582,21.7304688 C77.6529292,21.7304688 77.6750644,21.7526039 77.6750644,21.796875 C77.6307934,21.796875 77.6086582,21.8190102 77.6086582,21.8632812 L77.8078769,21.8632812 C77.8078769,21.686197 77.8521473,21.5976562 77.9406894,21.5976562 L78.0070957,21.5976562 C78.0070957,21.7747405 78.0513661,21.8632812 78.1399082,21.8632812 L78.0735019,21.9960938 C78.1731118,23.0032602 78.3723286,23.6673161 78.6711582,23.9882812 C79.1692076,24.4973984 79.9882098,24.8515615 81.1281894,25.0507812 C81.7479842,25.1835944 82.1242825,25.25 82.2570957,25.25 C82.2570957,25.2057289 82.2792309,25.1835938 82.3235019,25.1835938 L82.3235019,25.3164062 L82.4563144,25.25 L82.6555332,25.25 C82.6998042,25.25 82.7219394,25.2721352 82.7219394,25.3164062 C83.3417342,25.3164062 83.9615197,25.0065135 84.5813144,24.3867188 C85.2011092,23.7337207 85.5110019,22.8483129 85.5110019,21.7304688 C85.367121,21.6419266 85.2343098,21.5976562 85.1125644,21.5976562 C85.1236322,21.5091141 85.1679026,21.4648438 85.2453769,21.4648438 L85.1789707,21.3320312 L85.1789707,21.265625 L85.3117832,21.265625 L85.3117832,21.1328125 L84.9133457,21.265625 L84.6477207,21.1328125 C84.2271457,21.2213546 83.9172529,21.3098954 83.7180332,21.3984375 L83.7180332,21.3320312 C83.5741523,21.4205734 83.4634763,21.4648438 83.3860019,21.4648438 L83.3860019,21.3984375 L83.2531894,21.4648438 L83.0539707,21.4648438 L82.9211582,21.3984375 C82.9211582,21.4427086 82.899023,21.4648438 82.8547519,21.4648438 L82.8547519,21.3320312 L82.7883457,21.3320312 C82.7883457,21.4648444 82.7440753,21.53125 82.6555332,21.53125 L82.6555332,21.4648438 L82.5227207,21.53125 L82.3235019,21.53125 C82.2792309,21.53125 82.2570957,21.5091148 82.2570957,21.4648438 C82.2128246,21.4648438 82.1906894,21.4869789 82.1906894,21.53125 C81.7479789,21.4537757 81.5266269,21.3873701 81.5266269,21.3320312 L81.3938144,21.3984375 L81.2610019,21.3984375 L81.2610019,21.265625 L81.1281894,21.3320312 C80.9289697,21.2434891 80.6412122,21.1549484 80.2649082,21.0664062 L80.2649082,21.1328125 L79.2024082,20.6015625 L79.2024082,20.734375 L79.1360019,20.734375 L79.1360019,20.6015625 L79.0031894,20.6679688 C79.0031894,20.5794266 78.8261079,20.4244803 78.4719394,20.203125 L78.5383457,20.0703125 L78.4055332,20.1367188 C78.3169911,20.1367188 78.2727207,20.0924484 78.2727207,20.0039062 C78.3169917,20.0039062 78.3391269,19.9817711 78.3391269,19.9375 C78.2948559,19.9375 78.2727207,19.9153648 78.2727207,19.8710938 L78.1399082,19.9375 L78.0735019,19.9375 C78.0735019,19.8710934 77.9849612,19.7825526 77.8078769,19.671875 L77.8078769,19.5390625 L78.0735019,19.7382812 C78.0735019,19.6940102 78.0956371,19.671875 78.1399082,19.671875 C78.1399082,19.8046882 78.2727194,19.8710938 78.5383457,19.8710938 L78.5383457,19.8046875 C78.4055325,19.8046875 78.3391269,19.7604171 78.3391269,19.671875 L78.2063144,19.7382812 L78.1399082,19.6054688 C78.1841792,19.6054688 78.2063144,19.5833336 78.2063144,19.5390625 L78.0735019,19.5390625 L77.9406894,19.6054688 C77.9406894,19.5169266 77.8964191,19.4726562 77.8078769,19.4726562 L77.8742832,19.3398438 L77.7414707,19.2734375 C77.7414707,19.3177086 77.7193355,19.3398438 77.6750644,19.3398438 C77.4979802,19.1627595 77.4094394,19.0078132 77.4094394,18.875 L77.2766269,18.9414062 L77.2766269,18.875 L77.3430332,18.7421875 C77.2212878,18.7089842 77.1106118,18.5983082 77.0110019,18.4101562 C77.055273,18.4101562 77.0774082,18.3880211 77.0774082,18.34375 C77.0110016,18.34375 76.9224608,18.2994796 76.8117832,18.2109375 L76.8781894,18.078125 L76.8781894,18.0117188 C76.5682921,17.6464825 76.4133457,16.9602915 76.4133457,15.953125 C76.3690746,15.953125 76.3469394,15.8645842 76.3469394,15.6875 C76.3469394,15.6432289 76.3690746,15.6210938 76.4133457,15.6210938 L76.3469394,15.3554688 L76.3469394,14.8242188 L76.4133457,14.8242188 C76.4133457,15.2669293 76.4576161,15.4882812 76.5461582,15.4882812 C76.5018871,15.0898418 76.4576167,14.8463546 76.4133457,14.7578125 C76.5018878,14.7578125 76.5461582,14.7135421 76.5461582,14.625 L76.4133457,14.625 L76.4133457,14.4921875 C76.4244135,14.4036454 76.4686838,14.359375 76.5461582,14.359375 L76.4133457,14.09375 C76.4133457,13.7727849 76.5461569,13.4186217 76.8117832,13.03125 L76.7453769,12.8984375 C76.9003256,12.5332013 77.1216776,12.1790382 77.4094394,11.8359375 C77.4094394,11.7363276 77.4315746,11.6477868 77.4758457,11.5703125 L77.4094394,11.5703125 C77.4094394,11.2604151 77.5422506,11.1054688 77.8078769,11.1054688 C78.1399099,10.7734358 78.5826138,10.2864615 79.1360019,9.64453125 C79.2134763,9.64453125 79.3905579,9.48958488 79.6672519,9.1796875 C80.0103526,9.1796875 80.3645157,9.00260594 80.7297519,8.6484375 C80.9511072,8.69270855 81.0617832,8.73697895 81.0617832,8.78125 C81.6926457,8.51562367 82.0246737,8.3828125 82.0578769,8.3828125 L82.1242832,8.515625 L82.5227207,8.31640625 L82.5891269,8.31640625 L82.5227207,8.44921875 C82.5891273,8.4049477 82.7219384,8.3828125 82.9211582,8.3828125 L82.8547519,8.25 L83.0539707,8.25 L82.9875644,8.3828125 L83.1203769,8.31640625 L83.5188144,8.31640625 C83.5630855,8.31640625 83.5852207,8.33854145 83.5852207,8.3828125 L83.7180332,8.31640625 L84.1164707,8.31640625 L84.1164707,8.3828125 L83.9172519,8.3828125 L83.9172519,8.44921875 L84.3156894,8.44921875 C84.3599605,8.44921875 84.3820957,8.42708355 84.3820957,8.3828125 L84.6477207,8.515625 L84.9133457,8.3828125 L85.0461582,8.44921875 L85.1789707,8.3828125 L85.5774082,8.515625 L85.5774082,8.3828125 L85.7102207,8.44921875 C85.7987628,8.4049477 85.8651684,8.3828125 85.9094394,8.3828125 C85.9094394,8.44921908 86.0201154,8.51562467 86.2414707,8.58203125 C86.2857417,8.58203125 86.3078769,8.55989605 86.3078769,8.515625 L86.6399082,8.58203125 L86.9719394,8.58203125 L87.3039707,8.515625 L87.3039707,8.58203125 L87.4367832,8.515625 C87.5253253,8.55989605 87.5917309,8.58203125 87.6360019,8.58203125 L87.6360019,8.515625 L87.7688144,8.58203125 L87.8352207,8.58203125 L87.8352207,8.3828125 L87.9680332,8.3828125 L87.9016269,8.515625 L87.9680332,8.515625 C88.0565753,8.47135395 88.1229809,8.44921875 88.1672519,8.44921875 C88.1672519,8.4934898 88.1893871,8.515625 88.2336582,8.515625 C88.244726,8.42708289 88.2889963,8.3828125 88.3664707,8.3828125 L88.3664707,8.515625 L88.5656894,8.515625 L88.4992832,8.3828125 L88.6320957,8.3828125 L88.6320957,8.515625 L88.6985019,8.515625 C88.7870441,8.515625 88.8313144,8.47135461 88.8313144,8.3828125 L88.9641269,8.44921875 L89.8938144,8.44921875 C89.9823566,8.44921875 90.0708973,8.58202992 90.1594394,8.84765625 C89.8495421,8.90299507 89.6945957,9.05794144 89.6945957,9.3125 C89.6945957,9.35677105 89.6503253,9.37890625 89.5617832,9.37890625 C89.6060542,9.46744836 89.6281894,9.53385395 89.6281894,9.578125 L89.6281894,9.7109375 L89.5617832,9.7109375 L89.5617832,9.51171875 L89.4953769,9.51171875 L89.4289707,10.3085938 C89.4732417,10.3971359 89.4953769,10.4635414 89.4953769,10.5078125 C89.4511059,10.5078125 89.4289707,10.5299477 89.4289707,10.5742188 L89.4953769,10.5742188 L89.4289707,10.7070312 L89.4289707,11.0390625 C89.4289707,11.0833336 89.4511059,11.1054688 89.4953769,11.1054688 L89.4289707,11.2382812 C89.4732417,11.3157556 89.4953769,11.4042964 89.4953769,11.5039062 L89.3625644,11.4375 L89.3625644,11.703125 C89.3625644,12.0130224 89.4068348,12.2565095 89.4953769,12.4335938 L89.4289707,12.4335938 C89.4289707,12.4778648 89.4511059,12.5 89.4953769,12.5 L89.4289707,12.8320312 L89.4953769,13.2304688 L89.3625644,13.2304688 C89.4511066,13.5182306 89.4953769,13.6953122 89.4953769,13.7617188 L89.4289707,13.7617188 L89.4953769,13.8945312 C89.4953769,13.9830734 89.4511066,14.1380197 89.3625644,14.359375 L89.4953769,15.2226562 L89.4289707,15.2226562 L89.4953769,15.3554688 C89.4953769,15.3997398 89.4732417,15.532551 89.4289707,15.7539062 L89.4953769,15.7539062 L89.4289707,15.8867188 L89.4289707,16.3515625 L89.2961582,16.3515625 L89.2961582,16.4179688 L89.4289707,16.4179688 L89.4289707,16.484375 L89.2961582,16.484375 L89.2961582,16.5507812 L89.4289707,16.5507812 L89.3625644,16.6835938 L89.3625644,16.75 L89.4289707,16.75 L89.4289707,16.6171875 L89.4953769,16.6171875 L89.4953769,16.75 C89.4953769,16.7942711 89.4732417,16.8606766 89.4289707,16.9492188 C89.5175128,17.5358102 89.5617832,17.9563789 89.5617832,18.2109375 C89.5175121,18.2109375 89.4953769,18.2330727 89.4953769,18.2773438 C89.5839191,18.2884115 89.6281894,18.3326819 89.6281894,18.4101562 L89.4953769,18.4101562 L89.4953769,18.609375 C89.4953769,18.6536461 89.5175121,18.6757812 89.5617832,18.6757812 L89.4953769,18.8085938 L89.4953769,19.0742188 L89.6281894,19.0742188 L89.6281894,19.140625 L89.4953769,19.140625 C89.539648,19.2734382 89.5839184,19.3398438 89.6281894,19.3398438 L89.5617832,19.4726562 L89.5617832,19.8046875 L89.6945957,20.0039062 L89.5617832,20.0039062 L89.5617832,20.0703125 L89.6945957,20.0703125 L89.6945957,20.3359375 L89.4953769,20.3359375 C89.5064447,20.4244796 89.5507151,20.46875 89.6281894,20.46875 C89.6281894,20.4244789 89.6503246,20.4023438 89.6945957,20.4023438 L89.6945957,20.6679688 L89.6281894,20.6679688 L89.6281894,20.5351562 C89.5396473,20.546224 89.4953769,20.5904944 89.4953769,20.6679688 L89.6281894,20.6679688 C89.5396473,20.845053 89.4953769,20.9999993 89.4953769,21.1328125 C89.539648,21.1328125 89.5617832,21.1549477 89.5617832,21.1992188 C89.5175121,21.1992188 89.4953769,21.2213539 89.4953769,21.265625 C89.539648,21.265625 89.5617832,21.2877602 89.5617832,21.3320312 L89.4953769,21.3320312 C89.5728513,21.4537767 89.6392569,21.719399 89.6945957,22.1289062 C89.6060536,22.2727872 89.5617832,22.3834632 89.5617832,22.4609375 C89.6060542,22.7819026 89.6503246,22.9811194 89.6945957,23.0585938 C89.5839181,23.0585938 89.4953773,23.2799457 89.4289707,23.7226562 L89.4953769,23.7226562 L89.4289707,23.8554688 L89.4289707,23.921875 L89.5617832,23.921875 C89.5617832,24.0104171 89.4953776,24.0546875 89.3625644,24.0546875 L89.3625644,24.1210938 L89.4289707,24.2539062 C89.3625641,24.2539062 89.2961585,24.3203118 89.2297519,24.453125 L89.2961582,24.453125 C88.9862608,25.0729198 88.5435569,25.8033812 87.9680332,26.6445312 C87.5253226,27.0872418 86.7505908,27.4856753 85.6438144,27.8398438 C85.6438144,27.7955727 85.6216792,27.7734375 85.5774082,27.7734375 L85.5110019,27.90625 L85.3781894,27.8398438 L85.3117832,27.8398438 L85.3117832,27.9726562 C85.2675121,27.9726562 85.2011066,27.9505211 85.1125644,27.90625 C84.7805315,27.9505211 84.5591796,27.9947914 84.4485019,28.0390625 L84.4485019,27.9726562 C84.304621,28.0611984 84.1718098,28.1054688 84.0500644,28.1054688 Z M85.3117832,8.58203125 L85.3117832,8.515625 L85.1789707,8.515625 L85.1789707,8.58203125 L85.3117832,8.58203125 Z M88.4992832,8.78125 L88.5656894,8.6484375 C88.4771473,8.69270855 88.4107417,8.71484375 88.3664707,8.71484375 L88.3664707,8.78125 L88.4992832,8.78125 Z M82.3899082,19.2734375 L82.3899082,19.2070312 L82.3235019,19.0742188 L82.3899082,19.0742188 C82.4341792,19.0742188 82.4563144,19.0963539 82.4563144,19.140625 C83.1535836,19.0963539 83.8397746,18.8971372 84.5149082,18.5429688 C84.6034503,18.5872398 84.6698559,18.609375 84.7141269,18.609375 C84.7251947,18.5208329 84.7694651,18.4765625 84.8469394,18.4765625 C84.8469394,18.5208336 84.8690746,18.5429688 84.9133457,18.5429688 C85.0904299,18.3105457 85.1789707,18.1555993 85.1789707,18.078125 L85.1789707,16.2851562 L85.1125644,15.953125 L85.1789707,15.953125 L85.1125644,15.8203125 C85.1125644,15.7760414 85.1346996,15.7539062 85.1789707,15.7539062 C85.1346996,15.6653641 85.1125644,15.5989586 85.1125644,15.5546875 C85.1568355,15.4661454 85.1789707,15.3997398 85.1789707,15.3554688 L85.1125644,15.3554688 L85.1789707,15.2226562 L85.1789707,15.0898438 L85.1125644,14.9570312 L85.1789707,14.9570312 L85.1125644,14.8242188 L85.1125644,14.625 C85.1125644,14.5807289 85.1346996,14.5585938 85.1789707,14.5585938 L85.1125644,14.4257812 C85.1125644,14.3815102 85.1346996,14.359375 85.1789707,14.359375 L85.1125644,14.2265625 L85.1125644,11.3046875 L85.1789707,11.3046875 L85.2453769,11.96875 L85.3117832,11.96875 L85.3117832,11.5703125 L85.2453769,11.3046875 L85.3117832,11.3046875 C85.2675121,11.2050776 85.2232417,10.9173201 85.1789707,10.4414062 L85.2453769,10.4414062 L85.0461582,10.0429688 L85.1125644,10.0429688 C85.0682934,9.9654944 85.0461582,9.87695362 85.0461582,9.77734375 C84.913345,9.77734375 84.7362635,9.82161414 84.5149082,9.91015625 C84.5149082,9.8658852 84.492773,9.84375 84.4485019,9.84375 L84.4485019,9.91015625 L84.5149082,10.0429688 C83.2421154,10.0429688 82.400978,10.4856727 81.9914707,11.3710938 C81.9029286,11.3710938 81.8143878,11.5481753 81.7258457,11.9023438 C81.6151681,11.9908859 81.5487625,12.0351562 81.5266269,12.0351562 C81.5266269,11.9908852 81.5044917,11.96875 81.4602207,11.96875 L81.4602207,12.0351562 C81.5044917,12.0351562 81.5266269,12.0572914 81.5266269,12.1015625 C81.2610006,12.1015625 80.9953783,12.8984295 80.7297519,14.4921875 L80.7961582,14.4921875 L80.7297519,14.625 C80.7297519,14.6692711 80.7518871,14.6914062 80.7961582,14.6914062 L80.7297519,15.0234375 L80.7297519,15.421875 L80.7961582,15.5546875 L80.7297519,15.5546875 C80.7629552,15.6432296 80.8072256,15.8867168 80.8625644,16.2851562 C80.8182934,16.2851562 80.7961582,16.3072914 80.7961582,16.3515625 L80.9289707,16.3515625 L80.9289707,16.484375 C80.9289707,16.5286461 80.9068355,16.5507812 80.8625644,16.5507812 C80.9068355,16.6835944 80.9511059,16.75 80.9953769,16.75 L80.9289707,16.8828125 C81.0617839,17.1484388 81.1281894,17.3033852 81.1281894,17.3476562 L81.1281894,17.4804688 L81.0617832,17.4804688 L81.0617832,17.28125 L80.9953769,17.28125 L80.9953769,17.4804688 C81.1281901,17.513672 81.2167309,17.6022128 81.2610019,17.7460938 C81.2167309,17.7460938 81.1945957,17.7682289 81.1945957,17.8125 C81.2388667,17.8125 81.2610019,17.8346352 81.2610019,17.8789062 L81.1945957,17.8789062 C81.2388667,18.0117194 81.2831371,18.078125 81.3274082,18.078125 L81.2610019,18.2109375 C81.4823572,18.5872415 81.5930332,18.8085934 81.5930332,18.875 C81.9472016,19.0520842 82.1906888,19.140625 82.3235019,19.140625 L82.2570957,19.2734375 L82.3899082,19.2734375 Z M89.7610019,9.84375 L89.6945957,9.84375 L89.6945957,9.7109375 L89.7610019,9.7109375 L89.7610019,9.84375 Z M89.6945957,10.0429688 L89.6281894,10.0429688 L89.6281894,9.91015625 L89.6945957,9.91015625 L89.6945957,10.0429688 Z M83.2531894,19.2734375 C83.3417316,19.2734375 83.3860019,19.2291671 83.3860019,19.140625 L83.1867832,19.140625 L83.1867832,19.2734375 L83.2531894,19.2734375 Z M82.5891269,19.2734375 L82.5891269,19.2070312 L82.4563144,19.2070312 L82.4563144,19.2734375 L82.5891269,19.2734375 Z M82.7883457,19.40625 C82.8768878,19.40625 82.9211582,19.3619796 82.9211582,19.2734375 L82.7883457,19.2070312 L82.7883457,19.40625 Z M79.4016269,20.8671875 L79.3352207,20.8671875 C79.2466786,20.8671875 79.2024082,20.8229171 79.2024082,20.734375 C79.3352214,20.734375 79.4016269,20.7786454 79.4016269,20.8671875 Z M82.7219394,21.3984375 C82.7219394,21.3098954 82.6776691,21.265625 82.5891269,21.265625 L82.5891269,21.3984375 L82.7219394,21.3984375 Z M82.5227207,21.4648438 L82.5227207,21.3320312 L82.3899082,21.3320312 C82.400976,21.4205734 82.4452463,21.4648438 82.5227207,21.4648438 Z M77.2766269,21.9296875 L77.2102207,21.9296875 L77.2102207,21.796875 L77.2766269,21.796875 L77.2766269,21.9296875 Z M97.2910469,21.6972656 C97.0254205,21.6529946 96.8926094,21.6087242 96.8926094,21.5644531 L96.7597969,21.6308594 C95.7083593,21.4316396 95.1549794,21.2102877 95.0996406,20.9667969 C94.3913037,20.3137988 94.0371406,19.7604189 94.0371406,19.3066406 L93.9707344,19.3066406 L94.0371406,19.1738281 L94.0371406,18.9746094 L93.9043281,18.9746094 L93.9043281,18.9082031 C93.9043281,18.8639321 93.9264633,18.8417969 93.9707344,18.8417969 C93.9375311,18.6647127 93.8932607,18.5761719 93.8379219,18.5761719 C93.8379219,18.5319008 93.8600571,18.5097656 93.9043281,18.5097656 C93.8047182,17.5025991 93.7161775,16.9270841 93.6387031,16.7832031 C93.7272452,16.5175768 93.7715156,15.9420617 93.7715156,15.0566406 L93.7715156,12.8652344 C93.7715156,12.7656245 93.7493804,12.6770837 93.7051094,12.5996094 C93.7493804,12.522135 93.7715156,12.4335942 93.7715156,12.3339844 L93.7715156,11.8027344 C93.7715156,11.7141923 93.7272452,11.6699219 93.6387031,11.6699219 C93.6387031,11.6256508 93.6608383,11.6035156 93.7051094,11.6035156 C93.6608383,11.4264314 93.6387031,11.2493498 93.6387031,11.0722656 C93.6387031,11.0279946 93.6608383,11.0058594 93.7051094,11.0058594 L93.6387031,10.8730469 L93.6387031,10.8066406 C93.6387031,10.7623696 93.6608383,10.7402344 93.7051094,10.7402344 C93.6608383,10.66276 93.6165679,10.4635433 93.5722969,10.1425781 L93.7051094,10.2089844 L93.7051094,10.1425781 L93.5722969,10.0761719 C93.5722969,10.1204429 93.5501617,10.1425781 93.5058906,10.1425781 C93.3066709,9.3899702 92.9525077,9.01367188 92.4433906,9.01367188 C92.4433906,8.83658766 92.3327146,8.74804688 92.1113594,8.74804688 L92.1777656,8.61523438 C92.0449524,8.61523438 91.9785469,8.57096398 91.9785469,8.48242188 L91.9785469,8.41601562 L92.1777656,8.54882812 L92.1777656,8.48242188 C92.1334946,8.48242188 92.1113594,8.46028668 92.1113594,8.41601562 C92.1556304,8.41601562 92.1777656,8.39388043 92.1777656,8.34960938 L92.0449531,8.34960938 C92.0449531,8.10611857 92.1777643,7.9733074 92.4433906,7.95117188 C92.5319327,7.99544293 92.5983383,8.01757812 92.6426094,8.01757812 L92.6426094,7.95117188 L92.7754219,8.01757812 L92.9082344,7.95117188 L92.9082344,8.01757812 L93.0410469,7.95117188 L93.8379219,7.95117188 L94.1699531,8.01757812 C94.1699531,7.97330707 94.1920883,7.95117188 94.2363594,7.95117188 C94.2363594,7.99544293 94.2584946,8.01757812 94.3027656,8.01757812 L94.3027656,7.95117188 L94.4355781,8.01757812 C94.579459,8.01757812 94.690135,7.99544293 94.7676094,7.95117188 C94.8561515,7.99544293 94.9225571,8.01757812 94.9668281,8.01757812 L94.9668281,7.95117188 L95.0996406,8.01757812 L95.2324531,7.95117188 L95.2324531,8.01757812 L95.3652656,7.95117188 L96.1621406,7.95117188 C96.283886,7.95117188 96.4166972,7.90690148 96.5605781,7.81835938 L96.8926094,7.88476562 L96.8926094,7.81835938 C97.0254225,7.81835938 97.0918281,7.88476496 97.0918281,8.01757812 L97.1582344,8.01757812 L97.1582344,7.81835938 L97.2910469,7.88476562 L97.6230781,7.81835938 C97.6230781,7.88476596 97.6894837,7.95117154 97.8222969,8.01757812 L97.8222969,7.88476562 L97.9551094,7.88476562 C98.0104482,8.84766106 98.0768538,9.46744653 98.1543281,9.74414062 L98.0879219,9.87695312 C98.0879219,9.92122418 98.1100571,9.94335938 98.1543281,9.94335938 L98.0879219,10.0761719 L98.0879219,10.3417969 C98.0879219,10.3860679 98.1100571,10.4082031 98.1543281,10.4082031 L98.0215156,10.8730469 C98.0657867,10.961589 98.0879219,11.0279946 98.0879219,11.0722656 L98.0215156,11.0722656 C98.0657867,11.1608077 98.0879219,11.2272133 98.0879219,11.2714844 L98.0215156,11.9355469 L98.0879219,11.9355469 L98.0215156,12.0683594 L98.0215156,15.6542969 C98.0215156,15.7539067 97.9993804,15.8424475 97.9551094,15.9199219 C97.9993804,16.008464 98.0215156,16.0748696 98.0215156,16.1191406 C97.9772446,16.2519538 97.9329742,16.3183594 97.8887031,16.3183594 L97.9551094,16.4511719 C97.9551094,16.4954429 97.9329742,16.5175781 97.8887031,16.5175781 C98.0104485,17.2148472 98.1211245,17.6354159 98.2207344,17.7792969 L98.1543281,17.9121094 L98.1543281,18.1113281 L98.2871406,18.1113281 L98.2871406,17.9121094 C98.6081058,18.2441423 98.9622689,18.4212238 99.3496406,18.4433594 C99.9362321,18.2662752 100.26826,18.0891936 100.345734,17.9121094 C100.876987,17.4804666 101.142609,17.1263035 101.142609,16.8496094 C101.18688,16.8496094 101.209016,16.8274742 101.209016,16.7832031 C101.164745,16.7832031 101.142609,16.7610679 101.142609,16.7167969 C101.28649,16.7167969 101.397166,16.2298226 101.474641,15.2558594 L101.474641,13.9277344 C101.474641,13.8834633 101.496776,13.8613281 101.541047,13.8613281 L101.474641,13.7285156 L101.541047,13.3964844 L101.474641,13.3964844 C101.474641,13.3522133 101.496776,13.3300781 101.541047,13.3300781 C101.585318,12.5110636 101.607453,11.9134133 101.607453,11.5371094 C101.607453,10.6074172 101.231155,9.72200941 100.478547,8.88085938 C100.334666,8.74804621 100.22399,8.68164062 100.146516,8.68164062 L100.146516,8.41601562 C100.179719,8.41601562 100.26826,8.37174523 100.412141,8.28320312 L100.279328,7.95117188 C100.378938,7.90690082 100.578155,7.86263043 100.876984,7.81835938 C100.876984,7.86263043 100.89912,7.88476562 100.943391,7.88476562 L100.943391,7.81835938 C101.120475,7.85156267 101.209016,7.89583306 101.209016,7.95117188 C101.574252,7.77408766 102.105496,7.68554688 102.802766,7.68554688 L102.802766,7.75195312 C102.858104,7.70768207 103.167997,7.66341168 103.732453,7.61914062 L103.732453,7.68554688 C103.909537,7.59700477 104.153024,7.55273438 104.462922,7.55273438 L105.392609,7.55273438 L105.392609,7.61914062 C105.392609,7.66341168 105.370474,7.68554688 105.326203,7.68554688 C105.370474,7.77408898 105.392609,7.84049457 105.392609,7.88476562 L105.459016,7.88476562 L105.459016,7.68554688 L105.525422,7.68554688 L105.591828,8.08398438 L105.724641,8.01757812 L105.658234,7.88476562 L105.658234,7.81835938 C105.724641,7.81835938 105.791047,7.88476496 105.857453,8.01757812 C105.813182,8.01757812 105.791047,8.03971332 105.791047,8.08398438 C105.879589,8.12825543 105.945995,8.15039062 105.990266,8.15039062 L105.990266,8.54882812 L106.123078,8.54882812 C106.089875,8.81445445 106.045604,8.94726562 105.990266,8.94726562 C106.034537,9.03580773 106.056672,9.10221332 106.056672,9.14648438 C105.96813,9.6556015 105.923859,10.0097646 105.923859,10.2089844 C105.923859,10.3417975 105.945995,10.5631495 105.990266,10.8730469 L105.923859,10.8730469 L105.990266,11.0058594 L105.990266,11.2050781 L105.857453,11.1386719 C105.857453,11.3157561 105.879588,11.4042969 105.923859,11.4042969 L105.857453,11.7363281 L105.857453,12.0019531 L105.923859,12.0019531 L105.923859,11.8027344 L105.990266,11.8027344 L105.990266,12.8652344 L105.857453,12.7988281 L105.857453,12.9980469 L105.990266,12.9316406 L105.990266,13.0644531 L105.857453,13.0644531 L105.923859,13.1972656 L105.857453,13.3300781 L105.923859,13.3300781 L105.857453,13.4628906 L105.923859,13.5957031 L105.857453,13.7285156 L105.923859,14.0605469 L105.857453,14.0605469 L105.923859,14.1933594 L105.857453,14.5917969 C105.857453,14.6360679 105.879588,14.6582031 105.923859,14.6582031 L105.857453,14.7910156 L105.923859,15.1230469 L105.791047,15.3886719 C105.835318,15.7649758 105.857453,16.2076797 105.857453,16.7167969 L105.791047,16.8496094 C105.835318,16.8496094 105.857453,16.8717446 105.857453,16.9160156 L105.791047,16.9160156 C105.835318,16.99349 105.879588,17.1927067 105.923859,17.5136719 L105.857453,17.5136719 C105.901724,17.646485 105.945995,17.7128906 105.990266,17.7128906 L105.923859,17.8457031 L105.923859,17.9785156 L105.990266,18.1113281 C105.945995,18.1113281 105.923859,18.1334633 105.923859,18.1777344 C105.96813,18.1777344 105.990266,18.1998696 105.990266,18.2441406 L105.923859,18.2441406 C105.96813,18.3769538 106.012401,18.4433594 106.056672,18.4433594 L105.990266,18.5761719 L105.990266,19.1074219 L106.123078,19.1074219 L106.123078,18.9082031 L106.189484,18.9082031 L106.189484,19.1738281 L106.056672,19.1738281 C106.056672,19.3287768 106.189483,19.5943992 106.455109,19.9707031 C106.455109,20.070313 106.632191,20.2031242 106.986359,20.3691406 L106.986359,20.5683594 L106.919953,20.5683594 C106.919953,20.4355462 106.875683,20.3691406 106.787141,20.3691406 L106.787141,20.4355469 C106.831412,20.4355469 106.853547,20.4576821 106.853547,20.5019531 C106.809276,20.5019531 106.787141,20.5240883 106.787141,20.5683594 L106.919953,20.5683594 C106.742869,20.7897146 106.632193,20.9003906 106.587922,20.9003906 L106.654328,21.0332031 L106.654328,21.0996094 L106.521516,21.0332031 L106.388703,21.0332031 C106.388703,21.1549485 106.322298,21.2434893 106.189484,21.2988281 L106.189484,21.3652344 C105.923858,21.2988278 105.791047,21.2324222 105.791047,21.1660156 L105.525422,21.2324219 C104.905627,21.1992186 104.595734,21.1549482 104.595734,21.0996094 L104.462922,21.1660156 L104.330109,21.0996094 L104.197297,21.1660156 L104.064484,21.0996094 C104.020213,21.0996094 103.998078,21.1217446 103.998078,21.1660156 C103.953807,21.1660156 103.887401,21.1438804 103.798859,21.0996094 C103.311878,21.1328127 103.068391,21.1770831 103.068391,21.2324219 L102.935578,21.1660156 L102.802766,21.2324219 L102.802766,21.1660156 C102.714223,21.2102867 102.647818,21.2324219 102.603547,21.2324219 L102.470734,21.1660156 L102.337922,21.2324219 C102.194041,21.1438798 102.083365,21.0996094 102.005891,21.0996094 L102.005891,21.1660156 C101.828806,21.1660156 101.71813,21.0332045 101.673859,20.7675781 L101.541047,20.7675781 C101.541047,20.7233071 101.563182,20.7011719 101.607453,20.7011719 L101.541047,20.5683594 L101.607453,20.4355469 C101.607453,20.3912758 101.585318,20.3691406 101.541047,20.3691406 C101.585318,20.1256498 101.607453,19.8821627 101.607453,19.6386719 C101.607453,19.5501298 101.563183,19.5058594 101.474641,19.5058594 C100.412135,20.6237035 99.4160515,21.2656242 98.4863594,21.4316406 C98.3535462,21.4316406 98.1764646,21.475911 97.9551094,21.5644531 L97.9551094,21.4980469 C97.5123988,21.586589 97.2910469,21.6529946 97.2910469,21.6972656 Z M104.529328,7.68554688 L104.529328,7.61914062 L104.396516,7.61914062 L104.396516,7.68554688 L104.529328,7.68554688 Z M104.794953,7.68554688 L104.794953,7.61914062 L104.595734,7.61914062 L104.595734,7.68554688 L104.794953,7.68554688 Z M105.259797,7.68554688 L105.259797,7.61914062 L105.126984,7.61914062 L105.126984,7.68554688 L105.259797,7.68554688 Z M98.2871406,8.88085938 L98.1543281,8.88085938 L98.1543281,8.61523438 L98.0879219,8.61523438 L98.0879219,8.54882812 C98.220735,8.54882812 98.2871406,8.50455773 98.2871406,8.41601562 C98.2428696,8.33854128 98.2207344,8.2500005 98.2207344,8.15039062 L98.3535469,8.15039062 L98.2871406,8.88085938 Z M98.1543281,9.08007812 L98.1543281,8.94726562 L98.2871406,8.94726562 C98.2871406,9.03580773 98.2428702,9.08007812 98.1543281,9.08007812 Z M106.123078,18.8417969 L106.056672,18.8417969 L106.056672,18.5761719 L106.123078,18.5761719 L106.123078,18.8417969 Z M101.541047,21.0996094 L101.541047,20.9667969 L101.673859,20.9667969 C101.673859,21.055339 101.629589,21.0996094 101.541047,21.0996094 Z M106.521516,21.2324219 L106.455109,21.2324219 L106.455109,21.0996094 L106.521516,21.0996094 L106.521516,21.2324219 Z M115.363084,21.53125 C115.274542,21.4869789 115.208136,21.4648438 115.163865,21.4648438 L115.163865,21.53125 L115.031053,21.4648438 L114.765428,21.4648438 C114.721157,21.4648438 114.699021,21.4869789 114.699021,21.53125 L114.36699,21.3984375 C114.36699,21.4427086 114.344855,21.4648438 114.300584,21.4648438 C114.300584,21.3320306 113.990691,21.2434898 113.370896,21.1992188 C113.370896,21.0221345 113.21595,20.9335938 112.906053,20.9335938 C112.906053,21.0221359 112.861782,21.0664062 112.77324,21.0664062 C112.0317,20.70117 111.301239,20.1920606 110.581834,19.5390625 C110.393682,19.3619783 110.083789,18.9414096 109.652146,18.2773438 L109.784959,18.2773438 L109.784959,18.2109375 C109.607875,18.2109375 109.519334,18.1223967 109.519334,17.9453125 L109.58574,17.9453125 C109.530401,17.6796862 109.441861,17.546875 109.320115,17.546875 C109.320115,17.5026039 109.34225,17.4804688 109.386521,17.4804688 C109.209437,17.2148424 109.120896,17.0377609 109.120896,16.9492188 C109.165168,16.9492188 109.187303,16.9270836 109.187303,16.8828125 C109.076625,16.8828125 108.943814,16.373703 108.788865,15.3554688 L108.855271,15.3554688 C108.811,15.2558589 108.76673,15.0566421 108.722459,14.7578125 L108.788865,14.7578125 L108.656053,14.2265625 C108.700324,14.2265625 108.722459,14.2044273 108.722459,14.1601562 L108.656053,14.1601562 L108.788865,13.8945312 L108.722459,13.8945312 L108.788865,13.7617188 C108.788865,13.7174477 108.76673,13.6953125 108.722459,13.6953125 C108.811001,13.5182283 108.855271,13.3854171 108.855271,13.296875 L108.788865,13.296875 C108.833136,13.2083329 108.855271,13.1197921 108.855271,13.03125 L108.788865,13.03125 L108.788865,13.1640625 L108.722459,13.1640625 L108.722459,13.03125 C108.943814,12.4003875 109.05449,12.0462243 109.05449,11.96875 L109.120896,11.96875 L109.120896,12.1015625 L109.187303,12.1015625 L109.187303,11.703125 C109.275845,11.7141928 109.320115,11.7584632 109.320115,11.8359375 C109.275844,11.8359375 109.253709,11.8580727 109.253709,11.9023438 L109.519334,11.9023438 C109.519334,11.7916661 109.63001,11.548179 109.851365,11.171875 L109.851365,11.1054688 L109.519334,11.1054688 L109.519334,11.0390625 C109.718554,11.0390625 109.939906,10.7734402 110.183396,10.2421875 C110.437955,9.89908683 110.725713,9.61132929 111.046678,9.37890625 C111.268033,9.14648321 111.378709,8.99153685 111.378709,8.9140625 L111.511521,8.98046875 C111.555793,8.89192664 111.577928,8.82552105 111.577928,8.78125 L111.71074,8.84765625 C111.71074,8.54882663 112.551878,8.19466351 114.234178,7.78515625 L114.36699,7.8515625 L114.632615,7.71875 L114.632615,7.78515625 L114.765428,7.71875 L115.628709,7.71875 C116.480927,7.71875 117.122847,7.82942598 117.55449,8.05078125 C117.55449,8.0065102 117.576625,7.984375 117.620896,7.984375 C117.620896,8.06184935 117.952924,8.21679571 118.61699,8.44921875 C119.247853,8.85872601 119.668421,9.19075394 119.878709,9.4453125 C119.878709,9.40104145 119.900844,9.37890625 119.945115,9.37890625 C119.945115,9.51171941 120.122197,9.75520656 120.476365,10.109375 C121.029753,10.7513053 121.494592,11.5039019 121.870896,12.3671875 L121.870896,13.2304688 L121.738084,13.1640625 L121.738084,13.2304688 L121.870896,13.296875 L121.80449,13.4296875 C121.848761,13.5071618 121.870896,13.5957026 121.870896,13.6953125 L121.738084,13.6953125 L121.80449,13.828125 C121.682745,13.828125 121.306446,13.938801 120.675584,14.1601562 C116.846138,14.779951 114.699024,15.1562493 114.234178,15.2890625 L114.234178,15.2226562 C114.012822,15.2779951 113.902146,15.3444007 113.902146,15.421875 C114.27845,16.8385488 114.588343,17.546875 114.831834,17.546875 C114.931444,17.7682303 115.04212,17.8789062 115.163865,17.8789062 L115.097459,18.0117188 C115.894338,18.4876326 116.292771,18.7753901 116.292771,18.875 L116.292771,18.9414062 C116.381314,18.9414062 116.425584,18.8971359 116.425584,18.8085938 C116.635871,18.9414069 117.05644,19.0078125 117.687303,19.0078125 C118.749808,18.5983052 119.480269,18.1556013 119.878709,17.6796875 L120.874803,16.2851562 C120.874803,16.3294273 120.896938,16.3515625 120.941209,16.3515625 C120.941209,16.3072914 121.051885,16.0859395 121.27324,15.6875 L121.27324,15.6210938 L121.472459,15.6210938 C121.494594,15.798178 121.561,15.8867188 121.671678,15.8867188 L121.671678,15.5546875 L121.605271,15.421875 L121.671678,15.421875 C121.893033,15.421875 122.003709,15.6210918 122.003709,16.0195312 C122.04798,16.0195312 122.070115,16.0416664 122.070115,16.0859375 C122.025844,16.1744796 122.003709,16.2408852 122.003709,16.2851562 L122.070115,16.2851562 L122.003709,16.4179688 C122.003709,16.783205 122.025844,17.1152329 122.070115,17.4140625 L122.003709,17.546875 C122.04798,17.7128915 122.070115,17.9121082 122.070115,18.1445312 L122.202928,18.078125 L122.202928,19.140625 C122.202928,19.1848961 122.225063,19.2070312 122.269334,19.2070312 L122.202928,19.3398438 C122.247199,19.4283859 122.269334,19.4947914 122.269334,19.5390625 L122.136521,19.4726562 L122.070115,19.6054688 L122.070115,19.671875 C122.070115,19.7161461 122.09225,19.7382812 122.136521,19.7382812 C122.103318,19.9153655 122.059048,20.0039062 122.003709,20.0039062 L122.070115,20.1367188 L122.070115,20.3359375 L121.80449,20.3359375 C121.80449,20.4244796 121.782355,20.46875 121.738084,20.46875 L121.80449,20.6015625 L121.80449,20.9335938 C121.494593,20.8782549 121.339646,20.7897142 121.339646,20.6679688 L121.206834,20.734375 C121.206834,20.6458329 121.162564,20.6015625 121.074021,20.6015625 C121.074021,20.6458336 121.051886,20.6679688 121.007615,20.6679688 L121.007615,20.5351562 L121.140428,20.5351562 L121.140428,20.46875 L121.007615,20.46875 L121.007615,20.5351562 L120.874803,20.46875 C120.409957,20.46875 119.834442,20.6015612 119.14824,20.8671875 C119.14824,20.8229164 119.126105,20.8007812 119.081834,20.8007812 L119.081834,20.9335938 C119.037563,20.9335938 119.015428,20.9114586 119.015428,20.8671875 C117.930787,21.2213559 117.355272,21.3984375 117.288865,21.3984375 L117.288865,21.3320312 C117.034307,21.4205734 116.746549,21.4648438 116.425584,21.4648438 L116.425584,21.3984375 C116.381313,21.4427086 116.02715,21.4869789 115.363084,21.53125 Z M115.097459,8.31640625 L115.097459,8.25 L114.964646,8.25 L114.964646,8.31640625 L115.097459,8.31640625 Z M115.42949,8.3828125 L115.495896,8.25 L115.42949,8.25 L115.363084,8.3828125 L115.42949,8.3828125 Z M113.83574,13.4296875 L114.234178,13.2304688 C114.234178,13.2747398 114.256313,13.296875 114.300584,13.296875 C114.300584,13.2415362 114.765423,13.0865898 115.695115,12.8320312 C115.695115,12.8763023 115.71725,12.8984375 115.761521,12.8984375 C115.772589,12.8098954 115.81686,12.765625 115.894334,12.765625 L115.96074,12.765625 L115.96074,12.8984375 C116.038215,12.8984375 116.325972,12.8098967 116.824021,12.6328125 L116.824021,12.6992188 C116.967902,12.6106766 117.100714,12.5664062 117.222459,12.5664062 C117.222459,12.6106773 117.244594,12.6328125 117.288865,12.6328125 L117.288865,12.234375 L117.222459,12.1015625 L117.288865,12.1015625 C117.200323,11.1718704 117.023242,10.7070312 116.757615,10.7070312 L116.757615,10.5742188 L116.890428,10.5742188 L116.890428,10.5078125 C116.801886,10.5078125 116.669074,10.4192717 116.49199,10.2421875 C116.49199,10.2864586 116.469855,10.3085938 116.425584,10.3085938 C116.425584,10.2200516 116.204232,10.0429701 115.761521,9.77734375 C115.761521,9.7330727 115.739386,9.7109375 115.695115,9.7109375 L115.562303,9.7109375 C115.562303,9.79947961 115.628708,9.84375 115.761521,9.84375 L115.761521,9.91015625 C115.684047,9.91015625 115.48483,9.97656184 115.163865,10.109375 C115.075323,10.0651039 115.008918,10.0429688 114.964646,10.0429688 C114.333784,10.5299504 113.93535,11.171871 113.769334,11.96875 C113.769334,12.1458342 113.725064,12.3007806 113.636521,12.4335938 C113.680793,12.4335938 113.702928,12.4557289 113.702928,12.5 L113.636521,12.5 L113.702928,12.6328125 L113.702928,12.6992188 L113.570115,12.6992188 L113.570115,12.8320312 L113.702928,12.765625 L113.702928,13.03125 C113.702928,13.0755211 113.680793,13.0976562 113.636521,13.0976562 C113.680793,13.1751306 113.702928,13.2858066 113.702928,13.4296875 L113.83574,13.4296875 Z M116.226365,9.84375 L116.226365,9.77734375 C116.182094,9.77734375 116.115689,9.75520855 116.027146,9.7109375 L115.96074,9.7109375 L115.96074,9.77734375 C116.005011,9.77734375 116.071417,9.79947895 116.159959,9.84375 L116.226365,9.84375 Z M113.83574,11.6367188 L113.83574,11.5039062 L113.769334,11.5039062 L113.769334,11.6367188 L113.83574,11.6367188 Z M109.320115,11.703125 L109.253709,11.703125 L109.253709,11.5703125 L109.320115,11.5703125 L109.320115,11.703125 Z M117.02324,12.5 L116.890428,12.5 L116.890428,12.4335938 L117.02324,12.4335938 L117.02324,12.5 Z M116.757615,12.6328125 L116.49199,12.6328125 C116.503058,12.5442704 116.547328,12.5 116.624803,12.5 C116.713345,12.5110678 116.757615,12.5553382 116.757615,12.6328125 Z M116.890428,12.5664062 L116.757615,12.5664062 L116.757615,12.5 L116.890428,12.5 L116.890428,12.5664062 Z M116.226365,12.765625 L116.159959,12.765625 L116.159959,12.6328125 L116.226365,12.6328125 L116.226365,12.765625 Z M112.175584,16.1523438 L112.175584,16.0859375 L112.042771,16.0859375 L112.042771,16.1523438 L112.175584,16.1523438 Z M112.441209,16.21875 L112.441209,16.1523438 L112.308396,16.1523438 L112.308396,16.21875 L112.441209,16.21875 Z M120.941209,16.2851562 L120.874803,16.2851562 L120.874803,16.1523438 L120.941209,16.1523438 L120.941209,16.2851562 Z M121.007615,17.1484375 L121.007615,17.0820312 L120.874803,17.0820312 L120.874803,17.1484375 L121.007615,17.1484375 Z M122.136521,19.3398438 L122.136521,19.2070312 L122.070115,19.2070312 L122.070115,19.3398438 L122.136521,19.3398438 Z M122.269334,19.8710938 L122.202928,19.8710938 L122.202928,19.7382812 L122.269334,19.7382812 L122.269334,19.8710938 Z M122.070115,20.5351562 L122.003709,20.5351562 L122.003709,20.4023438 L122.070115,20.4023438 L122.070115,20.5351562 Z M113.769334,21.3984375 L113.570115,21.3984375 L113.570115,21.265625 C113.658657,21.3098961 113.725063,21.3320312 113.769334,21.3320312 L113.769334,21.3984375 Z M113.902146,21.4648438 L113.83574,21.4648438 L113.83574,21.3320312 L113.902146,21.3320312 L113.902146,21.4648438 Z" id="1"></path>
        </g>
    </g>
</svg>