<?xml version="1.0" encoding="UTF-8"?>
<svg width="138px" height="32px" viewBox="0 0 138 32" version="1.1" xmlns="http://www.w3.org/2000/svg" xmlns:xlink="http://www.w3.org/1999/xlink">
    <!-- Generator: Sketch 52.6 (67491) - http://www.bohemiancoding.com/sketch -->
    <title>Artboard</title>
    <desc>Created with Sketch.</desc>
    <g id="Artboard" stroke="none" stroke-width="1" fill="none" fill-rule="evenodd">
        <g id="analogue" transform="translate(7.000000, 2.000000)" fill="#FFFFFF">
            <path d="M19.0136275,21 L12.0476275,21 C12.4256293,20.4599973 12.6146275,19.8750031 12.6146275,19.245 C12.6146275,18.9029983 12.5426282,18.4620027 12.3986275,17.922 C12.3266271,17.723999 12.2591278,17.5170011 12.1961275,17.301 C12.1331271,17.0849989 12.0656278,16.8690011 11.9936275,16.653 C11.4356247,17.1570025 10.6256328,17.409 9.56362746,17.409 C9.32962629,17.409 8.87963079,17.3280008 8.21362746,17.166 C7.52962404,17.0039992 7.07962854,16.923 6.86362746,16.923 C5.87362251,16.923 5.37862746,17.5349939 5.37862746,18.759 C5.37862746,19.4250033 5.51362611,19.8929986 5.78362746,20.163 C5.92762818,20.3070007 6.06712678,20.4419994 6.20212746,20.568 C6.33712813,20.6940006 6.47662674,20.8289993 6.62062746,20.973 L1.92262746,20.973 C2.82263196,20.2889966 3.38962629,19.5690038 3.62362746,18.813 C4.14563007,17.0849914 4.82062332,14.925013 5.64862746,12.333 C6.4766316,9.74098704 7.47562161,6.68101764 8.64562746,3.153 L13.1006275,3.153 L17.6636275,18.462 C18.0416293,19.6860061 18.4916248,20.5319977 19.0136275,21 Z M11.4266275,14.547 L9.07762746,6.177 L7.10662746,12.09 C6.98062683,12.486002 6.8231284,12.9629972 6.63412746,13.521 C6.44512651,14.0790028 6.21562881,14.7359962 5.94562746,15.492 C6.62963088,15.1499983 7.20562512,14.979 7.67362746,14.979 C7.85362836,15.0510004 8.28562404,15.1499994 8.96962746,15.276 C9.65363088,15.4020006 10.1126263,15.465 10.3466275,15.465 C10.9586305,15.465 11.309627,15.2490022 11.3996275,14.817 C11.4356276,14.6549992 11.4446275,14.5650001 11.4266275,14.547 Z M35.0050956,21 L32.1160956,21 C31.4860924,20.9819999 30.928098,20.973 30.4420956,20.973 L29.2540956,20.973 C29.740098,20.3069967 29.9830956,19.0650091 29.9830956,17.247 L29.9830956,15.924 C29.9830956,15.4019974 29.9740957,14.7810036 29.9560956,14.061 C29.9380955,13.3409964 29.9290956,12.7200026 29.9290956,12.198 L29.9290956,10.875 C29.9290956,10.4429978 29.789597,10.0605017 29.5105956,9.7275 C29.2315942,9.39449833 28.8760978,9.228 28.4440956,9.228 C27.9400931,9.228 27.5170973,9.39449833 27.1750956,9.7275 C26.8330939,10.0605017 26.6350959,10.4789975 26.5810956,10.983 L26.5810956,15.87 C26.5630955,16.5360033 26.5540956,17.1209975 26.5540956,17.625 L26.5540956,18.867 C26.5540956,19.7310043 26.7700934,20.4419972 27.2020956,21 L21.4240956,21 C21.8740978,20.4779974 22.0990956,19.7310049 22.0990956,18.759 L22.0990956,10.551 C22.0990956,9.81299631 21.8920977,8.85000594 21.4780956,7.662 L26.6080956,7.662 L26.6080956,8.877 C27.3460993,7.9769955 28.471088,7.527 29.9830956,7.527 C30.6490989,7.527 31.2520929,7.64399883 31.7920956,7.878 C32.3320983,8.11200117 32.7910937,8.43149797 33.1690956,8.8365 C33.5470975,9.24150202 33.8395946,9.73199712 34.0465956,10.308 C34.2535966,10.8840029 34.3570956,11.5049967 34.3570956,12.171 L34.3570956,17.031 C34.3390955,17.427002 34.3300956,17.7689986 34.3300956,18.057 L34.3300956,18.786 C34.3300956,19.6500043 34.5550933,20.3879969 35.0050956,21 Z M50.4835637,20.973 L45.6505637,20.973 L45.2725637,19.92 C44.1565581,20.8920049 42.9775699,21.378 41.7355637,21.378 C40.5295577,21.378 39.5125679,21.0450033 38.6845637,20.379 C37.7665591,19.6589964 37.3075637,18.7140058 37.3075637,17.544 C37.3075637,16.4819947 37.6855599,15.555004 38.4415637,14.763 C39.1255671,14.0789966 40.0075583,13.5660017 41.0875637,13.224 C41.8075673,12.9899988 42.4735607,12.7470013 43.0855637,12.495 C43.5535661,12.296999 43.9090625,12.1485005 44.1520637,12.0495 L44.5165637,11.901 C45.0385663,11.5949985 45.2995637,11.1810026 45.2995637,10.659 C45.2995637,9.47099406 44.8315684,8.877 43.8955637,8.877 C43.1395599,8.877 42.7615637,9.18299694 42.7615637,9.795 C42.7615637,9.92100063 42.8065633,10.087499 42.8965637,10.2945 C42.9865642,10.501501 43.0315637,10.6679994 43.0315637,10.794 C43.0315637,11.0280012 42.7165669,11.2529989 42.0865637,11.469 C41.6005613,11.6490009 41.1865654,11.739 40.8445637,11.739 C39.9265591,11.739 39.1885665,11.2710047 38.6305637,10.335 C38.1445613,9.56099613 37.9015637,8.68800486 37.9015637,7.716 C37.9015637,7.57199928 37.9195635,7.5 37.9555637,7.5 C37.9735638,7.5 38.0320632,7.52249977 38.1310637,7.5675 C38.2300642,7.61250022 38.3335632,7.65749977 38.4415637,7.7025 C38.5495643,7.74750022 38.6620631,7.79249977 38.7790637,7.8375 C38.8960643,7.88250022 38.9995633,7.905 39.0895637,7.905 L39.4135637,7.905 C40.0435669,7.905 40.5925614,7.89600009 41.0605637,7.878 C41.5285661,7.85999991 41.933562,7.83300018 42.2755637,7.797 C42.3655642,7.77899991 42.482563,7.75650013 42.6265637,7.7295 C42.7705644,7.70249986 42.9595626,7.66200027 43.1935637,7.608 C43.6075658,7.51799955 43.9135627,7.473 44.1115637,7.473 C46.2355743,7.473 47.7115596,7.81499658 48.5395637,8.499 C49.4215681,9.25500378 49.8625637,10.6859895 49.8625637,12.792 L49.8625637,18.489 C49.8625637,19.0650029 50.0695617,19.8929946 50.4835637,20.973 Z M45.2185637,13.17 C44.48056,13.2600004 43.7515673,13.7729953 43.0315637,14.709 C42.3295602,15.6270046 41.9785637,16.4639962 41.9785637,17.22 C41.9785637,17.814003 42.1135624,18.308998 42.3835637,18.705 C42.7075653,19.1730023 43.139561,19.407 43.6795637,19.407 C43.9495651,19.407 44.2645619,19.2450016 44.6245637,18.921 C45.0025656,18.5969984 45.1915637,18.3000013 45.1915637,18.03 L45.1915637,14.115 C45.1915637,13.8449986 45.2005636,13.5300018 45.2185637,13.17 Z M58.4020319,20.973 L52.6510319,21 C53.1010341,20.3159966 53.3260319,19.578004 53.3260319,18.786 L53.3260319,5.637 C53.3260319,4.64699505 53.0650345,3.81000342 52.5430319,3.126 L57.7540319,3.126 C57.7180317,3.27000072 57.7000319,3.36899973 57.7000319,3.423 L57.7000319,18.786 C57.7000319,18.8580004 57.7990309,19.2089968 57.9970319,19.839 C58.1770328,20.433003 58.3120314,20.8109992 58.4020319,20.973 Z M73.7455,14.223 C73.7455,16.2570102 73.1155063,17.9579932 71.8555,19.326 C70.5774936,20.6760067 68.9305101,21.351 66.9145,21.351 C64.9344901,21.351 63.3145063,20.649007 62.0545,19.245 C60.8304939,17.8769932 60.2185,16.2030099 60.2185,14.223 C60.2185,12.3869908 60.8574936,10.8030067 62.1355,9.471 C63.4315065,8.13899334 65.0064907,7.473 66.8605,7.473 C68.7505094,7.473 70.3614933,8.12999343 71.6935,9.444 C73.0615068,10.7580066 73.7455,12.3509906 73.7455,14.223 Z M69.0205,12.9 C69.0205,10.0199856 68.3005072,8.58 66.8605,8.58 C65.5644935,8.58 64.9165,10.4069817 64.9165,14.061 L64.9165,14.871 C64.8984999,15.0510009 64.8895,15.2039994 64.8895,15.33 L64.8895,15.654 C64.8895,18.7320154 65.6364925,20.271 67.1305,20.271 C68.4085064,20.271 69.0475,18.8760139 69.0475,16.086 C69.0475,15.9779995 69.043,15.8385009 69.034,15.6675 C69.025,15.4964991 69.0205,15.3210009 69.0205,15.141 C69.0205,14.942999 69.016,14.7585009 69.007,14.5875 C68.998,14.4164991 68.9935,14.2770005 68.9935,14.169 L68.9935,13.548 C69.0115001,13.4039993 69.0205,13.2870004 69.0205,13.197 L69.0205,12.9 Z M89.5479681,21.459 C89.5479681,22.6110058 88.962974,23.5289966 87.7929681,24.213 C86.8389634,24.7710028 85.7319744,25.05 84.4719681,25.05 C83.5179634,25.05 82.2489761,24.9150013 80.6649681,24.645 C79.4229619,24.4289989 78.8289679,24.321 78.8829681,24.321 C77.8209628,24.321 76.8489725,24.4649986 75.9669681,24.753 C75.9129679,24.6269994 75.8859681,24.4560011 75.8859681,24.24 C75.8859681,22.439991 76.902958,21.54 78.9369681,21.54 C79.8189725,21.54 80.7819629,21.9089963 81.8259681,22.647 C82.8699734,23.3850037 83.607966,23.754 84.0399681,23.754 C84.3819698,23.754 84.6789669,23.5740018 84.9309681,23.214 C85.1469692,22.9259986 85.2549681,22.584002 85.2549681,22.188 C85.2549681,22.0979995 85.0119706,21.2970076 84.5259681,19.785 C83.6079635,20.6490043 82.464975,21.081 81.0969681,21.081 C78.7209563,21.081 77.145972,19.7040138 76.3719681,16.95 C76.1739671,16.1939962 76.0749681,15.6990012 76.0749681,15.465 C76.0749681,15.3749995 76.083968,15.2850004 76.1019681,15.195 L76.1019681,14.358 C76.083968,14.2319994 76.0749681,14.1330004 76.0749681,14.061 L76.0749681,13.818 C76.0749681,13.421998 76.2009669,12.819004 76.4529681,12.009 C76.8849703,10.6589932 77.613963,9.59250391 78.6399681,8.8095 C79.6659733,8.02649608 80.8809611,7.635 82.2849681,7.635 L89.5209681,7.635 C89.088966,8.5350045 88.8729681,9.24599739 88.8729681,9.768 L88.8729681,18.462 C88.8729681,18.7860016 88.9809671,19.2809967 89.1969681,19.947 C89.4309693,20.5770031 89.5479681,21.0809981 89.5479681,21.459 Z M84.4449681,16.869 L84.4449681,9.174 C84.4449681,8.97599901 84.3459691,8.877 84.1479681,8.877 L83.0139681,8.877 C81.5379608,8.877 80.7999681,10.6229825 80.7999681,14.115 C80.7999681,17.4810168 81.4299618,19.164 82.6899681,19.164 C83.5359724,19.164 84.075967,18.6420052 84.3099681,17.598 C84.3999686,17.201998 84.4449681,16.9590004 84.4449681,16.869 Z M106.052436,20.973 L100.760436,20.973 C100.742436,20.7029986 100.742436,20.2350033 100.760436,19.569 C100.364434,19.8570014 100.008938,20.099999 99.6939363,20.298 C99.3789347,20.496001 99.0954375,20.6489995 98.8434363,20.757 C98.195433,21.0090013 97.4574404,21.135 96.6294363,21.135 C96.1254338,21.135 95.6394386,21.0180012 95.1714363,20.784 C93.6054284,20.0099961 92.8224363,18.723009 92.8224363,16.923 L92.8224363,10.2 C92.8224363,9.04799424 92.6244383,8.19300279 92.2284363,7.635 L97.2234363,7.635 L97.2234363,7.959 L97.1964363,8.958 L97.1964363,17.22 C97.1964363,17.7420026 97.322435,18.200998 97.5744363,18.597 C97.8444376,19.0290022 98.2404337,19.245 98.7624363,19.245 C99.2844389,19.245 99.7524342,19.0020024 100.166436,18.516 C100.598438,18.0299976 100.814436,17.5260026 100.814436,17.004 L100.814436,10.146 C100.814436,9.04799451 100.607438,8.21100288 100.193436,7.635 L105.323436,7.635 L105.323436,18.84 C105.323436,19.7220044 105.566434,20.4329973 106.052436,20.973 Z M121.314904,14.277 L113.079904,14.304 L113.079904,15.573 C113.079904,16.9410068 113.241903,17.9579967 113.565904,18.624 C114.015907,19.5960049 114.843898,20.082 116.049904,20.082 C116.859908,20.082 117.516902,19.8480023 118.020904,19.38 C118.524907,18.9119977 118.776904,18.2910039 118.776904,17.517 C118.776904,16.9769973 118.596906,16.4550025 118.236904,15.951 C118.614906,15.8069993 118.884904,15.735 119.046904,15.735 C119.640907,15.735 120.108903,15.9149982 120.450904,16.275 C120.792906,16.6350018 120.963904,17.111997 120.963904,17.706 C120.963904,18.8400057 120.351911,19.7489966 119.127904,20.433 C118.083899,21.0090029 116.949911,21.297 115.725904,21.297 C113.313892,21.297 111.432911,20.7030059 110.082904,19.515 C108.642897,18.2729938 107.922904,16.4640119 107.922904,14.088 C107.922904,12.0359897 108.561898,10.3980061 109.839904,9.174 C111.099911,7.96799397 112.773894,7.365 114.861904,7.365 C116.319912,7.365 117.633899,7.74299622 118.803904,8.499 C120.081911,9.30900405 120.855903,10.3979932 121.125904,11.766 C121.197905,12.1260018 121.251904,12.4589985 121.287904,12.765 C121.323905,13.0710015 121.341904,13.3679986 121.341904,13.656 L121.341904,13.953 C121.341904,14.0610005 121.332904,14.1689995 121.314904,14.277 Z M116.481904,13.089 L116.481904,10.848 C116.481904,9.24599199 115.96891,8.445 114.942904,8.445 C114.276901,8.445 113.790906,8.78699658 113.484904,9.471 C113.340904,9.84900189 113.223905,10.4879955 113.133904,11.388 C113.115904,11.5680009 113.102404,11.7524991 113.093404,11.9415 C113.084404,12.1305009 113.079904,12.3329989 113.079904,12.549 L113.079904,12.765 C113.079904,12.8550004 113.088904,12.9629994 113.106904,13.089 L116.481904,13.089 Z" id="2"></path>
        </g>
    </g>
</svg>