<?xml version="1.0" encoding="UTF-8"?>
<svg width="138px" height="32px" viewBox="0 0 138 32" version="1.1" xmlns="http://www.w3.org/2000/svg" xmlns:xlink="http://www.w3.org/1999/xlink">
    <!-- Generator: Sketch 52.6 (67491) - http://www.bohemiancoding.com/sketch -->
    <title>Artboard</title>
    <desc>Created with Sketch.</desc>
    <g id="Artboard" stroke="none" stroke-width="1" fill="none" fill-rule="evenodd">
        <g id="analogue" transform="translate(7.000000, 2.000000)" fill="#FFFFFF">
            <path d="M16.1074634,13.5 L13.7832446,5.51171875 L11.3418384,13.5 L16.1074634,13.5 Z M20.7168384,21 L18.2754321,21 C18.2559009,21 17.6699634,18.9492188 16.4785571,14.828125 L10.9512134,14.828125 L9.38871336,19.9453125 C9.31058836,20.1210938 9.17386961,20.3164062 8.99808836,20.5117188 C8.62699461,20.84375 8.25590086,21 7.90433836,21 L6.67386961,21 C9.93558836,10.2382812 11.5762134,4.7890625 11.5762134,4.6328125 C11.5762134,4.203125 11.3418384,3.91015625 10.8535571,3.75390625 C9.52543211,3.75390625 8.62699461,3.94921875 8.17777586,4.359375 C7.82621336,4.6328125 7.55277586,5.04296875 7.35746336,5.58984375 C7.24027586,5.9609375 7.18168211,6.25390625 7.18168211,6.44921875 L7.18168211,6.5078125 C7.31840086,6.21484375 7.61136961,5.9609375 8.06058836,5.78515625 C8.25590086,5.7265625 8.43168211,5.6875 8.56840086,5.6875 C9.01761961,5.6875 9.42777586,5.86328125 9.77933836,6.234375 C10.0723071,6.56640625 10.2090259,6.9375 10.2090259,7.328125 C10.2090259,7.73828125 10.0723071,8.08984375 9.77933836,8.421875 C9.44730711,8.75390625 9.03715086,8.9296875 8.56840086,8.9296875 C7.65043211,8.9296875 6.92777586,8.48046875 6.43949461,7.6015625 C6.18558836,7.07421875 6.04886961,6.48828125 6.04886961,5.8828125 C6.04886961,5.08203125 6.26371336,4.3203125 6.69340086,3.59765625 C7.57230711,2.171875 8.99808836,1.44921875 10.9707446,1.44921875 L16.1074634,1.4296875 C16.3613696,1.4296875 16.6738696,1.546875 17.0254321,1.76171875 C17.4355884,2.0546875 17.7090259,2.4453125 17.8457446,2.93359375 L21.9082446,17.015625 C22.2793384,18.2851562 22.4746509,19.046875 22.4746509,19.2617188 C22.4746509,19.8671875 22.2402759,20.3359375 21.7519946,20.6875 C21.4394946,20.9023438 21.0879321,21 20.7168384,21 Z M36.4897772,21 L34.0679022,21 C33.5405585,21 33.032746,20.8242188 32.563996,20.453125 C32.3100897,20.1992188 32.1147772,19.9648438 31.9780585,19.7304688 C31.8022772,19.3789062 31.704621,18.96875 31.704621,18.5 L31.704621,11.0390625 C31.704621,10.4726562 31.5874335,10.0039062 31.3335272,9.671875 C31.1382147,9.45703125 30.9038397,9.33984375 30.610871,9.33984375 C30.3179022,9.33984375 30.0444647,9.45703125 29.8100897,9.671875 C29.4975897,9.96484375 29.2632147,10.296875 29.0874335,10.6289062 L29.0874335,21 L24.282746,21 L24.282746,7.328125 L26.7241522,7.328125 C27.1929022,7.328125 27.642121,7.484375 28.0913397,7.77734375 C28.4429022,8.03125 28.6968085,8.32421875 28.8335272,8.65625 C28.970246,8.91015625 29.0288397,9.0859375 29.0288397,9.203125 C30.063996,7.953125 31.2554022,7.328125 32.6225897,7.328125 C33.267121,7.328125 33.9116522,7.484375 34.517121,7.796875 C35.2397772,8.20703125 35.7866522,8.7734375 36.1382147,9.53515625 C36.3725897,10.0234375 36.4897772,10.5898438 36.4897772,11.2148438 L36.4897772,21 Z M43.2002161,19.8476562 C43.5713098,19.8476562 43.9424036,19.5742188 44.3525598,19.0273438 C44.8799036,18.2460938 45.1533411,17.328125 45.1533411,16.2734375 L45.1533411,12.6796875 C44.9775598,13.0703125 44.5283411,13.5 43.7861536,13.9882812 C43.5322473,14.1640625 43.2978723,14.3398438 43.1025598,14.515625 C42.5166223,15.0625 42.2236536,15.8242188 42.2236536,16.8203125 L42.2236536,18.0703125 C42.2236536,18.6367188 42.3408411,19.1054688 42.5752161,19.4765625 C42.7509973,19.7304688 42.9463098,19.8476562 43.2002161,19.8476562 Z M41.9697473,21.0585938 C41.1103723,21.0585938 40.3291223,20.765625 39.6455286,20.1601562 C38.7666223,19.3007812 38.3369348,18.2460938 38.3369348,17.015625 C38.3369348,16.3710938 38.5517786,15.7460938 38.9619348,15.1015625 C39.8017786,13.8710938 41.1299036,13.0898438 42.9072473,12.7578125 C44.1572473,12.4453125 44.8799036,11.8789062 45.0947473,11.078125 C45.1338098,10.9414062 45.1533411,10.6875 45.1533411,10.3359375 C45.1533411,9.7890625 44.9970911,9.359375 44.6845911,9.06640625 C44.3525598,8.7734375 43.9033411,8.6171875 43.2978723,8.6171875 C42.8877161,8.6171875 42.4384973,8.6953125 41.9502161,8.83203125 C42.3213098,9.0078125 42.6142786,9.30078125 42.8291223,9.7109375 C43.0049036,10.0039062 43.1025598,10.296875 43.1025598,10.6289062 C43.1025598,11.15625 42.9072473,11.6445312 42.5361536,12.0742188 C42.0674036,12.5625 41.5400598,12.796875 40.9345911,12.796875 C40.4463098,12.796875 39.9970911,12.640625 39.6064661,12.3085938 C39.1181848,11.8789062 38.8838098,11.3320312 38.8838098,10.6679688 C38.8838098,10.140625 39.0400598,9.6328125 39.3720911,9.125 C39.8213098,8.48046875 40.4658411,8.01171875 41.3056848,7.71875 C41.9697473,7.46484375 42.9267786,7.328125 44.1767786,7.328125 C46.4814661,7.328125 48.0830286,7.9140625 48.9619348,9.10546875 C49.6259973,9.9453125 49.9580286,11.1171875 49.9580286,12.5820312 L49.9580286,21 L47.5556848,21 C46.9502161,21 46.4228723,20.7851562 45.9345911,20.3359375 C45.6416223,20.0429688 45.4463098,19.75 45.3291223,19.4570312 C44.2549036,20.53125 43.1416223,21.0585938 41.9697473,21.0585938 Z M56.3559674,21 C55.3598737,21 54.4614362,20.6484375 53.6801862,19.9257812 C52.8794049,19.1445312 52.4887799,18.1875 52.4887799,17.0546875 L52.4887799,1.4296875 L54.9301862,1.4296875 C55.4184674,1.4296875 55.8872174,1.5859375 56.3364362,1.8984375 C56.9809674,2.38671875 57.2934674,3.05078125 57.2934674,3.9296875 L57.2934674,17.1914062 C57.2934674,17.7773438 57.4106549,18.2460938 57.6450299,18.578125 C57.8208112,18.8125 58.0747174,18.9296875 58.3872174,18.9296875 C59.1294049,18.9296875 59.8325299,18.0703125 60.4770612,16.3710938 L61.3754987,16.3710938 C60.8872174,17.71875 60.2817487,18.7929688 59.5200299,19.5742188 C58.5434674,20.53125 57.4887799,21 56.3559674,21 Z M67.2265625,19.5351562 C67.6953125,19.5351562 68.125,19.125 68.4960938,18.3242188 C68.984375,17.2890625 69.2382812,15.9023438 69.2382812,14.1640625 C69.2382812,12.7578125 69.0625,11.5078125 68.6914062,10.4140625 C68.28125,9.28125 67.7929688,8.71484375 67.2265625,8.71484375 C66.5234375,8.71484375 65.9570312,9.515625 65.546875,11.1367188 C65.3320312,12.0742188 65.2148438,13.0898438 65.2148438,14.1640625 C65.2148438,15.4726562 65.3710938,16.6640625 65.703125,17.71875 C66.1132812,18.9296875 66.6210938,19.5351562 67.2265625,19.5351562 Z M67.2070312,21 C65.546875,21 64.0625,20.4335938 62.7148438,19.28125 C61.171875,17.875 60.4101562,16.1757812 60.4101562,14.1640625 C60.4101562,12.8554688 60.7617188,11.625 61.484375,10.4726562 C62.1484375,9.41796875 63.0664062,8.59765625 64.21875,8.01171875 C65.1367188,7.5625 66.1328125,7.328125 67.2265625,7.328125 C68.0664062,7.328125 68.8867188,7.484375 69.7070312,7.77734375 C71.09375,8.34375 72.2070312,9.26171875 73.0078125,10.53125 C73.6914062,11.6640625 74.0429688,12.875 74.0429688,14.1640625 C74.0429688,15.453125 73.6914062,16.6640625 73.0078125,17.796875 C72.1679688,19.0859375 71.0546875,20.0039062 69.6484375,20.5507812 C68.8671875,20.84375 68.046875,21 67.2070312,21 Z M81.5346576,16.8007812 C81.9448138,16.8007812 82.3159076,16.4492188 82.6479388,15.765625 C83.0190326,15.0234375 83.2143451,14.0273438 83.2143451,12.7578125 C83.2143451,11.6445312 83.0385638,10.6484375 82.6870013,9.80859375 C82.3549701,9.0859375 81.9838763,8.734375 81.5346576,8.734375 C81.2416888,8.734375 80.9487201,8.9296875 80.6752826,9.30078125 C80.1284076,10.0820312 79.8549701,11.234375 79.8549701,12.7578125 C79.8549701,13.9492188 80.0502826,14.984375 80.4409076,15.8242188 C80.7729388,16.46875 81.1245013,16.8007812 81.5346576,16.8007812 Z M80.7924701,26.8789062 C79.6010638,26.8789062 78.5854388,26.6445312 77.7260638,26.15625 C76.7495013,25.5507812 76.2612201,24.7304688 76.2612201,23.65625 C76.2612201,23.109375 76.3979388,22.6210938 76.6909076,22.171875 C77.0229388,21.7226562 77.4526263,21.4882812 77.9604388,21.4882812 C78.4877826,21.4882812 78.9174701,21.6835938 79.2885638,22.09375 C79.5620013,22.4257812 79.6987201,22.796875 79.6987201,23.2070312 C79.6987201,23.6171875 79.5620013,23.9882812 79.2690326,24.3203125 C78.9370013,24.671875 78.5073138,24.8476562 77.9799701,24.8476562 L77.6870013,24.828125 C78.0190326,25.2382812 78.5463763,25.53125 79.2690326,25.6875 C79.6596576,25.7851562 80.0307513,25.84375 80.3823138,25.84375 C81.2612201,25.84375 82.0034076,25.6679688 82.6284076,25.3359375 C83.2338763,25.0039062 83.5463763,24.5351562 83.5463763,23.9492188 C83.5463763,23.5 83.2924701,23.0507812 82.8041888,22.6210938 C82.2182513,22.1328125 81.3198138,21.7617188 80.1088763,21.4882812 C79.4448138,21.3320312 78.8784076,21.15625 78.4096576,20.9609375 C77.1401263,20.4140625 76.5151263,19.6132812 76.5151263,18.578125 C76.5151263,18.03125 76.6713763,17.40625 77.0034076,16.6835938 C76.0659076,15.5898438 75.5971576,14.359375 75.5971576,13.0117188 C75.5971576,11.7421875 76.0073138,10.5898438 76.8471576,9.53515625 C78.1166888,8.0703125 79.6791888,7.328125 81.5346576,7.328125 L82.1205951,7.3671875 C82.2768451,7.0546875 82.5112201,6.7421875 82.8432513,6.41015625 C83.5463763,5.765625 84.3471576,5.453125 85.2455951,5.453125 C85.8510638,5.453125 86.3784076,5.62890625 86.8276263,5.9609375 C87.2573138,6.29296875 87.4721576,6.7421875 87.4721576,7.30859375 C87.4721576,7.77734375 87.2768451,8.1484375 86.8862201,8.40234375 C86.6909076,8.51953125 86.4760638,8.578125 86.2612201,8.578125 C85.9096576,8.578125 85.5971576,8.44140625 85.3237201,8.16796875 C85.0893451,7.89453125 84.9721576,7.6015625 84.9721576,7.2890625 C84.9721576,6.99609375 85.0893451,6.72265625 85.3237201,6.44921875 C85.4409076,6.33203125 85.5385638,6.25390625 85.5971576,6.234375 C85.4995013,6.234375 85.3041888,6.2734375 85.0307513,6.33203125 C84.6791888,6.4296875 84.4057513,6.60546875 84.2299701,6.859375 C84.0151263,7.171875 83.9174701,7.484375 83.9174701,7.81640625 C84.7963763,8.1875 85.5580951,8.71484375 86.1635638,9.4375 C87.0424701,10.53125 87.4721576,11.7226562 87.4721576,13.0117188 C87.4721576,14.3203125 87.0229388,15.53125 86.1440326,16.6054688 C84.8940326,17.9921875 83.3510638,18.6953125 81.5346576,18.6953125 C80.3627826,18.6953125 79.2299701,18.3632812 78.1362201,17.6796875 C78.1362201,18.0703125 78.4682513,18.3828125 79.1323138,18.6367188 C79.6987201,18.8515625 80.7143451,19.0859375 82.1987201,19.3203125 C83.0971576,19.4570312 83.7221576,19.59375 84.0737201,19.7304688 C84.7573138,19.9648438 85.3237201,20.2773438 85.7924701,20.6484375 C86.5151263,21.2929688 86.8666888,21.9960938 86.8666888,22.7578125 C86.8666888,23.4023438 86.6323138,24.0273438 86.1830951,24.6328125 C85.7729388,25.1796875 85.2260638,25.6289062 84.5815326,25.9804688 C83.5268451,26.5859375 82.2573138,26.8789062 80.7924701,26.8789062 Z M100.549784,21 C99.7685339,21 99.0458777,20.765625 98.3622839,20.3164062 C97.7568152,19.90625 97.3271277,19.3984375 97.0341589,18.7539062 C96.8974402,18.9492188 96.7021277,19.1835938 96.4677527,19.4375 C95.4325964,20.4726562 94.3388464,21 93.1474402,21 C92.0732214,21 91.1552527,20.609375 90.3544714,19.828125 C89.6318152,19.0664062 89.2802527,18.1679688 89.2802527,17.1523438 L89.2802527,7.328125 L91.6240027,7.328125 C92.3075964,7.328125 92.8740027,7.5625 93.3622839,8.03125 C93.8505652,8.51953125 94.0849402,9.06640625 94.0849402,9.69140625 L94.0849402,17.09375 C94.0849402,18.34375 94.4560339,18.96875 95.1786902,18.96875 C95.6669714,18.96875 96.1943152,18.5195312 96.7216589,17.640625 C96.7021277,17.4648438 96.7021277,14.0273438 96.7021277,7.328125 L101.487284,7.328125 L101.487284,17.25 C101.487284,17.8554688 101.624003,18.3046875 101.877909,18.6367188 C102.05369,18.8515625 102.288065,18.96875 102.581034,18.96875 C103.342753,18.96875 104.045878,18.109375 104.70994,16.3710938 L105.608378,16.3710938 C105.17869,17.6210938 104.612284,18.6171875 103.92869,19.3789062 C102.913065,20.453125 101.780253,21 100.549784,21 Z M109.779754,14.8476562 C110.092254,14.8476562 110.521942,14.6328125 111.049285,14.203125 C111.59616,13.6953125 111.947723,13.1289062 112.103973,12.484375 C112.162567,12.2304688 112.182098,11.5664062 112.182098,10.5117188 C112.182098,9.203125 111.850067,8.5390625 111.205535,8.5390625 C110.756317,8.5390625 110.326629,8.87109375 109.896942,9.5546875 C109.506317,10.1601562 109.291473,11.0976562 109.25241,12.3671875 L109.25241,14.1835938 C109.25241,14.6328125 109.428192,14.8476562 109.779754,14.8476562 Z M111.615692,21 C109.643035,21 107.943817,20.3164062 106.478973,18.9492188 C105.092254,17.5625 104.40866,15.9609375 104.40866,14.1054688 C104.40866,12.9726562 104.623504,11.9375 105.072723,10.9804688 C105.795379,9.515625 106.947723,8.4609375 108.529754,7.81640625 C109.369598,7.484375 110.248504,7.328125 111.12741,7.328125 C112.592254,7.328125 113.822723,7.73828125 114.799285,8.578125 C115.65866,9.359375 116.088348,10.3359375 116.088348,11.5078125 C116.088348,12.5039062 115.619598,13.4414062 114.662567,14.3203125 C113.510223,15.2382812 112.182098,15.6875 110.678192,15.6875 C110.228973,15.6875 109.779754,15.6484375 109.311004,15.5703125 C109.311004,15.6679688 109.350067,15.9414062 109.40866,16.4101562 C109.56491,17.1328125 109.799285,17.71875 110.092254,18.1875 C110.736785,19.0859375 111.732879,19.5351562 113.041473,19.5351562 C114.037567,19.5351562 115.014129,19.1640625 115.932098,18.421875 C116.59616,17.8164062 117.123504,17.1328125 117.514129,16.3710938 L118.373504,16.3710938 L118.353973,16.390625 C117.768035,17.875 116.791473,19.046875 115.443817,19.90625 C114.291473,20.6289062 113.00241,21 111.615692,21 Z" id="3"></path>
        </g>
    </g>
</svg>