<?xml version="1.0" encoding="UTF-8"?>
<svg width="138px" height="32px" viewBox="0 0 138 32" version="1.1" xmlns="http://www.w3.org/2000/svg" xmlns:xlink="http://www.w3.org/1999/xlink">
    <!-- Generator: Sketch 52.6 (67491) - http://www.bohemiancoding.com/sketch -->
    <title>Artboard</title>
    <desc>Created with Sketch.</desc>
    <g id="Artboard" stroke="none" stroke-width="1" fill="none" fill-rule="evenodd">
        <g id="analogue" transform="translate(7.000000, 2.000000)" fill="#FFFFFF">
            <path d="M27.0368083,1.69 L27.0068083,22.03 L23.3468083,22.03 L23.3468083,15.61 C22.1768083,15.79 20.6768083,16 19.7468083,16 C18.5468083,24.04 13.5368083,22.12 13.0868083,20.5 C15.0068083,21.1 15.9668083,18.01 16.2968083,15.25 C13.5968083,14.14 13.3868083,11.77 14.8868083,9.7 C15.3668083,10.63 15.9368083,11.32 16.5968083,11.83 C17.0168083,7.33 17.6768083,1.27 23.4968083,0.85 C24.1868083,0.85 26.8868083,0.91 27.0368083,1.69 Z M19.9868083,13.39 C20.8868083,13.51 22.3268083,13.45 23.3468083,13.51 L23.3468083,2.14 C19.5068083,2.62 20.3468083,10.78 19.9868083,13.39 Z M39.4051063,18.25 C39.3151063,19.6 39.8551063,20.2 40.2751063,20.26 C41.8951063,20.56 42.2851063,17.92 42.2551063,16 L43.2151063,16 C44.0851063,23.98 35.4751063,23.41 35.8651063,17.77 C35.7751063,11.14 36.0751063,8.74 34.6051063,8.62 C33.8551063,8.56 32.9551063,8.8 32.9551063,10.96 L32.9551063,22 L29.4751063,22 L29.4751063,7 L33.0151063,7 L33.0151063,8.23 C33.8551063,7.39 34.6951063,7.03 35.5051063,7.03 C39.4351063,7 39.4051063,9.85 39.4051063,18.25 Z M52.8534042,7 L52.8834042,18.43 C52.7934042,19.78 53.2734042,20.38 53.6934042,20.44 C55.3734042,20.74 55.7334042,17.92 55.6734042,16 L56.6334042,16 C57.2334042,23.02 51.5334042,23.35 49.4034042,20.14 C46.5534042,24.91 42.2334042,20.08 42.1734042,14.5 C42.1134042,9.1 45.9234042,4.84 49.3134042,8.23 L49.3134042,7 L52.8534042,7 Z M46.0134042,14.53 C46.0134042,17.86 46.6734042,19.54 47.5734042,19.96 C47.8434042,20.08 49.3434042,19.96 49.3134042,17.95 L49.1634042,10.93 C49.1034042,8.98 48.5034042,8.32 47.7234042,8.62 C46.8234042,8.95 46.0134042,11.29 46.0134042,14.53 Z M56.1617021,17.77 L56.1917021,1 L59.7317021,1 L59.7317021,18.25 C59.6417021,19.6 60.1217021,20.2 60.5417021,20.26 C62.1617021,20.56 62.5517021,17.92 62.5217021,16 L63.4817021,16 C64.3517021,23.98 55.7717021,23.41 56.1617021,17.77 Z M62.41,14.5 C62.41,10.36 64.81,7 68.08,7 C71.32,7 73.54,10.36 73.54,14.5 C73.54,18.64 71.32,22 68.08,22 C64.81,22 62.41,18.64 62.41,14.5 Z M66.25,14.53 C66.25,18.13 66.46,21.07 67.99,21.07 C69.49,21.07 69.67,17.98 69.67,14.38 C69.67,10.78 69.49,8.02 67.99,8.02 C66.46,8.02 66.25,10.93 66.25,14.53 Z M90.2582979,16.03 C90.5282979,20.59 88.3082979,23.11 86.2682979,23.2 C85.9682979,27.52 84.9182979,28.87 83.0882979,28.93 C79.5782979,29.05 76.9082979,22.63 82.6682979,22 L82.6682979,20.35 C79.8182979,24.76 75.5582979,20.02 75.4982979,14.5 C75.4382979,9.1 79.2482979,4.84 82.6382979,8.23 L82.6382979,7 L86.1782979,7 L86.1482979,22 C88.9982979,21.76 89.3582979,17.77 89.2982979,16.03 L90.2582979,16.03 Z M79.3382979,14.53 C79.3382979,17.89 79.9382979,19.6 80.9282979,19.93 C81.5282979,20.14 82.6082979,19.54 82.6082979,18.01 L82.5482979,10.93 C82.5182979,8.92 81.7682979,8.32 80.9882979,8.62 C80.1182979,8.95 79.3382979,11.35 79.3382979,14.53 Z M81.3782979,26.53 C81.8282979,26.95 83.0882979,26.17 82.7282979,23.23 C80.7782979,23.14 80.1182979,25.3 81.3782979,26.53 Z M93.1765958,22 C89.7265958,22.03 89.2465958,19.84 89.2765958,13.6 L89.3065958,7 L92.8165958,7 L92.8165958,14.32 C92.8465958,18.67 92.8765958,20.14 94.0765958,20.41 C94.7665958,20.56 95.7265958,20.02 95.7265958,18.82 L95.7265958,7.03 L99.2365958,7.03 L99.2365958,18.22 C99.2365958,19.78 99.6865958,20.17 100.106596,20.23 C101.726596,20.53 102.116596,17.92 102.086596,16 L103.046596,16 C103.736596,22.51 98.0965958,23.32 96.2665958,20.29 C95.3665958,21.67 93.8965958,22 93.1765958,22 Z M112.714894,16 L113.674894,16 L113.674894,17.44 C113.674894,21.4 109.744894,22.36 106.804894,21.94 C104.074894,21.52 102.034894,18.55 102.004894,14.47 C101.944894,10.39 103.804894,7.24 106.654894,7 C110.074894,6.7 110.914894,9.22 110.674894,11.08 C110.074894,15.58 107.854894,16.84 105.874894,16.78 C105.844894,19 106.114894,19.84 106.954894,20.29 C108.754894,21.28 112.504894,20.2 112.714894,17.2 L112.714894,16 Z M105.754894,15.1 C107.074894,15.46 107.764894,13.69 108.064894,11.92 C108.334894,10.3 108.214894,8.56 107.554894,8.59 C106.894894,8.62 106.354894,9.82 106.054894,11.59 C105.904894,12.46 105.754894,14.05 105.754894,15.1 Z" id="4"></path>
        </g>
    </g>
</svg>