<svg xmlns="http://www.w3.org/2000/svg" width="138" height="32" xmlns:v="https://vecta.io/nano"><path d="M32.646 10.015h-.054l.108-.73h.08l-.135.73zm1.728 2.51h-2.78l.108-.702h2.78l-.108.702zm-.675-1.242h-4.725l.108-.73h4.752l-.135.73zm.89 2.51h-2.133l.108-.73h2.16l-.135.73zm.243 1.27h-.73l.108-.73h.73l-.108.73zm-3.24-2.538h-3.078l.108-.702H31.7l-.108.702zm1-2.51h-10.53l.108-.73H32.7l-.108.73zm-1.62-1.27H20.685l.108-.702h10.314l-.135.702zm1.485 5.05H28.92l.135-.73h3.5l-.108.73zm-3.483-2.51h-2.376l.108-.73h2.376l-.108.73zm5.13 3.78h-4.752l.108-.73h4.752l-.108.73zm.513 1.242H29.38l.135-.702h5.21l-.108.702zm-.216 1.27h-5.454l.135-.73h5.427l-.108.73zm-.405 1.27H28.57l.108-.73h5.427l-.108.73zM20.685 8.746h-2.943l.108-.702h2.943l-.108.702zm12.717 11.34h-5.67l.108-.702h5.67l-.108.702zm-11.34-10.07h-4.51l.108-.73h4.51l-.108.73zm10.476 11.34h-2.62l.108-.73h2.62l-.108.73zm-9.963-10.07h-4.158l.135-.73h4.13l-.108.73zm-.216 1.242h-1.296l.108-.702h1.296l-.108.702zm-.19 1.27h-.243l.108-.73h.27l-.135.73zm-3.753-2.51H17.3l.108-.73h1.134l-.135.73zm2.646 1.242H17.12l.108-.702h3.942l-.108.702zm8.856 8.83h-3.672l.108-.73h3.672l-.108.73zm-7.992-7.56h-5.022l.108-.73h5.022l-.108.73zm.027 1.27h-5.238l.108-.73h5.238l-.108.73zm9.558 7.56h-9.288l.108-.73h9.315l-.135.73zm-9.774-6.318H16.5l.108-.702h5.238l-.108.702zm8.29 7.56h-6.804l.108-.702h6.804l-.108.702zm-8.45-6.29H17.23l.108-.73h4.347l-.108.73zm-.243 1.27h-4.13l.108-.73h4.158l-.135.73zm-4.104-1.27H16.3l.108-.73h.918l-.108.73zm3.726 3.78h-1.593l.108-.73h1.593l-.108.73zm.19-1.27h-5.238l.108-.702h5.238l-.108.702zm-3.942-1.242h-1.107l.135-.73h1.08l-.108.73zm9.693 6.29H17.12l.108-.73h9.8l-.135.73zm-7.533-3.78h-3.618l.108-.73h3.618l-.108.73zm2.862 1.27h-6.67l.108-.73h6.67l-.108.73zm1 1.242H15.34l.108-.702h7.884l-.108.702zm-6.102 1.27h-1.998l.108-.73h1.998l-.108.73zm26.163-16.39h-.135l.108-.702h.135l-.108.702zm-.135 0h-4.94l.108-.702h4.94l-.108.702zm-.108 1.27h-5.05l.135-.73h5.022l-.108.73zm-.216 1.27H37.83l.108-.73h5.022l-.135.73zm-.19 1.242h-3.753l.108-.702h3.753l-.108.702zm-.19 1.27h-3.97l.135-.73h3.942l-.108.73zm-3.564-1.27h-1.27l.108-.702h1.27l-.108.702zm3.348 2.538h-3.537l.108-.73h3.564l-.135.73zm-3.753-1.27h-1.08l.108-.73h1.107l-.135.73zm3.564 2.51h-5.05l.108-.702h5.05l-.108.702zm-3.348-1.242H37.21l.108-.73h1.485l-.108.73zm3.16 2.51h-5.05l.108-.73h5.05l-.108.73zm-.378 2.51h-.89l.108-.702h.89l-.108.702zm.162-1.242h-5.05l.135-.73h5.022l-.108.73zm-.405 2.51h-1.16l.108-.73h1.188l-.135.73zm-.648-1.27H36.4l.108-.702h4.185l-.108.702zm-.513 1.27h-3.834l.108-.73h3.834l-.108.73zm1 1.27h-5.076l.135-.73h5.05l-.108.73zm-.19 1.242h-2.51l.108-.702h2.51l-.108.702zm-2.51 0h-2.565l.108-.702h2.565l-.108.702zm2.268 1.27h-5.022l.108-.73h5.05l-.135.73zm20.44-16.39h-6.2l.108-.702h6.237l-.135.702zm1.053 1.27h-5.886l.108-.73h5.913l-.135.73zm.918 1.27h-5.832l.135-.73h5.832l-.135.73zm-5.157-3.78h-4.023l.135-.73H58l-.108.73zm5.562 5.022h-5.265l.108-.702h5.265l-.108.702zm-.783 1.27h-4.104l.135-.73h4.077l-.108.73zm.35 2.51h-2.24l.108-.702h2.24l-.108.702zm-.162 1.27h-.89l.108-.73h.89l-.108.73zm-7.992-8.83h-4.6l.108-.702h4.6l-.108.702zm7.83 10.098h-.756l.108-.73h.756l-.108.73zm-6.453-8.83h-7.668l.108-.73h7.668l-.108.73zm-2.89 1.27h-.73l.108-.73h.73l-.108.73zm7.425 5.022h-6.615l.108-.702h6.615l-.108.702zm1.755 3.78h-2.08l.108-.702h2.08l-.108.702zm-.594-2.51h-7.938l.108-.73h7.938l-.108.73zm-9.315-6.29h-5.562l.108-.73h5.562l-.108.73zm9.315 7.56h-8.235l.108-.73h8.235l-.108.73zm-1.485 1.242H57.62l.108-.702h2.835l-.108.702zm1.836 1.27h-5.616l.135-.73h5.59l-.108.73zm-10.395-8.83H46.28l.135-.702h5.59l-.108.702zm10.18 10.098h-5.643l.108-.73h5.67l-.135.73zm-.297 1.242h-4.374l.108-.702h4.4l-.135.702zm-10.692-10.07h-5.48l.108-.73h5.508l-.135.73zm10.61 11.34h-2.62l.135-.73h2.592l-.108.73zm-11.313-10.07H47.2l.135-.73h3.16l-.108.73zm-3.186 0H45.2l.108-.73h2.025l-.135.73zm3.05 1.242h-5.454l.108-.702h5.454l-.108.702zm.027 3.78H49.9l.108-.702h.378l-.108.702zm-.243-2.51h-5.4l.108-.73h5.427l-.135.73zm0 1.27h-5.427l.108-.73h5.427l-.108.73zm6.4 3.78H45.876l.108-.73H56.54l-.108.73zm-.108 2.51h-5.022l.135-.73h4.995l-.108.73zm1.08-1.27h-10.53l.108-.702h10.53l-.108.702zm-7.506-3.78h-5.292l.108-.702h5.292l-.108.702zm1.053 1.27H45.12l.135-.73h5.805l-.108.73zm.35 3.78h-2.916l.108-.73h2.943l-.135.73zm-5.427-2.51h-.35l.108-.73h.35l-.108.73zm1 1.242h-.486l.108-.702h.486l-.108.702zM71.77 8.746h-.135l.108-.702h.135l-.108.702zm-.135 0h-4.94l.108-.702h4.94l-.108.702zm-.108 1.27h-5.05l.135-.73h5.022l-.108.73zm-.216 1.27h-4.995l.108-.73h5.022l-.135.73zm-.19 1.242h-3.753l.108-.702h3.753l-.108.702zm-.19 1.27h-3.97l.135-.73h3.942l-.108.73zm-3.564-1.27H66.1l.108-.702h1.27l-.108.702zm3.348 2.538H67.18l.108-.73h3.564l-.135.73zm-3.753-1.27h-1.08l.108-.73h1.107l-.135.73zm3.564 2.51h-5.05l.108-.702h5.05l-.108.702zm-3.348-1.242h-1.485l.108-.73h1.485l-.108.73zm3.16 2.51h-5.05l.108-.73h5.05l-.108.73zm-.378 2.51h-.89l.108-.702h.89l-.108.702zm.162-1.242h-5.05l.135-.73h5.022l-.108.73zm-.405 2.51h-1.16l.108-.73h1.188l-.135.73zm-.648-1.27h-4.185l.108-.702h4.185l-.108.702zm-.513 1.27H64.72l.108-.73h3.834l-.108.73zm1 1.27H64.48l.135-.73h5.05l-.108.73zm-.19 1.242h-2.51l.108-.702h2.51l-.108.702zm-2.51 0H64.3l.108-.702h2.565l-.108.702zm2.268 1.27H64.1l.108-.73h5.05l-.135.73zM90.642 8.8H88.32l.108-.73h2.35l-.135.73zm-.162 1.27H80.3l.135-.73h10.152l-.108.73zM88.32 8.8H77.763l.135-.73h10.53l-.108.73zm-3.537 2.51H80.68l.108-.702h4.104l-.108.702zm-.19 1.27h-4.32l.108-.73h4.32l-.108.73zm-3.915-1.27h-1.134l.108-.702h1.134l-.108.702zm3.7 2.538H79.14l.135-.73h5.238l-.135.73zM77.763 8.8H74.47l.135-.73h3.294l-.135.73zm2.538 1.27h-6.02l.108-.73h6.048l-.135.73zm-.027 2.51h-.918l.108-.73h.918l-.108.73zm3.915 2.51h-5.05l.108-.702h5.05l-.108.702zM84 16.36h-4.6l.108-.73h4.6l-.108.73zm-.216 1.27h-3.348l.108-.73h3.348l-.108.73zM79.14 15.09h-.19l.108-.702h.19l-.108.702zm4.455 3.78h-2.673l.108-.702h2.673l-.108.702zM79.4 16.36h-.648l.108-.73h.648l-.108.73zm3.97 3.78h-1.485l.135-.73h1.485l-.135.73zm-2.943-2.51h-1.9l.108-.73h1.9l-.108.73zm.486 1.242h-2.565l.108-.702h2.565l-.108.702zm.972 1.27H78.14l.135-.73h3.753l-.135.73zm1.296 1.27h-5.238l.108-.73h5.238l-.108.73zM83 22.65h-5.238l.108-.702h5.238L83 22.65zm-.216 1.27h-4.077l.108-.73h4.077l-.108.73zm-.19 1.27h-4.6l.108-.73h4.6l-.108.73zm-3.888-1.27h-1.16l.135-.73h1.134l-.108.73zm-.702 1.27h-.648l.108-.73h.648l-.108.73zm28.512-13.905h-1.836l.135-.73h1.81l-.108.73zm-.675-2.538h-6.94l.108-.702h6.966l-.135.702zm.243 1.27H98.3l.108-.73h7.776l-.108.73zm.89 3.78h-5.48l.108-.73h5.48l-.108.73zm-2.295-2.51H97.69l.108-.73h7.02l-.135.73zm2.052 1.242h-9.91l.108-.702h9.91l-.108.702zm.432 2.538h-5.454l.135-.73h5.427l-.108.73zm.432 1.242h-5.292l.135-.702h5.265l-.108.702zm.243 1.27h-4.347l.108-.73h4.374l-.135.73zm.19 1.27h-4.563l.108-.73h4.6l-.135.73zm-5.724-2.538h-.162l.108-.702h.19l-.135.702zm6.615 6.318h-.432l.135-.73h.405l-.108.73zm-.216-1.27h-3.078l.135-.73h3.05l-.108.73zm-8.073-7.56h-2.997l.135-.73h2.997l-.135.73zm2.862 3.78h-1.107l.108-.73h1.107l-.108.73zm4.968 2.51h-6.48l.108-.702h6.48l-.108.702zm-8.45-5.022h-.73l.108-.73h.73l-.108.73zm-2.376-1.27H96.23l.108-.73h1.43l-.135.73zm10.854 8.83h-5.022l.108-.73h5.05l-.135.73zm-9.207-7.56H95.6l.108-.73H99.4l-.108.73zm9.882 8.802h-5.48l.108-.702h5.48l-.108.702zm.405 1.27h-5.643l.108-.73h5.67l-.135.73zm-10.18-8.83h-4.617l.108-.702h4.617l-.108.702zm4.077 2.538h-9.963l.135-.73h9.936l-.108.73zm-4.914-1.27h-4.4l.108-.73h4.4l-.108.73zm7.074 3.78h-10.53l.108-.73h10.557l-.135.73zm-3.645-1.27h-9.288l.108-.702h9.288l-.108.702zm-6.885 1.27h-3.024l.108-.73h3.024l-.108.73zm.972 1.27h-4.6l.108-.73h4.617l-.135.73zm-.8 1.242H90.83l.135-.702h4.4l-.108.702zm-.62 1.27h-1.782l.108-.73h1.782l-.108.73zm-1.782 0h-2.862l.108-.73h2.862l-.108.73zm26.595-16.39h-.945l.108-.702h.945l-.108.702zm-.945 0h-4.293l.108-.702h4.293l-.108.702zm.73 1.27h-5.265l.135-.73h5.265l-.135.73zm-.19 1.27h-5.265l.108-.73h5.265l-.108.73zm-.19 1.242h-4.617l.108-.702h4.617l-.108.702zm-.216 1.27h-4.806l.108-.73h4.833l-.135.73zm-4.4-1.27h-.62l.108-.702h.62l-.108.702zm4.212 2.538h-4.428l.135-.73h4.4l-.108.73zm7.236 8.802h-1.43l.135-.702h1.404l-.108.702zm-11.853-10.07h-.432l.135-.73h.405l-.108.73zm4.428 2.51h-5.238l.108-.702h5.238l-.108.702zm-4.24-1.242h-.837l.108-.73h.864l-.135.73zm4.023 2.51h-5.238l.108-.73h5.238l-.108.73zm-.405 2.51h-1.7l.108-.702h1.728l-.135.702zm.216-1.242h-5.292l.135-.73h5.265l-.108.73zm7.614 6.29h-8.02l.108-.73h8.046l-.135.73zm-8.02-3.78H115.4l.135-.73h2.025l-.108.73zm6.804 2.51h-10.53l.108-.702h10.557l-.135.702zm-6.993-1.242h-.54l.108-.73h.54l-.108.73zm-1.323-2.538h-3.537l.135-.702h3.5l-.108.702zm-.54 1.27h-3.186l.108-.73h3.213l-.135.73zm1.323 1.27h-4.698l.108-.73h4.698l-.108.73zm.73 2.51h-5.832l.108-.73h5.832l-.108.73zm-3.726-1.27h-1.944l.108-.702h1.944l-.108.702z" fill="#fff" fill-rule="evenodd"/></svg>