<svg xmlns="http://www.w3.org/2000/svg" width="138" height="32" xmlns:v="https://vecta.io/nano"><path d="M35.758 15.536c.035.485.026.927-.026 1.326l-.13.858c-.052.277-.12.563-.208.858l-.117.312-.117.286-.117.312-.117.286a10.49 10.49 0 0 1-.624 1.118l-.312.43a5.24 5.24 0 0 1-.338.429l-.416.48-.442.43-.988.754c-.087.07-.178.134-.273.195a3.33 3.33 0 0 1-.299.169 11.73 11.73 0 0 1-1.144.572 8.4 8.4 0 0 1-1.222.39c-.763.19-1.5.286-2.2.286h-5.044c-.052 0-.13-.017-.234-.052-.07-.035-.113-.07-.13-.104-.035-.017-.07-.06-.104-.13-.017-.035-.026-.087-.026-.156V7.346c0-.087.01-.147.026-.182.017-.07.052-.13.104-.182.035-.035.095-.07.182-.104a.42.42 0 0 1 .182-.052h5.044l.65.026.65.078.9.182a8.4 8.4 0 0 1 1.222.39l.546.26.52.26.546.325c.173.113.338.238.494.377.676.503 1.265 1.092 1.768 1.768l.403.624.377.65a5.71 5.71 0 0 1 .273.572l.247.598c.087.208.156.42.208.637l.156.663.09.637a5.56 5.56 0 0 1 .039.663zm-.338.4a8.78 8.78 0 0 0-.676-3.38c-.485-1.092-1.118-2.02-1.898-2.782-.763-.78-1.7-1.413-2.782-1.898-1.092-.45-2.227-.676-3.406-.676h-5.044c-.104 0-.156.052-.156.156v17.238c0 .052.052.078.156.078h5.044c1.18 0 2.314-.225 3.406-.676a8.93 8.93 0 0 0 2.782-1.872 9.11 9.11 0 0 0 1.898-2.782c.45-1.092.676-2.227.676-3.406zm-.962-3.276a7.03 7.03 0 0 1 .494 1.586 9.15 9.15 0 0 1 .156 1.69c0 1.196-.217 2.288-.65 3.276a8.55 8.55 0 0 1-.793 1.443c-.303.442-.646.854-1.027 1.235-.797.78-1.7 1.387-2.704 1.82-.988.433-2.09.65-3.302.65H21.77v-.9h4.862a7.61 7.61 0 0 0 2.964-.598c.9-.38 1.7-.92 2.392-1.612a7.55 7.55 0 0 0 1.612-2.366 7.42 7.42 0 0 0 .598-2.938 7.36 7.36 0 0 0-.598-2.912 7.51 7.51 0 0 0-.689-1.274 7.53 7.53 0 0 0-.923-1.118c-.693-.676-1.49-1.213-2.392-1.612a7.61 7.61 0 0 0-2.964-.598H21.77v-.9h4.862c1.213 0 2.314.217 3.302.65 1.005.433 1.907 1.04 2.704 1.82a10.05 10.05 0 0 1 1.027 1.261c.303.442.568.914.793 1.417zm-1.118.468c.38.867.572 1.82.572 2.86 0 1.005-.19 1.94-.572 2.808-.4.9-.92 1.673-1.56 2.314-.693.66-1.465 1.18-2.314 1.56a6.93 6.93 0 0 1-2.834.598H21.77v-1.066h4.862c.884 0 1.707-.165 2.47-.494.797-.312 1.465-.754 2.002-1.326.59-.59 1.04-1.257 1.352-2.002.33-.728.494-1.543.494-2.444 0-.884-.165-1.7-.494-2.418-.312-.745-.763-1.413-1.352-2.002-.52-.555-1.187-1.005-2.002-1.352-.763-.33-1.586-.494-2.47-.494H21.77v-.962h4.862a7.37 7.37 0 0 1 2.834.546c.85.38 1.62.9 2.314 1.56.66.693 1.18 1.465 1.56 2.314zm-1.118.468c.312.763.468 1.543.468 2.34 0 .815-.156 1.586-.468 2.314-.295.745-.71 1.387-1.248 1.924s-1.18.962-1.924 1.274c-.71.33-1.482.494-2.314.494h-4.888v-.988h4.888c.693 0 1.352-.13 1.976-.4s1.16-.615 1.612-1.066c.433-.433.797-.962 1.092-1.586.26-.59.4-1.248.4-1.976 0-.693-.13-1.343-.4-1.95-.295-.624-.66-1.153-1.092-1.586-.433-.468-.97-.832-1.612-1.092-.624-.26-1.283-.4-1.976-.4h-4.888V9.92h4.888c.832 0 1.603.165 2.314.494.745.312 1.387.737 1.924 1.274.537.503.953 1.135 1.248 1.898zm-1.118.494c.225.555.338 1.17.338 1.846s-.113 1.29-.338 1.846a8.06 8.06 0 0 1-.442.819c-.156.25-.347.48-.572.69-.416.433-.92.78-1.508 1.04a4.85 4.85 0 0 1-.897.273 4.97 4.97 0 0 1-.975.091h-4.862v-.962H26.7a3.67 3.67 0 0 0 1.508-.312 2.81 2.81 0 0 0 .663-.338 4.1 4.1 0 0 0 .559-.468c.347-.312.624-.71.832-1.196.19-.4.286-.893.286-1.482 0-.537-.095-1.023-.286-1.456-.225-.503-.503-.9-.832-1.222a4.1 4.1 0 0 0-.559-.468 2.81 2.81 0 0 0-.663-.338 3.67 3.67 0 0 0-1.508-.312h-4.862v-.962H26.7c.693 0 1.317.12 1.872.364.59.26 1.092.598 1.508 1.014a4.83 4.83 0 0 1 1.014 1.534zm-1.066.468c.173.416.26.875.26 1.378s-.087.962-.26 1.378c-.208.45-.46.823-.754 1.118-.33.33-.71.58-1.144.754-.468.19-.927.286-1.378.286h-4.888v-.884h4.888c.33 0 .676-.07 1.04-.208.312-.12.58-.312.806-.572a2.56 2.56 0 0 0 .572-.832c.12-.295.182-.624.182-.988 0-.38-.06-.72-.182-1.014a2.56 2.56 0 0 0-.572-.832 3.26 3.26 0 0 0-.377-.325c-.13-.095-.273-.178-.43-.247-.312-.12-.66-.182-1.04-.182h-4.888V12.4h4.888c.45 0 .9.095 1.378.286.433.19.815.442 1.144.754.295.295.546.667.754 1.118zm-1.144.468a2.65 2.65 0 0 1 .182.91 2.65 2.65 0 0 1-.182.91c-.07.14-.143.27-.22.4a2.03 2.03 0 0 1-.611.611c-.12.078-.25.152-.4.22-.295.104-.598.156-.9.156h-4.888v-.884h4.888c.38 0 .702-.13.962-.4.277-.26.416-.58.416-.962a1.35 1.35 0 0 0-.416-.988c-.26-.26-.58-.4-.962-.4h-4.888v-.962h4.888c.312 0 .615.052.9.156.14.07.27.143.4.22a2.03 2.03 0 0 1 .611.611c.078.12.152.25.22.4zm-1.118.832h-5.954v-.988h4.862c.277 0 .53.095.754.286.208.208.32.442.338.702zm-5.954.26h5.954c-.017.243-.13.477-.338.702-.19.173-.442.26-.754.26h-4.862v-.962zM42.96 7.372v17.212c0 .035-.004.065-.013.09s-.013.056-.013.09c-.017.035-.052.078-.104.13-.035.035-.087.07-.156.104a.79.79 0 0 1-.234.026h-4.914c-.104 0-.182-.017-.234-.052-.07-.035-.12-.07-.156-.104-.07-.104-.104-.2-.104-.286V7.372c0-.07.017-.156.052-.26a.37.37 0 0 0 .065-.078.37.37 0 0 1 .065-.078l.156-.078c.035-.017.087-.026.156-.026h4.914c.035 0 .07.004.104.013s.07.013.104.013l.182.156c.017.017.052.07.104.156 0 .035.004.065.013.09s.013.056.013.09zm-.364 17.212V7.372c0-.104-.052-.156-.156-.156h-4.914c-.087 0-.13.052-.13.156v17.212c0 .07.043.104.13.104h4.914c.104 0 .156-.035.156-.104zM42.3 7.476v16.952h-.936V7.476h.936zm-1.196 0v16.952h-.988V7.476h.988zm-1.248 0v16.952h-.962V7.476h.962zm-1.248 0v16.952h-.936V7.476h.936zm22.802 8.372v8.658c0 .035-.004.065-.013.09s-.013.056-.013.09c-.052.052-.087.095-.104.13-.035.035-.087.07-.156.104a.79.79 0 0 1-.234.026h-7.358c-.243 0-.48-.01-.715-.026l-.715-.078-.884-.182c-.45-.12-.893-.277-1.326-.468a6.81 6.81 0 0 1-.624-.299l-.598-.35c-.66-.433-1.274-.962-1.846-1.586-.295-.312-.572-.667-.832-1.066l-.17-.273a3.33 3.33 0 0 1-.169-.299l-.325-.624-.273-.624c-.173-.4-.312-.85-.416-1.352l-.156-1.352-.026-.728a5.14 5.14 0 0 1 .052-.728l.143-.923.22-.897.26-.676.286-.624c.104-.243.225-.472.364-.69l.416-.637c.433-.59.9-1.1 1.404-1.534a6.08 6.08 0 0 1 .533-.429l.56-.403.585-.35a4.78 4.78 0 0 1 .637-.299c.416-.173.858-.33 1.326-.468a7.61 7.61 0 0 1 1.144-.221c.38-.043.77-.065 1.17-.065.78 0 1.517.087 2.2.26.364.087.715.2 1.053.338s.68.303 1.027.494a8.43 8.43 0 0 1 1.82 1.274 7.7 7.7 0 0 1 .793.806 6.31 6.31 0 0 1 .637.91c.035.035.056.065.065.09s.022.056.04.09v.182c-.035.12-.087.217-.156.286l-.026.026h-.026L59.3 12.598l-1.677 1.118-1.21.82-1.21.793H60.9c.035 0 .065.004.09.013s.056.013.09.013c.052.017.113.06.182.13.035.035.07.087.104.156a.85.85 0 0 1 .052.208zm-.364 8.658v-8.658c0-.104-.052-.156-.156-.156h-6.864l1.703-1.13 1.677-1.13 1.7-1.13 1.716-1.13c.017-.017.026-.06.026-.13 0-.035-.01-.06-.026-.078-.347-.572-.806-1.118-1.378-1.638a6.81 6.81 0 0 0-.832-.663l-.9-.585a10.42 10.42 0 0 0-2.002-.78 8.66 8.66 0 0 0-1.053-.195c-.355-.043-.715-.065-1.08-.065a8.32 8.32 0 0 0-3.406.702 8.93 8.93 0 0 0-2.782 1.872c-.78.815-1.404 1.75-1.872 2.808-.45 1.057-.676 2.2-.676 3.432a9.65 9.65 0 0 0 .156 1.755c.104.563.277 1.114.52 1.65.485 1.075 1.11 1.993 1.872 2.756a8.85 8.85 0 0 0 1.287 1.066c.46.312.95.59 1.47.832a8.32 8.32 0 0 0 3.406.702H60.9c.104 0 .156-.035.156-.104zm-.208-8.554v8.372h-.936V17.07c0-.104-.052-.156-.156-.156h-6.162c-.295 0-.555-.104-.78-.312-.208-.208-.312-.45-.312-.728 0-.295.104-.546.312-.754s.46-.312.754-.312.563.12.806.364l-.9.546v.026h-.052v.156h.026l.026.026h.026v.026h7.358zm-.312-4.888l-.78.494a7.73 7.73 0 0 0-2.678-2.34 7.25 7.25 0 0 0-3.458-.858 7.42 7.42 0 0 0-2.938.598c-.9.38-1.707.9-2.418 1.586-.693.693-1.23 1.49-1.612 2.392a7.42 7.42 0 0 0-.598 2.938c0 .97.19 1.933.572 2.886.19.45.42.87.69 1.26a9.09 9.09 0 0 0 .897 1.105 7.55 7.55 0 0 0 2.366 1.612 8.7 8.7 0 0 0 1.391.455 6.48 6.48 0 0 0 1.495.169v.936c-1.18-.017-2.27-.25-3.276-.702-1.04-.485-1.915-1.092-2.626-1.82-.763-.763-1.36-1.655-1.794-2.678-.433-1.057-.65-2.14-.65-3.25 0-1.127.225-2.22.676-3.276a8.53 8.53 0 0 1 1.82-2.678c.745-.745 1.638-1.352 2.678-1.82a8.09 8.09 0 0 1 3.25-.676 8.58 8.58 0 0 1 3.978.962 8.7 8.7 0 0 1 1.664 1.17c.503.45.953.962 1.352 1.534zm-.988 6.136v7.124h-.884v-6.006c0-.104-.043-.156-.13-.156h-4.94c-.85 0-1.49-.338-1.924-1.014-.277-.45-.416-.875-.416-1.274 0-.173.017-.33.052-.468a3.83 3.83 0 0 1 .13-.416c.12-.277.286-.52.494-.728.243-.243.485-.407.728-.494.312-.14.615-.208.9-.208.763 0 1.378.286 1.846.858-.14.087-.27.178-.4.273l-.364.273c-.156-.19-.32-.32-.494-.4-.225-.087-.425-.13-.598-.13-.38 0-.702.14-.962.416-.26.26-.4.58-.4.962s.13.702.4.962a1.32 1.32 0 0 0 .962.416h5.98zm0-5.408l-.78.494a6.82 6.82 0 0 0-2.236-1.976c-.92-.468-1.898-.702-2.938-.702-.9 0-1.716.165-2.444.494-.797.347-1.473.797-2.028 1.352-.555.52-1.005 1.187-1.352 2.002-.312.763-.468 1.577-.468 2.444s.165 1.664.494 2.392a6.17 6.17 0 0 0 1.378 2.002 8.36 8.36 0 0 0 .923.754 5.1 5.1 0 0 0 1.079.572c.78.347 1.595.52 2.444.52h1.092v2.184h-.936v-1.066c0-.104-.052-.156-.156-.156-1.023 0-1.967-.19-2.834-.572a6.5 6.5 0 0 1-2.314-1.56c-.64-.64-1.16-1.413-1.56-2.314a6.87 6.87 0 0 1-.598-2.808c0-.953.19-1.89.572-2.808a7.16 7.16 0 0 1 .676-1.248c.26-.38.555-.745.884-1.092.624-.66 1.395-1.187 2.314-1.586.867-.38 1.803-.572 2.808-.572 1.196 0 2.323.295 3.38.884 1.005.555 1.872 1.343 2.6 2.366zm-1.04.65l-.78.494c-.45-.64-1.057-1.16-1.82-1.56-.728-.364-1.5-.546-2.314-.546-.745 0-1.404.14-1.976.416-.624.26-1.16.615-1.612 1.066-.468.468-.823.997-1.066 1.586-.277.572-.416 1.222-.416 1.95 0 .71.14 1.37.416 1.976a5.19 5.19 0 0 0 1.092 1.586 4.97 4.97 0 0 0 1.586 1.092c.624.26 1.29.4 2.002.4h2.314v3.432h-.936V22c0-.104-.052-.156-.156-.156h-1.248c-.85 0-1.638-.156-2.366-.468-.364-.156-.702-.342-1.014-.56s-.607-.455-.884-.715c-.572-.572-1.005-1.205-1.3-1.898-.312-.728-.468-1.508-.468-2.34s.156-1.612.468-2.34a6.57 6.57 0 0 1 1.326-1.898c.572-.572 1.205-1.005 1.898-1.3.693-.312 1.465-.468 2.314-.468.988 0 1.915.225 2.782.676a5.97 5.97 0 0 1 2.158 1.898zm-.104 5.98v5.902h-.962V19.54c0-.104-.052-.156-.156-.156h-3.692c-.607 0-1.17-.13-1.7-.4-.503-.277-.927-.667-1.274-1.17-.4-.59-.598-1.24-.598-1.95 0-.537.095-.997.286-1.378.087-.225.195-.43.325-.61a6.08 6.08 0 0 1 .429-.533 4.13 4.13 0 0 1 .546-.416c.19-.12.4-.234.598-.338.4-.173.858-.26 1.378-.26a3.46 3.46 0 0 1 1.612.39c.503.26.92.633 1.248 1.118l-.78.52c-.503-.71-1.187-1.066-2.054-1.066-.364 0-.71.07-1.04.208-.347.173-.624.364-.832.572-.225.19-.407.46-.546.806a2.59 2.59 0 0 0-.208 1.014c0 .485.147.945.442 1.378.225.364.537.65.936.858a2.92 2.92 0 0 0 1.222.286h4.8zm-.9-5.278l-.78.546c-.364-.52-.823-.92-1.378-1.196s-1.135-.416-1.742-.416a3.67 3.67 0 0 0-1.508.312c-.485.208-.884.485-1.196.832-.347.312-.624.71-.832 1.196-.19.433-.286.927-.286 1.482 0 .763.208 1.456.624 2.08.19.26.4.494.624.702s.485.38.78.52c.572.312 1.18.468 1.82.468h3.562v4.654h-.988v-3.536c0-.104-.043-.156-.13-.156h-2.47c-.66 0-1.283-.13-1.872-.4-.607-.243-1.11-.58-1.508-1.014a4.39 4.39 0 0 1-1.04-1.482c-.26-.59-.4-1.205-.4-1.846s.13-1.265.4-1.872c.277-.607.624-1.118 1.04-1.534.45-.45.953-.79 1.508-1.014.59-.26 1.213-.4 1.872-.4.78 0 1.508.182 2.184.546.66.347 1.23.85 1.716 1.508zm11.7-5.772v17.212c0 .035-.004.065-.013.09s-.013.056-.013.09c-.017.035-.052.078-.104.13-.035.035-.087.07-.156.104a.79.79 0 0 1-.234.026H63.76c-.104 0-.182-.017-.234-.052-.07-.035-.12-.07-.156-.104-.07-.104-.104-.2-.104-.286V7.372c0-.07.017-.156.052-.26a.37.37 0 0 0 .065-.078.37.37 0 0 1 .065-.078l.156-.078c.035-.017.087-.026.156-.026h4.914c.035 0 .07.004.104.013s.07.013.104.013l.182.156c.017.017.052.07.104.156 0 .035.004.065.013.09s.013.056.013.09zm-.364 17.212V7.372c0-.104-.052-.156-.156-.156H63.76c-.087 0-.13.052-.13.156v17.212c0 .07.043.104.13.104h4.914c.104 0 .156-.035.156-.104zm-.286-17.108v16.952h-.936V7.476h.936zm-1.196 0v16.952h-.988V7.476h.988zm-1.248 0v16.952h-.962V7.476h.962zm-1.248 0v16.952h-.936V7.476h.936zm19.396-.13v4.966c0 .087-.01.147-.026.182-.035.087-.07.147-.104.182-.052.052-.113.087-.182.104a.42.42 0 0 1-.182.052h-3.198v11.726c0 .087-.01.147-.026.182s-.03.065-.04.09-.03.056-.065.09c-.07.07-.13.113-.182.13-.035.017-.095.026-.182.026h-4.914c-.087 0-.147-.01-.182-.026-.087-.017-.156-.06-.208-.13-.035-.07-.06-.13-.078-.182-.017-.035-.026-.095-.026-.182V12.832h-3.198c-.035 0-.065-.004-.09-.013s-.056-.013-.09-.013c-.052-.017-.113-.06-.182-.13-.035-.035-.07-.087-.104-.156-.017-.052-.026-.12-.026-.208V7.2c.035-.104.07-.173.104-.208.052-.052.113-.095.182-.13.052-.017.12-.026.208-.026h12.298c.087 0 .147.01.182.026.07.035.14.078.208.13.035.07.06.13.078.182.017.035.026.095.026.182zm-.338 4.966V7.346c0-.12-.052-.182-.156-.182H71.456c-.104 0-.156.06-.156.182v4.966c0 .104.052.156.156.156h3.536v12.1c0 .12.052.182.156.182h4.914c.104 0 .156-.06.156-.182v-12.1h3.536c.104 0 .156-.052.156-.156zm-.26-1.066v.9H71.638v-.9H83.65zm0-1.248v.962H71.638v-.962H83.65zm0-1.326v1.066H71.638V8.672H83.65zm0-1.092v.9H71.638v-.9H83.65zm-3.744 4.888V24.48h-.936V12.468h.936zm-1.196 0V24.48h-.988V12.468h.988zm-1.248 0V24.48H76.5V12.468h.962zm-1.222 0V24.48h-.962V12.468h.962zm27.664 11.778a.61.61 0 0 1-.026.52c-.12.173-.27.26-.442.26H86.328a.55.55 0 0 1-.468-.26c-.104-.156-.113-.33-.026-.52l8.554-17.108a1.55 1.55 0 0 1 .156-.208.56.56 0 0 1 .312-.104c.087 0 .182.026.286.078.035.035.065.07.09.104s.048.07.065.104h.026v.026a2.82 2.82 0 0 1 .065.143 1.91 1.91 0 0 0 .117.221l.143.312.195.4.494.975.572 1.157 1.378 2.756.78 1.534.78 1.56.767 1.508.74 1.508a41.09 41.09 0 0 0 .702 1.391l.624 1.21.507 1.027.403.82a4.26 4.26 0 0 1 .156.286l.156.312zm-.286.234c0-.017-.004-.03-.013-.04s-.013-.022-.013-.04l-.156-.3s-.104-.195-.156-.3l-.403-.82-.507-1.027-.624-1.21a41.09 41.09 0 0 1-.702-1.391l-2.288-4.576-.78-1.534-1.378-2.756-.572-1.157-.494-.975-.338-.702-.182-.4c-.052-.052-.104-.078-.156-.078-.07 0-.113.026-.13.078l-8.554 17.134c-.07.12-.043.2.078.234 0 .017.026.026.078.026h17.108c.12 0 .182-.06.182-.182zM94.856 7.658l4.186 8.385 4.186 8.36h-1.04l-3.588-7.19-3.588-7.215c-.052-.052-.104-.078-.156-.078-.07 0-.113.026-.13.078l-3.315 6.617-3.29 6.617h-.026v.104c0 .017.01.026.026.026v.052h.026v.026h9.126c.087.156.165.316.234.48s.147.325.234.48H86.484l8.372-16.744zm0 2.73l7.02 14.014H100.8l-2.9-5.81-2.9-5.837c-.052-.052-.104-.078-.156-.078-.07 0-.113.026-.13.078L90.098 22v.026h-.026v.052l.026.026v.026h.026v.026h.026v.026h6.474l.247.48s.16.325.247.48H88.46l6.396-12.766zm0 2.756l5.616 11.258h-1.04l-2.223-4.446-2.197-4.446c-.052-.052-.104-.078-.156-.078-.07 0-.113.026-.13.078l-2.652 5.252v.052h-.026v.026h.026v.078h.026v.026h.026v.026h.078v.026h3.822a12.18 12.18 0 0 1 .247.468 12.18 12.18 0 0 0 .247.468h-6.058l2.2-4.394 2.184-4.394zm0 2.756l4.238 8.502H98.08l-1.833-3.627-.585-1.235h-.026l-.624-1.3c-.052-.052-.104-.078-.156-.078-.07 0-.113.026-.13.078l-.325.65s-.22.425-.325.65v.156h.026v.026h.026v.026h.026c.017 0 .035.01.052.026h1.222a7.62 7.62 0 0 1 .234.455l.208.455h-3.406l2.392-4.784zm0 2.73l.416.832h-.832l.416-.832zm23.66.962v4.94c0 .087-.026.182-.078.286a.37.37 0 0 1-.078.065.37.37 0 0 0-.078.065c-.104.035-.19.052-.26.052H105.75c-.087 0-.147-.01-.182-.026-.052 0-.104-.026-.156-.078a.63.63 0 0 1-.078-.091.85.85 0 0 1-.052-.091.42.42 0 0 1-.052-.182V7.268c0-.035.004-.06.013-.078s.013-.043.013-.078c.035-.07.07-.12.104-.156.035-.017.06-.035.078-.052s.043-.035.078-.052a.79.79 0 0 1 .234-.026h4.888a.79.79 0 0 1 .234.026c.035.017.06.035.078.052s.043.035.078.052c.017.035.035.06.052.078s.026.043.026.078c.035.07.052.12.052.156v11.83h6.864c.07 0 .13.01.182.026.035.017.065.03.09.04s.056.03.09.065a.85.85 0 0 0 .052.091.85.85 0 0 1 .052.091c.017.035.026.095.026.182zm-.364 4.94v-4.94c0-.104-.043-.156-.13-.156h-7.228V7.268c0-.07-.052-.104-.156-.104h-4.888c-.104 0-.156.035-.156.104v17.264c0 .087.052.13.156.13h12.272c.087 0 .13-.043.13-.13zm-.26-1.118v.936h-7.098v-.936h7.098zm0-1.248v.988h-7.098v-.988h7.098zm0-1.222v.962h-7.098v-.962h7.098zm0-1.196v.936h-7.098v-.936h7.098zm-7.4-12.324v16.952h-.936V7.424h.936zm-1.196 0v16.952h-.962V7.424h.962zm-1.222 0v16.952h-.988V7.424h.988zm-1.248 0v16.952h-.936V7.424h.936z" fill="#fff" fill-rule="evenodd"/></svg>