<svg xmlns="http://www.w3.org/2000/svg" width="138" height="32" xmlns:v="https://vecta.io/nano"><path d="M24.47 19.78h-2.842l-.435 2.9h-2.9l-.464 2.9H3.33L6.084 8.24h14.47l-.435 2.784h2.9l-.464 2.9h2.842l-.928 5.858zm-5.8 0l.928-5.858h-2.842l.464-2.784h-5.8L9.593 22.68h5.8l.435-2.9h2.842zm18.27 5.8H25.427l.464-2.9h2.813L30.56 11.14h-2.842l.464-2.9h11.513l-.464 2.9h-2.813L34.562 22.68h2.842l-.464 2.9zm22.794-2.87h-2.842l-.435 2.87H41.9l.435-2.813h-2.842l1.392-8.73h2.842l.464-2.958h2.784l.435-2.842h11.774l-.435 2.784H61.6l-.464 2.958h-5.77l.435-2.755h-5.626l-.435 2.755h-3.016l-1.363 8.67h8.642l.435-2.755h-5.83l.464-2.958h11.57l-.9 5.77zm12.847 2.87H61.068l.464-2.9h2.813L66.2 11.14H63.36l.464-2.9h11.513l-.464 2.9H72.06L70.203 22.68h2.842l-.464 2.9zm21.72-14.442h-5.655l-2.29 14.442h-5.858l2.29-14.442h-5.8l.464-2.9h17.313l-.464 2.9zm19.43 14.442h-5.713l.9-5.742h-8.613l-.928 5.742H93.52l1.827-11.6h2.784l.435-2.9h2.9l.464-2.842h8.758l-.464 2.842h2.9l-.435 2.9h2.9l-1.856 11.6zm-4.408-8.7l.464-2.9h-2.9l.435-2.842h-2.958l-.464 2.842h-2.755l-.435 2.9h8.613zm24.1 8.7H116.1l2.755-17.342h5.713l-2.29 14.355h11.6l-.464 2.987z" fill="#fff" fill-rule="evenodd"/></svg>